<svg xmlns="http://www.w3.org/2000/svg" xmlns:xlink="http://www.w3.org/1999/xlink" xml:space="preserve" id="svg5" x="0" y="0" version="1.1" viewBox="0 0 330.2 192.5"><g id="Layer_2" transform="translate(-275 -380)"><g id="g5"><defs id="defs1"><path id="SVGID_1_" d="M275 380h331v192H275z"/></defs><clipPath id="SVGID_00000099632906935527403410000002792636259776861355_"><use xlink:href="#SVGID_1_" id="use1" style="overflow:visible"/></clipPath><g id="g4" clip-path="url(#SVGID_00000099632906935527403410000002792636259776861355_)"><path id="path2" d="M605 565v-2a179 179 0 0 0-17-50 173 173 0 0 0-60-64h1l10-18 9-17c3-3 5-8 7-12l2-3v-8l-1-2-1-2-5-5a15 15 0 0 0-12-2 15 15 0 0 0-9 7l-7 12-10 17-10 17-1 2h-1c-19-7-39-11-60-11h-1c-19 0-37 3-53 9l-6 2-1-2-10-17-10-17-7-12-2-3-7-4h-5c-2 0-5 0-7 2a16 16 0 0 0-7 9l1 8 1 3 7 12 10 17 10 18a173 173 0 0 0-60 64 154 154 0 0 0-17 50v2l-1 7h331l-1-7z" style="fill:#34a853"/><path id="path3" d="M527 526c6-4 7-14 2-22-6-9-16-12-22-7-7 4-8 14-2 22 5 9 15 12 21 7z" class="st0"/><path id="path4" d="M377 520c5-9 4-19-2-23-7-4-17-1-22 7-6 8-5 18 2 22 6 5 16 2 22-6z" class="st0"/></g></g></g></svg>