<svg xmlns="http://www.w3.org/2000/svg" xmlns:xlink="http://www.w3.org/1999/xlink" viewBox="0 0 46.8 47.9"><linearGradient xlink:href="#a" id="c" x1="57.7" x2="63.5" y1="63.5" y2="60.6" gradientTransform="translate(-22 -23)" gradientUnits="userSpaceOnUse"/><linearGradient id="a"><stop offset="0" stop-color="#fff" stop-opacity=".4"/><stop offset="1" stop-color="#fff" stop-opacity="0"/></linearGradient><linearGradient xlink:href="#b" id="d" x1="47.9" x2="21.6" y1="55.1" y2="70.7" gradientTransform="translate(-22 -23)" gradientUnits="userSpaceOnUse"/><linearGradient id="b"><stop offset="0" stop-opacity=".1"/><stop offset="1" stop-opacity=".3"/></linearGradient><linearGradient xlink:href="#b" id="e" x1="42.7" x2="59.4" y1="37.4" y2="52.4" gradientTransform="translate(-22 -23)" gradientUnits="userSpaceOnUse"/><linearGradient xlink:href="#b" id="f" x1="57.7" x2="68.4" y1="63.5" y2="70.7" gradientTransform="translate(-22 -23)" gradientUnits="userSpaceOnUse"/><linearGradient xlink:href="#a" id="g" x1="47.9" x2="32.3" y1="55.1" y2="48.5" gradientTransform="translate(-22 -23)" gradientUnits="userSpaceOnUse"/><linearGradient xlink:href="#a" id="h" x1="70.5" x2="63" y1="62.8" y2="59.2" gradientTransform="matrix(-1.02596 0 0 1.02596 93 -50)" gradientUnits="userSpaceOnUse"/><path fill="#10a0cc" d="m23 0-8 17 23 13ZM13 22 0 48l38-16Zm27 13-12 6 19 7z"/><path fill="url(#c)" d="m36 41 4-6 7 13z" style="fill:url(#c)"/><path fill="url(#d)" d="m0 48 26-16h12z" style="fill:url(#d)"/><path fill="url(#e)" d="M38 30 15 17l6-2Z" style="fill:url(#e)"/><path fill="url(#f)" d="m47 48-19-7h8Z" style="fill:url(#f)"/><path fill="url(#g)" d="m0 48 26-16-13-10Z" style="fill:url(#g)"/><path fill="url(#h)" d="M38 30 21 15l2-15Z" style="fill:url(#h)"/></svg>