<svg xmlns="http://www.w3.org/2000/svg" xml:space="preserve" id="Layer_1" x="0" y="0" version="1.1" viewBox="0 0 1024 1024"><style>.st1{fill:#fefefe}</style><path fill="#010101" d="m344 111 29 19c31 23 59 48 85 75a1425 1425 0 0 1 122 144c14 19 27 38 39 58l15 23c5 8 19 13 30 10 23-6 39-25 39-50 1-20 0-40-6-60-3-10-7-20-18-22-18-3-33-12-47-21-15-9-29-11-45-6-7 2-14 4-22 4-7 1-12-2-16-7-12-16-8-35 9-46 13-8 27-13 49-16l-10-11a283 283 0 0 1-59-126c0-21 18-32 32-34 7 0 13 2 16 8l18 33c6 14 13 27 24 38l6 4-3-12c-5-22-11-43-11-66l1-31c2-12 9-18 20-19l18 1c9 2 15 9 17 17 5 15 8 30 11 45s6 30 13 43l3 4 3 3 10-38c4-11 8-22 14-32 8-14 21-20 36-20 16-1 25 9 23 24-2 10-4 20-8 29-14 28-16 56-9 86 4 17 9 33 8 50 0 19-4 37-18 51-4 5-9 9-15 13a51 51 0 0 0-22 41v54c0 14-1 28-3 41-1 10-5 19-10 27-13 19-19 41-20 63-2 26 5 50 15 74a802 802 0 0 1 59 364c-2 18-6 36-14 53a58 58 0 0 1-48 34c-18 2-31-4-41-17l-34-50c-15-20-30-39-50-53a94 94 0 0 0-76-15c-20 4-39 12-56 25-25 17-48 36-72 55-17 13-33 26-53 33-10 3-20 4-30 1s-17-10-20-21c-4-13-4-27-3-41l3-55-2 4c-7 11-9 12-22 9-6-2-13-4-18-8-13-9-14-25-4-39l21-27c25-28 28-61 18-96-3-12-7-25-9-38-3-16-4-34 3-49 6-13 14-24 22-35 29-37 49-78 57-124 3-19 5-38 6-58l8-136c2-48 2-96-2-144-1-12-4-23-6-35v-2zm31 400c-5 3-9 6-10 12l-18 84-33 174c-7 40-11 80-16 121-2 19-3 39 0 59 3 18 10 21 26 15 14-6 26-17 37-27l60-51c23-18 49-32 79-37 26-4 50-1 74 11 26 13 46 33 64 56l38 55c8 11 17 18 31 15 6-1 12-3 16-9 6-9 8-18 9-28l7-72c4-58-2-115-15-171a1004 1004 0 0 0-103-260l-28-48c-1-1-2-4-4-3l-18 2c11 44 1 81-32 112-22 20-48 30-78 31a98 98 0 0 1-86-41zm106-137-15 2c-20 3-38 11-54 23-21 16-36 35-33 64 4 32 24 59 58 67 19 4 37 2 56-5 36-13 65-47 62-91-1-17-8-31-21-42a80 80 0 0 0-53-18zM291 737h1l1-5 11-60 6-35-3-9c-3 1-6 2-8 5a87 87 0 0 0-21 41c-2 7-2 16 0 23 3 13 8 26 13 40zm53-626h-1 1z"/><path d="M375 511a98 98 0 0 0 86 41c30-1 56-11 78-31 33-31 43-68 32-112l18-2c2 0 3 2 4 3l28 48a1128 1128 0 0 1 103 260c13 56 19 113 15 171l-7 72c-1 10-3 19-9 28-4 6-10 8-16 9-14 3-23-4-31-15l-38-55c-18-23-38-43-64-56-24-12-48-15-74-11-30 6-56 19-79 37l-60 51c-11 10-23 21-37 27-16 6-23 3-26-15-3-20-2-40 0-59 5-41 9-81 16-121l33-174 18-84c1-6 5-9 10-12z" class="st1"/><path fill="#900028" d="M481 374c20 0 38 5 53 18 13 11 20 25 21 42 3 44-26 78-62 91-19 7-37 9-56 5-34-8-54-35-58-67-3-29 12-48 33-64 16-12 34-20 54-23l15-2zm-61 71c3-1 10-3 17-7 11-6 20-14 25-25 5-10 0-17-12-16l-14 4c-13 7-25 15-30 30-3 9 1 14 14 14z"/><path d="M291 737c-5-14-10-27-13-40-2-7-2-16 0-23 3-15 10-30 21-41 2-3 5-4 8-5l3 9-6 35-11 60-1 5h-1zm129-292c-13 0-17-5-14-14 5-15 17-24 30-30l14-4c12-1 17 6 12 16-5 11-14 19-25 25-7 4-14 6-17 7z" class="st1"/></svg>