<?xml version="1.0" encoding="utf-8"?>
<!-- Generator: Adobe Illustrator 28.3.0, SVG Export Plug-In . SVG Version: 6.00 Build 0)  -->
<svg version="1.1" id="Layer_1" xmlns="http://www.w3.org/2000/svg" xmlns:xlink="http://www.w3.org/1999/xlink" x="0px" y="0px"
	 viewBox="0 0 1024 1024" style="enable-background:new 0 0 1024 1024;" xml:space="preserve">
<style type="text/css">
	.st0{fill:#010101;}
	.st1{fill:#FEFEFE;}
	.st2{fill:#900028;}
</style>
<g>
	<path class="st0" d="M344.03,111.08c9.66,6.27,19.66,12.08,28.92,18.9c30.7,22.62,58.98,48.11,85.46,75.46
		c21.75,22.47,43.04,45.48,63.26,69.33c20.43,24.11,39.77,49.19,58.65,74.53c13.81,18.54,26.2,38.13,39.02,57.39
		c5.16,7.75,9.66,15.95,14.69,23.79c4.96,7.72,19.12,12.22,29.48,9.67c23.98-5.89,39.21-24.95,39.97-49.71
		c0.62-20.5-0.1-40.85-6.45-60.56c-3.13-9.71-7.22-20.36-18.27-22.01c-18.05-2.7-32.46-12.2-47.25-21.3
		c-14.03-8.63-28.55-10.25-44.23-5.65c-7.25,2.12-14.75,3.65-22.25,4.55c-6.64,0.79-12.01-2.52-15.96-7.9
		c-11.63-15.8-7.96-34.57,8.8-45.14c12.69-8,26.97-13,48.72-16.93c-3.25-3.67-6.24-7.08-9.26-10.46
		c-12.5-13.99-22.96-29.43-31.48-46.09c-11.02-21.54-20.66-43.68-25.91-67.44c-0.93-4.19-1.32-8.56-1.39-12.86
		c-0.39-21.03,17.13-31.72,31.8-33.38c6.49-0.73,12.36,1.81,15.62,7.36c6.35,10.82,12.24,21.93,17.74,33.21
		c6.69,13.71,13.51,27.24,24.54,38.1c1.55,1.53,3.21,2.96,5.87,3.89c-0.97-4.04-1.92-8.09-2.9-12.13
		c-5.27-21.65-11.6-43.13-11.28-65.71c0.15-10.37,0.48-20.76,1.5-31.07c1.15-11.65,8.08-18.15,19.72-18.79
		c5.82-0.32,11.84-0.06,17.54,1.09c9.33,1.88,15.28,8.61,17.71,17.25c4.1,14.57,7.31,29.42,10.32,44.27
		c3.03,14.92,5.81,29.84,13.52,43.26c0.85,1.49,1.91,2.87,2.95,4.24c0.58,0.77,1.32,1.41,2.41,2.57
		c3.54-13.03,6.32-25.66,10.46-37.83c3.76-11.03,8.06-22.09,13.81-32.17c7.75-13.59,20.7-19.92,36.3-20.29
		c15.89-0.38,25.09,9.21,22.69,24.88c-1.47,9.61-3.7,19.6-8.05,28.18c-14.2,27.97-16.19,56.63-8.56,86.64
		c4.16,16.38,8.89,32.81,8.16,49.96c-0.79,18.63-4.75,36.42-18,50.59c-4.45,4.76-9.62,8.99-14.93,12.8
		c-14.41,10.35-21.66,24.54-22.2,41.91c-0.55,17.79,0.2,35.62-0.28,53.42c-0.37,13.8-1.38,27.61-2.83,41.34
		c-1.04,9.87-4.98,18.78-10.64,27.18c-12.77,18.97-18.26,40.39-19.58,63.04c-1.51,25.8,5.05,49.59,15.07,73.28
		c22.16,52.42,38.23,106.82,48.89,162.79c6.29,33.02,10.12,66.28,12.14,99.82c2.05,33.95,1.63,67.79-2.32,101.57
		c-2.16,18.43-5.86,36.47-14.06,53.33c-9.74,20.01-25.71,30.19-47.77,33.37c-17.7,2.55-30.53-3.57-40.49-17.09
		c-11.88-16.12-23.1-32.73-34.73-49.03c-14.3-20.03-29.29-39.38-49.84-53.7c-23.2-16.18-48.54-20.82-75.94-15.03
		c-20.38,4.3-39.28,12.68-55.99,24.78c-24.47,17.72-47.99,36.74-71.85,55.29c-16.63,12.93-32.92,26.35-53.31,33.27
		c-9.82,3.33-19.77,3.54-29.61,0.75c-10.46-2.96-16.84-10.21-19.86-20.66c-3.91-13.51-4.25-27.29-3.46-41.15
		c1.01-17.94,2.31-35.87,3.55-54.86c-1.1,1.73-1.69,2.66-2.28,3.6c-6.83,10.96-9.17,12.34-21.65,9.24
		c-6.41-1.59-13.19-3.8-18.41-7.64c-12.78-9.4-14.28-25.74-4.18-39.59c6.61-9.07,13.62-17.88,21.01-26.33
		c24.92-28.52,28.44-61,18.59-96.19c-3.53-12.61-7.79-25.13-9.94-37.99c-2.78-16.6-3.82-33.87,3.66-49.48
		c5.91-12.34,13.41-24.21,21.89-34.97c28.98-36.77,49.17-77.54,57.07-123.77c3.25-19.05,4.5-38.49,5.76-57.81
		c2.95-45.23,5.94-90.48,7.81-135.76c1.99-48.08,2.44-96.22-1.67-144.24c-1.01-11.81-4.02-23.44-6.07-35.17
		c-0.12-0.68,0.13-1.42,0.2-2.13C344.12,110.93,344.03,111.08,344.03,111.08z M375.34,511.03c-5.05,3.27-9.32,5.69-10.59,12.21
		c-5.45,27.96-12.01,55.69-17.49,83.64c-11.38,57.96-23.16,115.86-33.17,174.05c-6.88,40-11.55,80.42-16.26,120.75
		c-2.31,19.73-3.15,39.72,0.29,59.53c3.02,17.41,9.5,21.06,26.02,14.37c14.35-5.81,25.51-16.32,37.04-26.23
		c19.79-17.01,39.05-34.68,59.47-50.9c23.36-18.55,49.5-31.97,79.35-37.21c25.74-4.52,50.38-1.12,73.66,10.41
		c26.31,13.03,46.53,33.38,63.88,56.54c13.46,17.96,26.04,36.6,38.84,55.05c7.39,10.66,16.19,17.59,30.28,14.93
		c6.65-1.26,12.12-3.53,16.05-9.22c5.88-8.51,8.44-18.3,9.56-28.19c2.71-23.86,5-47.79,6.68-71.75
		c4.05-57.73-1.5-114.59-15.28-170.83c-10.78-44-24.68-86.93-41.25-129.02c-17.7-44.97-37.95-88.8-61.26-131.16
		c-8.9-16.17-18.48-31.97-27.86-47.87c-0.88-1.49-2.62-3.67-3.81-3.57c-6.4,0.51-12.76,1.63-18.91,2.51
		c11.75,44.09,1.25,81.24-31.54,111.51c-21.71,20.05-48.14,30.19-77.6,31.56c-20.23,0.94-39.38-3.5-57.05-13.95
		C392.73,531.32,383.44,522.04,375.34,511.03z M481.37,374.4c-4.99,0.37-10.04,0.38-14.96,1.18c-20,3.26-38.13,11.27-54.16,23.48
		c-20.9,15.92-36.47,34.71-33.11,63.72c3.77,32.61,24.08,59.08,57.39,66.89c19.03,4.46,37.73,2.6,56.01-4.21
		c36.64-13.63,65.86-47.3,62.3-91.68c-1.33-16.54-7.6-30.75-20.5-41.58C519.03,379.37,501.03,374.5,481.37,374.4z M290.97,736.72
		c0.43,0.02,0.87,0.05,1.3,0.07c0.31-1.47,0.65-2.93,0.91-4.41c3.62-20.02,7.27-40.04,10.83-60.08c2.08-11.7,4.29-23.4,5.76-35.18
		c0.37-2.93-1.89-6.19-2.94-9.29c-2.73,1.56-6.08,2.56-8.1,4.78c-10.78,11.86-17.71,25.96-20.91,41.51
		c-1.49,7.24-1.82,15.4-0.05,22.48C281.18,710.22,286.46,723.37,290.97,736.72z"/>
	<path class="st0" d="M344.12,110.93c-0.23,0.07-0.45,0.14-0.68,0.2c0.01-0.21,0.03-0.41,0.04-0.62c0.18,0.19,0.37,0.38,0.55,0.57
		C344.03,111.08,344.12,110.93,344.12,110.93z"/>
	<path class="st1" d="M375.34,511.03c8.1,11,17.38,20.29,29.06,27.2c17.67,10.45,36.82,14.89,57.05,13.95
		c29.46-1.37,55.89-11.51,77.6-31.56c32.78-30.27,43.29-67.43,31.54-111.51c6.15-0.88,12.5-2,18.91-2.51
		c1.19-0.09,2.93,2.08,3.81,3.57c9.38,15.9,18.95,31.7,27.86,47.87c23.32,42.35,43.56,86.19,61.26,131.16
		c16.57,42.09,30.47,85.02,41.25,129.02c13.77,56.24,19.32,113.1,15.28,170.83c-1.68,23.96-3.97,47.89-6.68,71.75
		c-1.12,9.89-3.68,19.68-9.56,28.19c-3.93,5.68-9.4,7.96-16.05,9.22c-14.1,2.66-22.89-4.27-30.28-14.93
		c-12.8-18.45-25.37-37.09-38.84-55.05c-17.36-23.16-37.58-43.51-63.88-56.54c-23.28-11.53-47.91-14.92-73.66-10.41
		c-29.86,5.24-55.99,18.65-79.35,37.21c-20.42,16.21-39.68,33.89-59.47,50.9c-11.52,9.9-22.69,20.42-37.04,26.23
		c-16.52,6.69-23,3.03-26.02-14.37c-3.44-19.81-2.59-39.81-0.29-59.53c4.71-40.34,9.38-80.75,16.26-120.75
		c10.01-58.2,21.8-116.1,33.17-174.05c5.49-27.95,12.05-55.69,17.49-83.64C366.02,516.72,370.29,514.3,375.34,511.03z"/>
	<path class="st2" d="M481.37,374.4c19.66,0.1,37.66,4.96,52.97,17.81c12.9,10.83,19.17,25.04,20.5,41.58
		c3.56,44.38-25.66,78.04-62.3,91.68c-18.29,6.8-36.98,8.67-56.01,4.21c-33.31-7.81-53.62-34.28-57.39-66.89
		c-3.36-29.01,12.21-47.79,33.11-63.72c16.03-12.21,34.16-20.22,54.16-23.48C471.32,374.78,476.37,374.77,481.37,374.4z
		 M419.77,445.09c3.58-1.41,10.72-3.49,17.15-6.89c10.89-5.76,19.86-13.94,25.16-25.31c4.83-10.37-0.32-17.37-11.67-15.87
		c-4.9,0.65-9.93,1.96-14.37,4.08c-13.43,6.41-24.82,15.28-30.09,29.87C402.85,439.57,406.96,444.91,419.77,445.09z"/>
	<path class="st1" d="M290.97,736.72c-4.5-13.35-9.79-26.51-13.2-40.13c-1.77-7.08-1.44-15.24,0.05-22.48
		c3.2-15.54,10.13-29.65,20.91-41.51c2.01-2.22,5.36-3.22,8.1-4.78c1.05,3.11,3.31,6.36,2.94,9.29
		c-1.47,11.78-3.68,23.48-5.76,35.18c-3.55,20.04-7.21,40.05-10.83,60.08c-0.27,1.48-0.61,2.94-0.91,4.41
		C291.83,736.77,291.4,736.75,290.97,736.72z"/>
	<path class="st1" d="M419.77,445.09c-12.81-0.17-16.92-5.52-13.81-14.12c5.27-14.6,16.66-23.47,30.09-29.87
		c4.44-2.12,9.47-3.43,14.37-4.08c11.35-1.5,16.5,5.51,11.67,15.87c-5.3,11.37-14.27,19.55-25.16,25.31
		C430.48,441.6,423.35,443.68,419.77,445.09z"/>
</g>
</svg>
