<svg xmlns="http://www.w3.org/2000/svg" xml:space="preserve" id="Layer_1" x="0" y="0" version="1.1" viewBox="0 0 1024 1024"><style>.st1{fill:#fff}</style><g id="g3069" transform="translate(376) scale(.04405)"><path id="path8" d="M510 2100c-2834 205-5064 1644-6974 4478-1084 1617-1404 2603-2008 6166-54 320-71 1040-36 1804 71 1395 9 1253 746 1732 169 107 560 533 871 933 302 409 658 827 773 915l222 169-275 596c-427 906-400 2159 44 2159 169 0 818-471 1306-942l400-391 889 346c3163 1235 6939 960 9871-710l781-454 303 338c168 195 533 631 799 968 915 1138 1093 1235 1315 693 364-852 276-1581-373-3234l-160-417 613-587c738-702 649-684 1048-160 560 747 1715 1600 2604 1937 622 231 631 18 71-897-1031-1653-1093-2141-400-3119 480-693 1022-1217 1475-1430 364-169 382-284 115-533-453-409-1350-515-2088-258-444 160-524 107-639-400C10399 5556 6294 1780 1177 2056c-152 9-445 26-667 44z"/><path id="path4690" fill="#bfcfe7" d="M3931 2864c1501 373 2630 1040 3740 2213 1982 2114 3110 4646 3670 8227 9 18 142-80 302-213 489-409 1475-667 2088-524 240 44 231 62-560 879-1377 1422-1457 2443-302 4069 115 151 142 249 71 249-435 0-2354-2079-2310-2505 53-533-658-160-1084 577a3376 3376 0 0 1-462 595l-240 223-249-303c-231-266-266-284-435-168l-178 124 178 302c560 906 1137 2577 1146 3243 0 738-213 729-737-35-409-614-1564-1866-1848-2008-605-320-942-107-480 302 453 391 453 391-675 1013-2062 1128-6922 1403-8708 506-986-506-2549-1697-2940-2239l-187-275 213 53c116 27 578 151 1031 275 1821 498 6877 578 7845 125 1262-587 1404-1431 160-960-2212 844-6770 595-9489-506-657-267-1253-516-1324-542-160-62-80-2879 116-4016 533-3119 2203-6104 4167-7446 204-142 524-355 711-488 1243-853 4753-1235 6770-747zm-9027 16331c115 151 195 275 178 293-391 266-987 595-1031 551-80-80 124-693 302-915 204-258 293-249 551 71z"/><path id="path10" d="M-5372 11687c-1057 569-1377 2479-542 3243 1386 1288 3323 355 3350-1608 18-1226-1715-2230-2808-1635z"/><path id="path2025" d="M-3799 12149c986 613 1137 1368 471 2301-1066 1484-3216 107-2550-1635 284-755 1359-1101 2079-666z" class="st1"/><path id="path12" d="M-4865 12513c-835 347-702 1786 169 1857 391 36 551-71 728-497 373-898-133-1671-897-1360zm702 391c53 80 62 169 26 204-106 116-728-88-755-248-53-285 542-249 729 44z"/><path id="path14" d="M-1098 12256c-1350 408-1306 2487 71 2985 595 204 942 160 1306-178 1182-1128 133-3269-1377-2807z"/><path id="path2912" d="M-289 12744c781 409 897 1289 248 1973-542 577-1581-89-1581-995 0-853 648-1333 1333-978z" class="st1"/><path id="path16" d="M-1134 13197c-382 587-62 1484 471 1315 525-169 729-426 729-924 0-559-897-853-1200-391zm756 80c142 169 44 302-178 249-213-53-302-169-222-293 80-125 275-107 400 44z"/></g></svg>