<?xml version="1.0" encoding="utf-8"?>
<!-- Generator: Adobe Illustrator 28.3.0, SVG Export Plug-In . SVG Version: 6.00 Build 0)  -->
<svg version="1.1" id="Layer_1" xmlns="http://www.w3.org/2000/svg" xmlns:xlink="http://www.w3.org/1999/xlink" x="0px" y="0px"
	 viewBox="0 0 1024 1024" style="enable-background:new 0 0 1024 1024;" xml:space="preserve">
<style type="text/css">
	.st0{fill:#BFCFE7;}
	.st1{fill:#FFFFFF;}
</style>
<g id="g3069" transform="matrix(0.04405078,0,0,0.04405078,375.92767,0.261254)">
	<path id="path8" d="M510.15,2100.18c-2834.26,204.35-5064.35,1643.69-6974.59,4477.95
		c-1083.95,1617.04-1403.8,2603.25-2007.97,6166.07c-53.31,319.85-71.08,1039.52-35.54,1803.62
		c71.08,1394.92,8.88,1252.76,746.33,1732.54c168.81,106.62,559.74,533.09,870.71,932.91c302.08,408.7,657.48,826.29,772.98,915.14
		l222.12,168.81l-275.43,595.28c-426.47,906.25-399.82,2159.01,44.42,2159.01c168.81,0,817.4-470.9,1306.07-941.79l399.82-390.93
		l888.48,346.51c3163,1234.99,6939.05,959.56,9871.04-710.79l781.86-453.13l302.08,337.62
		c168.81,195.47,533.09,630.82,799.63,968.45c915.14,1137.26,1092.83,1234.99,1314.95,693.02
		c364.28-852.94,275.43-1581.5-373.16-3234.08l-159.93-417.59l613.05-586.4c737.44-701.9,648.59-684.13,1048.41-159.93
		c559.74,746.33,1714.77,1599.27,2603.25,1936.89c621.94,231.01,630.82,17.77,71.08-897.37
		c-1030.64-1652.58-1092.83-2141.24-399.82-3118.58c479.78-693.02,1021.76-1217.22,1474.88-1430.46
		c364.28-168.81,382.05-284.32,115.5-533.09c-453.13-408.7-1350.49-515.32-2087.93-257.66
		c-444.24,159.93-524.21,106.62-639.71-399.82C10398.96,5556.38,6294.17,1780.32,1176.51,2055.75
		C1025.47,2064.64,732.27,2082.41,510.15,2100.18z"/>
	<path id="path4690" class="st0" d="M3930.81,2864.27C5432.34,3237.44,6560.72,3903.8,7671.32,5076.6
		c1981.32,2114.59,3109.69,4646.77,3669.44,8227.35c8.88,17.77,142.16-79.96,302.08-213.24
		c488.67-408.7,1474.88-666.36,2087.93-524.2c239.89,44.42,231.01,62.19-559.74,879.6
		c-1377.15,1421.57-1457.11,2443.33-302.08,4069.25c115.5,151.04,142.16,248.78,71.08,248.78
		c-435.36,0-2354.48-2079.05-2310.06-2505.52c53.31-533.09-657.48-159.93-1083.95,577.51c-124.39,204.35-328.74,470.9-462.01,595.28
		l-239.89,222.12l-248.78-302.08c-231-266.54-266.54-284.31-435.36-168.81l-177.7,124.39l177.7,302.08
		c559.74,906.25,1137.26,2576.6,1146.14,3242.96c0,737.44-213.24,728.55-737.44-35.54
		c-408.7-613.05-1563.73-1865.81-1848.04-2007.97c-604.17-319.85-941.79-106.62-479.78,302.09
		c453.13,390.93,453.13,390.93-675.25,1012.87c-2061.28,1128.37-6921.28,1403.8-8707.13,506.44
		c-986.22-506.44-2549.95-1697-2940.88-2238.98l-186.58-275.43l213.24,53.31c115.5,26.65,577.51,151.04,1030.64,275.43
		c1821.39,497.55,6876.86,577.51,7845.3,124.39c1261.65-586.4,1403.8-1430.46,159.93-959.56
		c-2212.32,844.06-6770.24,595.28-9489-506.44c-657.48-266.54-1252.76-515.32-1323.84-541.97
		c-159.93-62.19-79.96-2878.68,115.5-4015.94c533.09-3118.58,2203.44-6103.88,4166.98-7445.49
		c204.35-142.16,524.2-355.39,710.79-488.67C-1595.56,2757.66,1913.95,2375.61,3930.81,2864.27z M-5096.18,19194.59
		c115.5,151.04,195.47,275.43,177.7,293.2c-390.93,266.54-986.22,595.28-1030.64,550.86c-79.96-79.96,124.39-693.02,302.08-915.14
		C-5442.69,18865.85-5353.84,18874.73-5096.18,19194.59z"/>
	<path id="path10" d="M-5371.61,11686.91c-1057.29,568.63-1377.15,2478.87-541.97,3242.96
		c1386.03,1288.3,3322.93,355.39,3349.58-1608.15C-2546.23,12095.61-4278.78,11091.62-5371.61,11686.91z"/>
	<path id="path2025" class="st1" d="M-3798.99,12148.92c986.22,613.05,1137.26,1368.26,470.9,2301.17
		c-1066.18,1483.77-3216.31,106.62-2549.95-1634.81C-5593.73,12060.07-4518.67,11713.56-3798.99,12148.92z"/>
	<path id="path12" d="M-4865.17,12513.2c-835.17,346.51-701.9,1785.85,168.81,1856.93c390.93,35.54,550.86-71.08,728.56-497.55
		C-3594.64,12975.21-4101.08,12202.23-4865.17,12513.2z M-4163.27,12904.13c53.31,79.96,62.19,168.81,26.65,204.35
		c-106.62,115.5-728.56-88.85-755.21-248.78C-4945.14,12575.39-4349.85,12610.93-4163.27,12904.13z"/>
	<path id="path14" d="M-1098.01,12255.54c-1350.49,408.7-1306.07,2487.75,71.08,2985.3c595.28,204.35,941.79,159.93,1306.07-177.7
		C1460.82,13934.77,412.41,11793.53-1098.01,12255.54z"/>
	<path id="path2912" class="st1" d="M-289.49,12744.2c781.86,408.7,897.37,1288.3,248.78,1972.43
		c-541.97,577.51-1581.5-88.85-1581.5-995.1C-1622.21,12868.59-973.62,12388.81-289.49,12744.2z"/>
	<path id="path16" d="M-1133.55,13197.33c-382.05,586.4-62.19,1483.77,470.9,1314.96c524.2-168.81,728.56-426.47,728.56-924.02
		C65.91,13028.52-831.46,12735.32-1133.55,13197.33z M-378.33,13277.29c142.16,168.81,44.42,302.08-177.7,248.78
		c-213.24-53.31-302.08-168.81-222.12-293.2C-698.19,13108.48-502.72,13126.25-378.33,13277.29z"/>
</g>
</svg>
