<svg xmlns="http://www.w3.org/2000/svg" viewBox="0 0 128 128"><defs><radialGradient id="b" cx="302.8" cy="-375.5" r="207.2" fx="302.8" fy="-375.5" gradientTransform="translate(-47 185.5) scale(.3539)" gradientUnits="userSpaceOnUse"><stop offset=".7" stop-color="#fcfcfc" stop-opacity="0"/><stop offset="1" stop-color="#fcfcfc"/></radialGradient><radialGradient id="c" cx="311.1" cy="-348.2" r="172.4" fx="311.1" fy="-348.2" gradientTransform="translate(-47 185.5) scale(.3539)" gradientUnits="userSpaceOnUse"><stop offset=".1" stop-color="#0f0f0d" stop-opacity="0"/><stop offset=".9" stop-color="#414141" stop-opacity="0"/><stop offset=".9" stop-color="#1e1e1d" stop-opacity=".7"/><stop offset="1" stop-color="#0f0f0d"/></radialGradient><radialGradient id="d" cx="316.9" cy="-451.6" r="334.8" fx="316.9" fy="-451.6" gradientTransform="matrix(.3539 0 0 .2026 -47 118)" gradientUnits="userSpaceOnUse"><stop offset="0" stop-color="#2e6b26"/><stop offset="1" stop-color="#6ab536"/></radialGradient><radialGradient id="e" cx="314.4" cy="-453.4" r="65.4" fx="314.4" fy="-453.4" gradientTransform="translate(-47 185.5) scale(.3539)" gradientUnits="userSpaceOnUse"><stop offset="0" stop-color="#6ab536"/><stop offset="1" stop-color="#2e6b26"/></radialGradient><radialGradient id="f" cx="322.2" cy="-390.3" r="96.6" fx="322.2" fy="-390.3" gradientTransform="matrix(.3356 0 0 .5572 -44.2 256.6)" gradientUnits="userSpaceOnUse"><stop offset="0"/><stop offset=".8" stop-color="#4f4f4f" stop-opacity="0"/></radialGradient><radialGradient id="g" cx="313" cy="-473" r="223.5" fx="313" fy="-473" gradientTransform="translate(-47 185.5) scale(.3539)" gradientUnits="userSpaceOnUse"><stop offset="0" stop-color="#f5f5f5"/><stop offset=".5" stop-color="#f2f2f2"/></radialGradient><linearGradient id="a" x1="64" x2="64" y1="-3.3" y2="118.5" gradientUnits="userSpaceOnUse"><stop offset="0" stop-color="#414141"/><stop offset=".2" stop-color="#3e3e3e"/><stop offset="1" stop-color="#3a3a3a"/></linearGradient></defs><g style="isolation:isolate"><path fill="none" d="M0 0h128v128H0z"/><path fill="url(#a)" d="M64 124.9a61 61 0 1 1 .1-122 61 61 0 0 1-.1 122ZM64 8.2a55.8 55.8 0 1 0 .2 111.7A55.8 55.8 0 0 0 64 8.2Z"/><path fill="url(#b)" d="M64 3.1a61 61 0 1 0 .1 122A61 61 0 0 0 64 3Z" opacity=".3" style="mix-blend-mode:lighten"/><path fill="url(#c)" d="M64 124.9a61 61 0 1 1 .1-122 61 61 0 0 1-.1 122ZM64 8.2a55.8 55.8 0 1 0 .2 111.7A55.8 55.8 0 0 0 64 8.2Z" opacity=".4"/><path fill="rgba(15,15,13,.35)" d="M64 8.6a56.2 56.2 0 1 0 .1 112.4A56.2 56.2 0 0 0 64 8.6Z"/><path fill="#0f0f0d" d="M64 124.9a61 61 0 1 1 .1-122 61 61 0 0 1-.1 122ZM64 4.4c-33.6 0-60.9 27-60.9 60s27.3 60.2 60.9 60.2 60.9-27 60.9-60.1S97.6 4.4 64 4.4Z" opacity=".3"/><path fill="url(#d)" d="M64 8.2a55.8 55.8 0 1 0 .1 111.7A55.8 55.8 0 0 0 64 8.2Z"/><path fill="url(#e)" d="M64 12.9A16.6 16.6 0 1 0 64 46a16.6 16.6 0 0 0 0-33Z" opacity=".7" style="mix-blend-mode:lighten"/><path fill="url(#f)" d="M34.7 16.4Zm42.1 35.8L76 65.9l9.1 10-9 9.9 6 6.5-6 6.6.7 13.7H51.2V52.2A32.8 32.8 0 0 1 34 22.8c0-2.2.3-4.2.6-6.4 1-.2 19-7.7 19-7.7-.2.8 20.8.8 20.7 0 0 0 17.2 7.5 19 7.8.4 2.1.5 4.1.5 6.3a33 33 0 0 1-17.1 29.4Zm16.5-35.8v.1c.2 0 .2 0 0-.1Z" opacity=".3" style="mix-blend-mode:multiply"/><path fill="#0f0f0d" d="M34.1 100.4a46.9 46.9 0 0 1 6.7-75.8c-.2 1.7-.5 3.2-.5 4.9 0 9.8 5.7 18.3 14.1 22.2v44.6L65 107l10.5-10.6-.6-9.2 5-5-5-5 7.5-7.5-7.5-7.5.6-10.4a24.8 24.8 0 0 0 13.6-27c5.2 3 9.6 7 13.2 11.7A47.2 47.2 0 0 0 16.7 64c0 14.7 6.8 27.8 17.4 36.4Zm27.4-7.6H58V57.6h3.5v35.2Zm-5-74a48.2 48.2 0 0 1 17 0l.2 2a8.8 8.8 0 0 1-17.5 0c0-.7.1-1.4.3-2Z" opacity=".2" style="mix-blend-mode:multiply"/><path fill="url(#g)" d="M64 8.2a55.8 55.8 0 1 0 .2 111.7A55.8 55.8 0 0 0 64 8.2Zm-8.5 9.6a48.2 48.2 0 0 1 17 0c.1.6.3 1.3.3 2a8.8 8.8 0 0 1-17.6 0c0-.7.2-1.4.3-2Zm5 38.8v35.2H57V56.6h3.6ZM64 111a47 47 0 0 1-24.1-87.3c-.3 1.6-.6 3.1-.6 4.8 0 9.8 5.8 18.3 14.2 22.2v44.6L64 106l10.5-10.6-.6-9.2 5-5-5-5 7.5-7.4-7.5-7.5.6-10.5a24.8 24.8 0 0 0 13.6-27A47 47 0 0 1 64 111Z"/></g></svg>