<svg xmlns="http://www.w3.org/2000/svg" xmlns:xlink="http://www.w3.org/1999/xlink" viewBox="0 0 65.35 65.35"><defs><linearGradient id="f"><stop offset="0" stop-color="#6b3e75"/><stop offset="1" stop-color="#fff"/></linearGradient><linearGradient id="e"><stop offset="0" stop-color="#f9f9f9"/><stop offset="1" stop-color="#b9b9b9"/></linearGradient><linearGradient id="d"><stop offset="0" stop-color="#451b4c"/><stop offset="1" stop-color="#6c3c76"/></linearGradient><linearGradient id="c"><stop offset="0" stop-color="#2f0e35"/><stop offset="1" stop-color="#732e7d"/></linearGradient><linearGradient id="b"><stop offset="0" stop-color="#f1f0f1"/><stop offset="1" stop-color="#ada7af"/></linearGradient><linearGradient id="a"><stop offset="0" stop-color="#66386f"/><stop offset="1" stop-color="#461d4d"/></linearGradient><linearGradient xlink:href="#a" id="n" x1="29.15" x2="33.09" y1="1018.1" y2="1023.29" gradientUnits="userSpaceOnUse"/><linearGradient xlink:href="#b" id="m" x1="24.47" x2="41.67" y1="1011.91" y2="1029.11" gradientUnits="userSpaceOnUse"/><linearGradient xlink:href="#c" id="j" x1="25.22" x2="49.41" y1="1004.46" y2="1029.59" gradientUnits="userSpaceOnUse"/><linearGradient xlink:href="#d" id="i" x1="43.72" x2="17.9" y1="1042.29" y2="997.57" gradientUnits="userSpaceOnUse"/><linearGradient xlink:href="#e" id="h" x1="13.17" x2="52.93" y1="999.77" y2="1039.53" gradientUnits="userSpaceOnUse"/><linearGradient xlink:href="#f" id="k" x1="25.22" x2="49.74" y1="1004.46" y2="1029.38" gradientUnits="userSpaceOnUse"/><filter id="g" width="1.1" height="1.1" x="-.05" y="-.05" color-interpolation-filters="sRGB"><feGaussianBlur stdDeviation="1.12"/></filter><filter id="l" width="1.17" height="1.17" x="-.08" y="-.08" color-interpolation-filters="sRGB"><feGaussianBlur stdDeviation=".9"/></filter></defs><g transform="translate(-1.46 -1055.71) scale(1.06667)"><circle cx="32" cy="1020.36" r="27.95" fill="#3d3d3d" filter="url(#g)"/><circle cx="32" cy="1020.36" r="27.95" fill="url(#h)"/><circle cx="32.73" cy="1019.51" r="25.95" fill="url(#i)"/><circle cx="34.22" cy="1017.8" r="20" fill="url(#j)" stroke="url(#k)" stroke-linecap="round" stroke-linejoin="bevel" stroke-miterlimit="1" stroke-width=".01"/><path fill-rule="evenodd" d="M44.48 1020.48a12.85 12.85 0 0 1-12.85 12.85 12.85 12.85 0 0 1-12.85-12.85 12.85 12.85 0 0 1 12.85-12.85 12.85 12.85 0 0 1 12.85 12.85z" filter="url(#l)"/><path fill="url(#m)" fill-rule="evenodd" d="M44.48 1020.48a12.85 12.85 0 0 1-12.85 12.85 12.85 12.85 0 0 1-12.85-12.85 12.85 12.85 0 0 1 12.85-12.85 12.85 12.85 0 0 1 12.85 12.85z"/><path fill="url(#n)" fill-rule="evenodd" d="M28.37 1014.7v11.46l9.22-5.87z"/></g></svg>