<svg xmlns="http://www.w3.org/2000/svg" data-name="Layer 1" viewBox="0 0 250 250"><defs><style>.cls-4{fill:#fff}</style></defs><ellipse cx="123.5" cy="133.3" fill="#0a0a0a" rx="105.7" ry="100.5"/><path fill="#d12027" d="M125 0a125 125 0 1 0 125 125A125 125 0 0 0 125 0zm-4 40a86 86 0 0 1 50 13L53 171a86 86 0 0 1 68-131zm78 42a86 86 0 0 1 12 43 86 86 0 0 1-86 86v-1a86 86 0 0 1-43-11z"/><path fill="#fff" stroke="#000" stroke-miterlimit="10" stroke-width="3" d="M116 72c1-9 8-12 18-11a44 44 0 0 1 10 3l22 14h1c8 5 18 2 23-7l1-2c6-10 4-24-5-30a101 101 0 0 0-43-18c-37-6-65 13-70 49-10 68 73 60 69 93-2 10-10 14-22 12-11-1-26-10-38-22-8-7-19-5-25 6-6 10-5 22 2 29 15 15 35 25 54 28 34 5 65-11 71-50 10-69-73-63-68-94z"/><path fill="#d12027" d="m115 165-28-27 59-59 27 28z"/><path stroke-width="1.1" d="M180 48c-1 2-6 1-11-2-6-3-6-7-4-9s5-2 10 2c4 3 6 6 7 8l1 3-3-2z" paint-order="stroke fill markers"/><path fill="#fff" d="M176 44a2 1 36 0 1-3 0 2 1 36 0 1-1-2 2 1 36 0 1 3 0 2 1 36 0 1 1 2z" paint-order="stroke fill markers"/><path d="M164 53c-5-2-6 0-2 3l17 8-2 7 7-4 3 2-1 5 4-4c2 1 3-3 1-3-8-5-19-11-27-14z" color="#000" paint-order="stroke fill markers" style="font-feature-settings:normal;font-variant-alternates:normal;font-variant-caps:normal;font-variant-ligatures:normal;font-variant-numeric:normal;font-variant-position:normal;isolation:auto;mix-blend-mode:normal;shape-padding:0;text-decoration-color:#000;text-decoration-line:none;text-decoration-style:solid;text-indent:0;text-orientation:mixed;text-transform:none;white-space:normal"/></svg>