<?xml version="1.0" encoding="utf-8"?>
<!-- Generator: Adobe Illustrator 28.3.0, SVG Export Plug-In . SVG Version: 6.00 Build 0)  -->
<svg version="1.1" id="Layer_1" xmlns="http://www.w3.org/2000/svg" xmlns:xlink="http://www.w3.org/1999/xlink" x="0px" y="0px"
	 viewBox="0 0 1024 1024" style="enable-background:new 0 0 1024 1024;" xml:space="preserve">
<style type="text/css">
	.st0{fill:url(#SVGID_1_);}
	.st1{fill:#0F0D06;}
	.st2{fill:#0E0B05;}
	.st3{fill:#0D0B05;}
	.st4{fill:#FFFFFF;}
	.st5{fill:#0F0E07;}
	.st6{fill:#0F0E08;}
	.st7{fill:#0E0D08;}
	.st8{fill:#010101;}
	.st9{fill:url(#SVGID_00000137097817693558496590000018303214554277848987_);}
	.st10{fill:url(#SVGID_00000005955572588648742300000015809375959864644270_);}
	.st11{fill:#020202;}
	.st12{fill:#050505;}
	.st13{fill:#0E0D05;}
	.st14{fill:url(#SVGID_00000056388744514648232370000000762416611066611074_);}
	.st15{fill:url(#SVGID_00000144335774734366415640000017717324576196251783_);}
	.st16{fill:url(#SVGID_00000119086875340084739760000004446405763494411394_);}
	.st17{fill:url(#SVGID_00000070113527773328740970000011280232383987062692_);}
	.st18{fill:url(#SVGID_00000147219763520558115700000009872470085775020930_);}
	.st19{fill:url(#SVGID_00000026854275393667246250000010800787980697160106_);}
	.st20{fill:url(#SVGID_00000012466843213289528440000012671471657078499493_);}
	.st21{fill:url(#SVGID_00000160870796257002440020000000756734015891694741_);}
	.st22{fill:url(#SVGID_00000052809381758769948990000007451777109090387369_);}
	.st23{fill:#FEF666;}
	.st24{fill:#FEF67A;}
</style>
<g transform="matrix(.58569574 0 0 .58569574 -18.872427 -10.366203)">
	<path d="M1029.22,138.33c-14.76,34.3-10.63,74.32-21.38,109.97c-2.48,8.21-10.6,33.02-22.47,31.3
		c-24.28-3.51-11.7-50.16-39.72-51.09l8.8,68.18c-42.11,5.29-36.36-60.44-53.45-87.14c-19.72-30.81-24.47,13.98-23.15,27.76
		c0.84,8.83,2.63,17.58,3.68,26.39c1.84,15.33,2.28,28.67,0.34,43.99c-40.23-0.48-25.46-53.43-54.99-61.58l2.2,63.78
		c-44.6-0.37-64.93-40.64-84.52-74.78c-8.18-14.25-19.05-41.79-38.65-32.99c9.17,39.62,30.86,77.55,33.07,118.77
		c0.57,10.66-9.49,37.71-24.27,32.73c-34.15-11.5-29.57-73.47-58.03-89.77c-5.75-3.3-14.84-0.42-21.16-0.15
		c0.02,32.87,14.48,72.6,25.97,103.37c2.47,6.62,9.41,29.89-5,29.45c-25.77-0.77-32.18-50.73-58.36-44.85
		c3.2,13.48,11.21,24.41,15.67,37.39c2.73,7.93,7.78,15.94,9.24,24.19c3.2,18.04-19.66,19.5-31.52,16.01
		c-28.02-8.26-48.14-31.17-68.18-51.2c-5.55-5.55-20.21-25.1-29.45-16.23c-10.28,9.87,9.91,27.2,15.64,33.82
		c17.12,19.79,35.64,42.97,43.82,68.18c3.51,10.83,4.2,26.23-6.55,33.66c-10.67,7.37-28.03-6.01-36.64-11.68
		c-26.37-17.35-52.58-47.67-85.78-48.38l-7.78,19.79l21.17,28.59l54.79,61.58l-63.78-26.39c2.58,16.67,42.52,36.88,34.66,54.06
		c-4.66,10.19-27.77,10.35-36.86,9.06c-32.52-4.63-55.53-28.85-85.78-37.53c-26.71-7.66-21.74,13.06-6.6,25.02
		c5.25,4.15,10.32,8.51,15.39,12.88c9.14,7.87,17.86,15.95,26.39,24.48c13.34,13.34,25.03,27.6,37.39,41.79l-63.78-2.2v4.4
		l61.58,28.59l-11,43.99c-17.78-0.05-32.2-4.89-48.39-11.93c-11.03-4.8-22.65-12.77-35.19-11.89c-14.98,1.05-23.88,14.73-13.85,27.5
		c15.04,19.15,45.17,30.07,64.42,44.99c7.35,5.7,17.99,15.43,9.68,25.15c-16.41,19.21-60.64-5.43-82.25,0.95v4.4
		c20.06,11.71,61.19,18.39,72.99,39.97c9.23,16.88-17.02,55.15-35.6,53.65c-16.56-1.34-31.77-20.03-43.99-29.84
		c-29.23-23.48-60.5-51.1-94.57-67.3c-58.42-27.78-116.45,16.46-162.76,45.3c5.92,18.69,29.3-1.2,43.99,2.13
		c19.77,4.48,34.78,22.87,47.45,37.46c61.23,70.52,112.48,150.47,135.38,241.94c6.03,24.08,16.32,52.89-1.68,74.46
		c-4.83,5.78-12.02,6.54-17.34,11.31c-3.98,3.57-3.77,8.63,1.69,10.3c10.08,3.08,24.77-1.6,34.65-3.99
		c32.28-7.78,69.14-25.19,83.8-56.9c9.12-19.72,12.33-58.09,34.97-65.98c5.01,21.14,28.78,49.1,26.47,70.38
		c-2.06,18.9-21.96,40.8-33.6,54.79c-4.12,4.96-14.07,15.82-8.12,22.94c5.93,7.08,18.15-8.17,21.85-11.65
		c16.69-15.76,53.18-40.66,63.08-4.48c8.61,31.45-19.06,82.31-32.88,109.97c-3.85,7.7-21.56,31.75-14.65,40.34
		c7.98,9.89,24.66-15.88,28.21-20.54c13.86-18.16,62.41-71.96,88.2-52.63c31.45,23.58,20.61,40.44,8.69,72.42
		c-3.36,9.01-15.76,31.59-7.33,40.16c8.16,8.29,18.88,0.7,23.05-7.21c7.55-14.31,27.86-56.84,48.18-45.98
		c12.72,6.79,32.16,18.31,39.56,31.01c11.56,19.84,1.51,59.44-1.57,81c-1.77,12.42-15.12,51.16-4.04,60.13
		c10.24,8.29,18.51-16.63,21.59-22.74c10.83-21.52,23.3-43.55,39.43-61.58c5.79-6.47,13.97-17.32,23.81-15.48
		c51.09,9.56-1.11,60.45,19.86,86.43c4.24,5.26,15.75,4.88,21.93,6.03l26.39-68.18c13.42,5.17,33.17,6.96,43.07,18.07
		c8.32,9.33,9.95,25.09,12.36,36.92c6.73,33.12,10.41,65.33,6.16,98.97c4.18,3.01,10.77,9.99,16.39,6.41
		c7.1-4.53,8.01-23.01,10.43-30.6c7.76-24.27,19.6-47.47,30.6-70.38c7.24-15.09,27-31.17,41.25-10.38
		c14.62,21.32,8.77,58.61,17.9,82.96c23.36-11.51,25.91-60.14,26.39-83.58l30.3,4.42l18.2,37.37l32.88,94.57
		c17.02-6.51,11.63-39.24,13.54-54.99c2.59-21.35,7.54-64.25,23.2-80.14c6.31-6.41,18.86-6.95,27.05-10.04
		c9.33,22.76,14.45,48.57,25.75,70.35c4.41,8.49,14.44,17.64,24.59,12.44c9.72-4.98,9.35-16.32,8.1-25.6
		c-3.06-22.79-8.25-45.2-10.06-68.18c43.6-3.08,69.18,32.18,96.58,61.58c10.59,11.36,19.8,26.42,35.39,30.79l-22.61-65.98
		l-12.58-61.58c15.82-6.62,49.31-38.98,65.98-34.27c24.84,7.02,43.81,76.23,74.65,59.96c13.15-6.94,6.35-18.69,0.18-27.89
		c-9.2-13.69-36.86-46.58-33.86-63.77c2.22-12.74,23.56-27.59,36.01-27.42c28.52,0.39,78.09,22.1,94.57,45l19.79-2.2
		c-2.97-39.38-61.98-57.34-70.42-96.77c-0.84-3.93-0.7-8.67,0.27-12.57c6.27-25.28,21.47-14.24,37.16-7.45
		c4.89,2.12,15.59,7.55,19.64,1.49c4.46-6.68-3.45-15.48-6.35-21.07c-5.92-11.4-11.36-24.57-8.89-37.39
		c20.55,5.38,33.23,17.6,50.59,29.14c4.1,2.73,13.16,9.57,18.34,5.76c5.45-4.01-2.6-12.1-5.19-15.1
		c-7.75-8.99-31.48-30.69-29.14-43.79c1.58-8.84,16.5-18.32,22.59-24.39c20.11-20.08,43.01-40.54,59.38-63.78h2.2
		c38.85,45.32,160.63,13.54,145.16-54.99c-9.69,1.39-18.68,9-28.59,5.58c-43.32-14.93-32.85-84.33-81.38-84.76
		c-3.58-45.24-21.75-90.45-43.68-129.77c-10.06-18.03-30.96-34.52-38.26-52.87c-4.05-10.18-3.36-26.31-3.83-37.3
		c25.44-3.96,12.9-29.72,3.64-43.99c-10.32-15.9-21.24-34.76-34.64-48.18c-16.46-16.48-40.96-27.23-38.85-55.19
		c1.96-26.04,46.84-22.73,54.45-46.19c-13.31,0.57-26.46,3.87-39.59,6.05c-32.68,5.44-38.37-5.55-23.11-34.65
		c13.33-25.42,34.55-44.71,53.27-65.98c5.99-6.81,24.47-22.31,14.95-32.17c-7.87-8.15-20.85,4.29-27.52,8.71
		c-24.28,16.1-51.39,27.99-79.18,36.6c-8.28,2.56-32.69,12.11-35.45-2.56c-3.73-19.8,33.76-23.5,28.85-45.77
		c-15,3.56-44.47,27.23-58.88,16.26c-17.34-13.21,8.12-46.92,10.85-62.45c2.76-15.73-9.89-16.31-18.8-6.47
		c-3.12,3.45-5.95,7.22-8.82,10.87c-4.97,6.32-9.1,12.44-12.33,19.79c-36.02-21.03,32.13-45.47,19.3-64.93
		c-4.57-6.94-13,0.01-17.1,3.6c-8.55,7.48-40.7,44.53-47.69,17.34c-7.74-30.07,7.88-66.19,15.97-94.56
		c2.11-7.41,11.65-27.4,2.4-32.72c-13.51-7.77-19.43,18.44-22.59,26.12c-9.75,23.66-25.85,44.24-44.86,61.2
		c-6.26,5.59-16.88,16.43-26.26,13.85c-13.61-3.75-13.67-41.51-13.24-53.06c0.2-5.5,3.29-14.98-2.08-18.97
		c-7.01-5.2-10.66,5.23-11.71,10.18c-3.41,16.19-13.45,62.45-37.46,32.12c-21.72-27.45,11.87-84.38-32.42-95.92l-24.19,76.98
		c-28.99-6.33-22.56-47.78-15.4-70.38l-13.2-4.4c-2.08,8.97-5.03,17.72-8.12,26.39c-11.72,32.9-27.39,39.3-39.48,2.2
		c-9.23-28.32-5.96-58.87-10.55-87.98C1041.82,155.31,1040.73,143.54,1029.22,138.33L1029.22,138.33z"/>
	
		<radialGradient id="SVGID_1_" cx="1523.8237" cy="310.22" r="768.1519" gradientTransform="matrix(0.5857 0 0 -0.6135 -18.1651 1078.6515)" gradientUnits="userSpaceOnUse">
		<stop  offset="0" style="stop-color:#FFF68E"/>
		<stop  offset="0.731" style="stop-color:#EED26A"/>
		<stop  offset="1" style="stop-color:#D6AA4A"/>
	</radialGradient>
	<path class="st0" d="M1031.42,204.31c-1.3,62.84-20.27,109.92-90.18,109.97l24.19,98.97c-26.25-27.51-35.82-66.01-47.65-101.17
		c-7.51-22.32-17.08-44.75-20.53-68.18h-2.2c0.82,39.71,9.19,79.1,1.21,118.77c-4.39,21.81-16.68,38.75-23.21,59.38h-2.2l13.2-96.77
		c-49.1,3.88-91.49,11.32-123.66-35.19c-6.99-10.11-12.39-21.68-17.1-32.99h-2.2c5.51,36.8,38.29,79.74-0.2,110.61
		c-5.88,4.71-12.66,7.61-19.6,10.35l34.77,52.7l20.22,26.48c-55.64-36.85-88.74-101.03-116.57-160.56h-2.2
		c7.1,47.37,35.89,90.2,43.05,138.56c2.49,16.81,9,40.58-5.66,52.79l-17.6-83.58c-25.62,13.29-45.33,53.25-79.18,47.61
		c-14.4-2.4-26.05-14.05-39.59-19.01c6.38,20.15,24.03,39.2,13.96,61.58c-3.72,8.28-10.99,14.63-16.16,21.99l70.38,26.39
		c-12.84,15.37-39.58,3.3-54.99-3.92c-29.2-13.69-55.19-31.77-81.38-50.43c-14.88-10.6-32.4-25.72-50.59-29.23
		c11.2,24.02,39.95,44.38,59.38,61.96c16.06,14.53,28.06,31.34,41.61,48.01c13.34,16.43,30.78,34.96,24.37,57.18
		c-23.39-23.59-43.82-40.73-79.18-32.47c-12.83,3-23.66,10.53-37.39,10.2c-24.45-0.6-48.07-13.06-70.38-21.71
		c12.95,27.77,47.09,42.73,54.37,74.78c5.35,23.55-11.63,53.6-14.78,76.98l74.78,11v4.4c-64.13,16.97-109.31-18.25-169.35-28.59v2.2
		c40.5,19.16,86.4,51.52,115.27,85.78c10.5,12.46,23.38,26.93,23.29,43.99c-11.82-9.57-34.14-34.58-50.58-32.06
		c-13.12,2.01-17.46,16.57-19.19,27.66c-4.68,29.94-5,62.09-5,92.38c-12.6-11-11-26.33-11-41.79
		c-15.65,10.31-32.56,23.24-52.79,19.18c-20.46-4.1-40.85-29.31-54.99-43.37c-27.93-27.79-58.9-55.19-98.97-60.65
		c-20.9-2.85-84.2,0.09-55.91,32.01c2.92,3.29,5.84,6.71,9.81,8.78c14.89,7.76,46.68-2.14,63.7-2.14v2.2l-54.99,11
		c22.09,46.3,69.93,4.79,96.77,32.99c-18.34-5.42-49.84-5.42-68.18,0l30.73,39.59l14.12,18.47l51.93,5.73v2.2h-46.19
		c2.73,24.22,30.74,17.63,48.39,15.4v2.2l-37.39,6.6c5.87,13.63,20.22,54.05,33.85,60.25c10.66,4.85,25.49-4.52,34.33-9.66
		c-12.14,22.14-33.84,13.21-21.99,43.99l35.19-17.6c-7.84,8.84-21.03,15.84-26.32,26.43c-6.11,12.22,4.21,34.35,8.73,46.15
		l35.19-26.39l-33.49,37.59l2.7,39.39c29.48-12.28,53.37-34.07,65.95-63.78c5.22-12.33,5.76-27.76,11.98-39.3
		c4.55-8.43,17.69-7.07,20.33-16.19c5.07-17.44-5.71-31.61,2.91-50.09h2.2l6.6,35.19c22.22-6.24,35.45-41.18,41.79-61.58h4.4
		c6.13,28.22-19.41,46.5-28.59,70.38c15.53,3.59,43.45,11.13,41.79,30.79l-54.99-19.79l41.79,92.38h2.2
		c20.12-30.41,39.56-78.77,68.18-101.17c9.99,32.44-24.64,58.81-37.39,85.78c18.86-5.16,53.06-30.48,70.38-19.79
		c-24.24,10.09-45.77,24.63-63.58,43.99c-5.85,6.37-16.57,17.05-16.44,26.39c0.13,9.55,11.88,21.11,17.17,28.59
		c19.22,27.15,42.46,55.73,71.65,72.58c11.95-22.71,22.04-45.41,28.31-70.38c2.88-11.46,2.42-26.89,13.48-32.99
		c10.76,60.68-32.64,127.57-46.19,184.75c41.34-35.07,66.31-91.77,118.77-114.37c-1.21,28.28-46.66,43.24-49.1,74.75
		c-0.85,11.05,12.89,16.81,20.5,22.08c21.33,14.78,39.38,31.2,63.79,41.07c8.78,3.55,17.07,11.01,25.23,2.5
		c14.82-15.48,16.1-45.57,13.73-65.62c-1.5-12.69-6.78-32.11,2.83-41.79l15.31,90.18l-8.71,105.57h2.2
		c20.56-52.25,38.78-109.05,79.18-149.56c0.24,27.56-30.94,66.32-41.79,92.38c41.25,19.29,89.58,30.94,134.16,39.59
		c3.49-27.63,2.47-54.33-4.74-81.38c-3.23-12.12-13.83-28.31-6.26-39.59c27.28,58.7,57.14,118.24,57.18,184.75h2.2
		c0.03-40.33,7.06-81.48,14.96-120.97c1.44-7.22,3.52-36.93,13.71-36.93c11.12,0,6.77,17.81,5.67,23.74
		c-5,27-11.08,54.14-14.54,81.38l94.57-2.36l32.93-5.87l-0.88-33.56l-45.25-79.18c17.21-3.93,34.21,26.7,42.2,39.59
		c29.12,46.97,48.75,106.84,61.17,160.56h2.2c-5.75-72.7-24.69-139.78-15.4-213.34c21.4,8.6,9.87,62.76,12.58,83.58
		c0.87,6.7-0.13,24.2,7.92,26.86c7.53,2.48,20.72-4,27.9-6.34c25.88-8.44,50.08-20.61,74.78-31.91c9.44-4.32,22.82-9.59,23.49-21.61
		c2.38-42.37-35.73-54.41-60.88-76.97c22.2-2.31,38.4,12.25,54.99,25.13c24.77,19.23,49.17,41.06,69.42,65.05
		c11.66,13.82,20.31,32.37,33.96,43.99c-7.53-23.62-25.67-45.81-36.85-68.18c-21.67-43.36-38.4-90.34-44.53-138.56h2.2l41.79,109.97
		c22.72-7.72,41.15-34.71,55.84-52.79c6.61-8.13,14.79-15.61,14.54-26.39c36.93-13.28-10.42-42.58-17.6-54.99
		c25.57-3.84,48.58,20.9,72.58,26.39c-10.7-22.92-29.31-52.88-24.19-79.18h4.4l15.4,43.99c38.53-35.62,84.15-72.17,112.83-116.57
		c40.51-62.69,40.25-141.98,11.91-208.94c-7.76-18.33-15.15-44.33-28.83-59.06c-19.46-20.96-36.31,14.31-38.73,30.47
		c9.57,1.43,18.31,4.65,26.38,10.12c29.83,20.19,31.36,55.57,18.81,86.66c-5.32,13.18-15.18,24.96-16.13,39.59
		c-1.18,18.12,8.57,35.34,11.71,52.79c5.2,28.96-8.97,59.79-29.77,78.97c-19.29,17.8-46.34,27.61-72.58,23.74
		c-12.13-1.79-25.05-13.25-37.38-8.69c-19.35,7.15-23.11,36.42-35.2,51.14c-5.46-33.07,19.65-52.11,24.89-81.38
		c2.73-15.22-8.42-40.42-13.17-54.99c-3.75-11.52-9.55-43.93-27.09-37.33c-11.32,4.26-17.02,17.12-23.66,26.33
		c-15.67,21.72-29.91,48.31-57.75,54.99c10.22-26.39,37.95-48.48,53.46-72.58c30.78-47.81,63.41-128.62,22.66-180.35
		c-12.28-15.58-31.99-26.6-49.73-34.93c-24.41-11.46-51.26-15.03-76.98-22.26v-4.4l30.79-4.4l-6.6-48.39l-19.79,6.6
		c0.22-80.53,80.81-124.46,136.36-167.16l-10.15,28.59l27.42,41.79l55.32,85.78l-21.99-2.2c4.24,31.5,11.77,61.02,0.66,92.38
		c-7.14,20.16-24.7,36.95-30.02,57.18c-2.68,10.2,2.2,20.54,2.21,30.79c0.02,14.3-4.9,28.04-8.05,41.79
		c39.39-18.75,46.93-76.22,87.98-90.18c-3.35-19.46-11.62-37.04-13-57.18c-2.98-43.46,5.61-86.43-1.16-129.77
		c-7.41-47.43-28.06-89.92-45.22-134.16l19.79,8.8c4.56-30.42,29.63-46.87,46.19-70.38c-25.43,9.25-64.48,40.78-92.38,24.17
		c-19.24-11.45-26.22-36.66-46.19-46.17l-26.39,105.57h-2.2c-11.6-48.74,13.32-94.85,24.19-140.76
		c-33.51,27.11-56.92,61.32-103.37,68.18l63.78-46.38l14.64-21.42l-19.03-16.44l-48.39-34.53l21.99,4.4l8.8-70.38h-2.2
		c-5,8.77-10.92,16.78-17.79,24.19c-9.09,9.81-21.02,25.51-34.06,29.99c-25.58,8.8-60.92-21-84.51-27.79v101.17
		c-22.47-3.75-19.55-26.44-19.79-46.19c-0.52-43.48-1.88-86.25-0.01-129.77h-2.2c-6.58,48.9-22.61,118.58-70.38,142.96
		c13.67-21.95,26.67-40.71,33.92-65.98c2.14-7.45,8.39-20.18,0.54-26.09c-22.17-16.69-56.16-2.43-74.37-28.93
		C1030.79,264,1042.54,230.81,1031.42,204.31L1031.42,204.31z"/>
	<path class="st1" d="M897.25,250.5l2.2,2.2L897.25,250.5z M895.05,257.09l2.2,2.2L895.05,257.09z"/>
	<path class="st2" d="M1158.98,265.89l2.2,2.2L1158.98,265.89z"/>
	<path class="st1" d="M1020.42,270.29l2.2,2.2L1020.42,270.29z"/>
	<path class="st3" d="M1156.78,274.69l2.2,2.2L1156.78,274.69z"/>
	<path class="st1" d="M1018.22,276.89l2.2,2.2L1018.22,276.89z"/>
	<path class="st4" d="M655.32,294.48l2.2,2.2L655.32,294.48z"/>
	<path class="st1" d="M1007.22,294.48l2.2,2.2L1007.22,294.48z M1005.02,296.68l2.2,2.2L1005.02,296.68z M1055.61,298.88l2.2,2.2
		L1055.61,298.88z M754.29,301.08l2.2,2.2L754.29,301.08z M1060.01,301.08l2.2,2.2L1060.01,301.08z M661.92,303.28l2.2,2.2
		L661.92,303.28z M769.69,303.28l2.2,2.2L769.69,303.28z M1064.41,303.28l2.2,2.2L1064.41,303.28z"/>
	<path class="st5" d="M776.29,309.88l2.2,2.2L776.29,309.88z M974.23,309.88l2.2,2.2L974.23,309.88z"/>
	<path class="st3" d="M1321.74,309.88l2.2,2.2L1321.74,309.88z"/>
	<path class="st4" d="M1320.27,313.55l0.73,1.47L1320.27,313.55z"/>
	<path class="st1" d="M661.92,314.28l2.2,2.2L661.92,314.28z M1112.8,314.28l2.2,2.2L1112.8,314.28z"/>
	<path class="st5" d="M758.69,323.08l2.2,2.2L758.69,323.08z"/>
	<path class="st2" d="M1317.34,323.08l2.2,2.2L1317.34,323.08z"/>
	<path class="st5" d="M672.91,342.87l2.2,2.2L672.91,342.87z M683.91,342.87l2.2,2.2L683.91,342.87z M686.11,347.27l2.2,2.2
		L686.11,347.27z"/>
	<path d="M1011.62,356.07l-35.19,158.36c27.11-16.52,32.84-76.75,35.19-105.57h2.2c4.71,25.36,7,50.76,17.32,74.78
		c4.09,9.51,8.58,22.18,20.07,21.99l-28.16-98.97L1011.62,356.07z"/>
	<path class="st5" d="M932.44,358.27l2.2,2.2L932.44,358.27z M745.49,362.67l2.2,2.2L745.49,362.67z M734.5,371.46l2.2,2.2
		L734.5,371.46z M723.5,375.86l2.2,2.2L723.5,375.86z M1005.02,382.46l2.2,2.2L1005.02,382.46z"/>
	<path d="M796.08,384.66c0.47,56.24,28.28,107.43,17.6,164.96c10.55-6.45,10.85-21.52,10.99-32.99c0.32-26.61-4.32-52.69-4.39-79.18
		h2.2c7.66,26.58,28.44,79.44,59.38,83.58c-3.71-14.29-15.41-25.1-23.23-37.39C841.23,456.33,824.2,401.24,796.08,384.66z"/>
	<path class="st5" d="M708.1,386.86l2.2,2.2L708.1,386.86z"/>
	<path class="st6" d="M800.48,386.86l2.2,2.2L800.48,386.86z"/>
	<path class="st1" d="M1101.8,389.06l2.2,2.2L1101.8,389.06z"/>
	<path class="st5" d="M1002.83,393.46l2.2,2.2L1002.83,393.46z M1110.6,393.46l2.2,2.2L1110.6,393.46z"/>
	<path class="st1" d="M1297.55,393.46l2.2,2.2L1297.55,393.46z"/>
	<path class="st5" d="M1108.4,395.66l2.2,2.2L1108.4,395.66z M1095.2,397.86l2.2,2.2L1095.2,397.86z M1106.2,397.86l2.2,2.2
		L1106.2,397.86z"/>
	<path class="st6" d="M809.28,400.06l2.2,2.2L809.28,400.06z M954.44,402.26l2.2,2.2L954.44,402.26z"/>
	<path class="st3" d="M1310.74,402.26l2.2,2.2L1310.74,402.26z"/>
	<path class="st5" d="M1095.2,406.65l2.2,2.2L1095.2,406.65z"/>
	<path d="M1246.96,408.85c-24.45,38.4-53.6,90.8-90.18,118.77v2.2c27.73-4.95,57.7-39.99,65.98-65.98h2.2
		c-0.32,39.12-18.31,80.6-2.2,118.77h2.2c11.7-39.59,5.61-86.3,15.68-127.57C1243.81,442.1,1255.45,420.53,1246.96,408.85
		L1246.96,408.85z"/>
	<path class="st5" d="M679.51,413.25l2.2,2.2L679.51,413.25z"/>
	<path class="st6" d="M818.07,415.45l2.2,2.2L818.07,415.45z M697.11,419.85l2.2,2.2L697.11,419.85z M681.71,422.05l2.2,2.2
		L681.71,422.05z M732.3,422.05l2.2,2.2L732.3,422.05z M1024.82,422.05l2.2,2.2L1024.82,422.05z M1007.22,426.45l2.2,2.2
		L1007.22,426.45z"/>
	<path class="st1" d="M1246.96,426.45l2.2,2.2L1246.96,426.45z"/>
	<path class="st4" d="M1381.12,428.65l2.2,2.2L1381.12,428.65z M556.34,430.85l2.2,2.2L556.34,430.85z"/>
	<path class="st6" d="M826.87,430.85l2.2,2.2L826.87,430.85z"/>
	<path class="st2" d="M1381.12,430.85l2.2,2.2L1381.12,430.85z"/>
	<path class="st5" d="M1229.37,435.25l2.2,2.2L1229.37,435.25z"/>
	<path class="st6" d="M749.89,439.65l2.2,2.2L749.89,439.65z"/>
	<path class="st5" d="M1163.38,439.65l2.2,2.2L1163.38,439.65z"/>
	<path class="st7" d="M769.69,444.04l2.2,2.2L769.69,444.04z"/>
	<path class="st6" d="M771.89,446.24l2.2,2.2L771.89,446.24z"/>
	<path class="st5" d="M1220.57,446.24l2.2,2.2L1220.57,446.24z"/>
	<path class="st8" d="M774.09,448.44l2.2,2.2L774.09,448.44z"/>
	<path class="st5" d="M593.73,450.64l2.2,2.2L593.73,450.64z"/>
	<path class="st1" d="M1363.53,450.64l2.2,2.2L1363.53,450.64z M1361.33,452.84l2.2,2.2L1361.33,452.84z M441.97,457.24l2.2,2.2
		L441.97,457.24z"/>
	<path class="st5" d="M569.54,457.24l2.2,2.2L569.54,457.24z"/>
	<path class="st7" d="M831.27,459.44l2.2,2.2L831.27,459.44z"/>
	<path class="st5" d="M1224.97,461.64l2.2,2.2L1224.97,461.64z"/>
	<path class="st1" d="M1330.54,461.64l2.2,2.2L1330.54,461.64z"/>
	<path class="st2" d="M1352.53,461.64l2.2,2.2L1352.53,461.64z"/>
	<path class="st5" d="M1222.77,463.84l2.2,2.2L1222.77,463.84z"/>
	<path class="st7" d="M811.48,472.64l2.2,2.2L811.48,472.64z"/>
	<path class="st1" d="M1365.73,474.84l2.2,2.2L1365.73,474.84z"/>
	<path class="st7" d="M822.47,479.24l2.2,2.2L822.47,479.24z"/>
	<path class="st2" d="M1301.95,481.44l2.2,2.2L1301.95,481.44z"/>
	<path class="st7" d="M857.66,483.63l2.2,2.2L857.66,483.63z"/>
	<path class="st1" d="M1405.32,488.03l2.2,2.2L1405.32,488.03z"/>
	<path class="st4" d="M1524.09,488.03l2.2,2.2L1524.09,488.03z"/>
	<path class="st7" d="M862.06,490.23l2.2,2.2L862.06,490.23z"/>
	<path class="st5" d="M1205.17,490.23l2.2,2.2L1205.17,490.23z"/>
	<path class="st2" d="M1524.09,490.23l2.2,2.2L1524.09,490.23z"/>
	<path class="st3" d="M1515.29,492.43l2.2,2.2L1515.29,492.43z M1521.89,492.43l2.2,2.2L1521.89,492.43z"/>
	<path class="st5" d="M1200.77,494.63l2.2,2.2L1200.77,494.63z"/>
	<path class="st2" d="M1519.69,494.63l2.2,2.2L1519.69,494.63z"/>
	<path class="st7" d="M851.07,496.83l2.2,2.2L851.07,496.83z"/>
	<path d="M1101.8,496.83c-12.99,29.3-19.32,56.51-46.19,76.98v4.4c19.31,5.08,32.76-19.15,37.39-35.19h2.2
		c1.91,14.78,3.71,45.51,19.79,50.59l-10.8-50.59L1101.8,496.83z"/>
	<path class="st1" d="M1411.92,496.83l2.2,2.2L1411.92,496.83z"/>
	<path class="st3" d="M1517.49,496.83l2.2,2.2L1517.49,496.83z"/>
	<path d="M631.12,499.03c4.75,54.1,77.52,90.66,68.18,149.56c11.7-6.84,8.62-19.58,4.7-30.79c-8.12-23.18-21.71-43.46-31.09-65.98
		c21.05,19.21,52.14,40.93,81.38,28.59l-46.15-19.12L631.12,499.03z"/>
	<path class="st2" d="M1515.29,499.03l2.2,2.2L1515.29,499.03z"/>
	<path class="st3" d="M1513.09,501.23l2.2,2.2L1513.09,501.23z"/>
	<path class="st1" d="M1374.53,503.43l2.2,2.2L1374.53,503.43z"/>
	<path class="st3" d="M1493.3,503.43l2.2,2.2L1493.3,503.43z"/>
	<path class="st2" d="M1510.89,503.43l2.2,2.2L1510.89,503.43z"/>
	<path class="st7" d="M857.66,505.63l2.2,2.2L857.66,505.63z"/>
	<path class="st5" d="M1191.98,505.63l2.2,2.2L1191.98,505.63z"/>
	<path class="st3" d="M1508.69,505.63l2.2,2.2L1508.69,505.63z"/>
	<path class="st6" d="M631.12,507.83l2.2,2.2L631.12,507.83z M1189.78,507.83l2.2,2.2L1189.78,507.83z"/>
	<path class="st2" d="M1506.49,507.83l2.2,2.2L1506.49,507.83z"/>
	<path class="st5" d="M646.52,510.03l2.2,2.2L646.52,510.03z"/>
	<path class="st3" d="M1504.29,510.03l2.2,2.2L1504.29,510.03z"/>
	<path class="st5" d="M523.35,512.23l2.2,2.2L523.35,512.23z"/>
	<path class="st6" d="M1185.38,512.23l2.2,2.2L1185.38,512.23z M1183.18,514.43l2.2,2.2L1183.18,514.43z"/>
	<path class="st5" d="M494.76,516.63l2.2,2.2L494.76,516.63z"/>
	<path class="st7" d="M868.66,516.63l2.2,2.2L868.66,516.63z"/>
	<path d="M934.64,516.63c-6.65,21.89-25.32,64.63-17.6,85.78h4.4l15.4-52.79h2.2c5.43,19.91,11.13,50.1,35.19,52.79l-35.19-85.78
		H934.64z"/>
	<path class="st6" d="M496.96,518.83l2.2,2.2L496.96,518.83z"/>
	<path class="st3" d="M1495.49,518.83l2.2,2.2L1495.49,518.83z"/>
	<path class="st5" d="M499.16,521.02l2.2,2.2L499.16,521.02z"/>
	<path class="st6" d="M569.54,521.02l2.2,2.2L569.54,521.02z M1163.38,521.02l2.2,2.2L1163.38,521.02z"/>
	<path class="st5" d="M501.36,523.22l2.2,2.2L501.36,523.22z"/>
	<path class="st6" d="M540.95,523.22l2.2,2.2L540.95,523.22z"/>
	<path class="st7" d="M1090.8,523.22l2.2,2.2L1090.8,523.22z M1104,523.22l2.2,2.2L1104,523.22z"/>
	<path class="st6" d="M1161.18,523.22l2.2,2.2L1161.18,523.22z"/>
	<path class="st5" d="M503.56,525.42l2.2,2.2L503.56,525.42z"/>
	<path class="st7" d="M1158.98,525.42l2.2,2.2L1158.98,525.42z M668.51,529.82l2.2,2.2L668.51,529.82z"/>
	<path class="st6" d="M1216.17,529.82l2.2,2.2L1216.17,529.82z"/>
	<path class="st7" d="M646.52,536.42l2.2,2.2L646.52,536.42z M1084.2,538.62l2.2,2.2L1084.2,538.62z"/>
	<path class="st6" d="M576.14,540.82l2.2,2.2L576.14,540.82z M521.15,543.02l2.2,2.2L521.15,543.02z"/>
	<path class="st7" d="M683.91,543.02l2.2,2.2L683.91,543.02z M813.68,543.02l2.2,2.2L813.68,543.02z"/>
	<path class="st1" d="M1365.73,543.02l2.2,2.2L1365.73,543.02z"/>
	<path class="st7" d="M818.07,547.42l2.2,2.2L818.07,547.42z M936.84,549.62l2.2,2.2L936.84,549.62z M1095.2,549.62l2.2,2.2
		L1095.2,549.62z M661.92,558.41l2.2,2.2L661.92,558.41z"/>
	<path class="st3" d="M1473.5,558.41l2.2,2.2L1473.5,558.41z"/>
	<path class="st7" d="M690.51,565.01l2.2,2.2L690.51,565.01z"/>
	<path class="st3" d="M1462.5,565.01l2.2,2.2L1462.5,565.01z"/>
	<path class="st7" d="M668.51,567.21l2.2,2.2L668.51,567.21z M1075.41,569.41l2.2,2.2L1075.41,569.41z"/>
	<path d="M787.28,571.61l11,92.38h4.4l-2.2-65.98c14.34,9.99,33.75,34.6,52.79,26.39c-7.35-7.96-17.99-9.35-26.38-16.15
		C813.23,597.2,806.03,573.09,787.28,571.61z"/>
	<path class="st7" d="M683.91,576.01l2.2,2.2L683.91,576.01z M1055.61,578.21l2.2,2.2L1055.61,578.21z M677.31,580.41l2.2,2.2
		L677.31,580.41z M914.85,580.41l2.2,2.2L914.85,580.41z"/>
	<path class="st6" d="M1220.57,580.41l2.2,2.2L1220.57,580.41z M1224.97,580.41l2.2,2.2L1224.97,580.41z"/>
	<path d="M1271.15,584.81c-23.2,23.27-42.58,39.24-74.78,48.39v4.4c19.05,5.47,37.47-5.1,52.79-15.4
		c-2.51,12.91-18.97,46.72-6.6,54.99l21.12-63.78L1271.15,584.81z"/>
	<path class="st7" d="M807.08,587.01l2.2,2.2L807.08,587.01z M556.34,589.21l2.2,2.2L556.34,589.21z M910.45,589.21l2.2,2.2
		L910.45,589.21z M1115,589.21l2.2,2.2L1115,589.21z"/>
	<path class="st1" d="M1264.56,589.21l2.2,2.2L1264.56,589.21z"/>
	<path class="st5" d="M406.78,593.61l2.2,2.2L406.78,593.61z"/>
	<path class="st7" d="M967.63,593.61l2.2,2.2L967.63,593.61z"/>
	<path class="st6" d="M525.55,595.8l2.2,2.2L525.55,595.8z"/>
	<path class="st3" d="M1475.7,595.8l2.2,2.2L1475.7,595.8z"/>
	<path class="st7" d="M686.11,598l2.2,2.2L686.11,598z M694.91,598l2.2,2.2L694.91,598z M921.45,598l2.2,2.2L921.45,598z
		 M538.75,600.2l2.2,2.2L538.75,600.2z"/>
	<path class="st6" d="M1251.36,604.6l2.2,2.2L1251.36,604.6z M1264.56,606.8l2.2,2.2L1264.56,606.8z"/>
	<path class="st1" d="M1403.12,606.8l2.2,2.2L1403.12,606.8z"/>
	<path class="st8" d="M400.19,609l2.2,2.2L400.19,609z"/>
	<path class="st7" d="M818.07,611.2l2.2,2.2L818.07,611.2z M701.51,613.4l2.2,2.2L701.51,613.4z M833.47,613.4l2.2,2.2L833.47,613.4
		z"/>
	<path class="st5" d="M406.78,615.6l2.2,2.2L406.78,615.6z"/>
	<path class="st6" d="M1235.96,615.6l2.2,2.2L1235.96,615.6z"/>
	<path class="st7" d="M826.87,617.8l2.2,2.2L826.87,617.8z M851.07,620l2.2,2.2L851.07,620z"/>
	<path class="st6" d="M1244.76,622.2l2.2,2.2L1244.76,622.2z"/>
	<path class="st7" d="M837.87,624.4l2.2,2.2L837.87,624.4z M842.27,626.6l2.2,2.2L842.27,626.6z M1213.97,626.6l2.2,2.2
		L1213.97,626.6z"/>
	<path class="st5" d="M1354.73,626.6l2.2,2.2L1354.73,626.6z M417.78,628.8l2.2,2.2L417.78,628.8z"/>
	
		<radialGradient id="SVGID_00000112628679526330538100000011298148151594944144_" cx="2897.7639" cy="-809.7956" r="111.699" gradientTransform="matrix(0.4094 0 0 -0.2559 187.052 471.7526)" gradientUnits="userSpaceOnUse">
		<stop  offset="0" style="stop-color:#FFF68E"/>
		<stop  offset="0.5" style="stop-color:#FAEA82"/>
		<stop  offset="1" style="stop-color:#D6AA4A"/>
	</radialGradient>
	<path style="fill:url(#SVGID_00000112628679526330538100000011298148151594944144_);" d="M1295.35,727.77
		c50.32-12.12,105.35-19.28,156.16-8.8c-7.57-26.27-27.18-47.85-44.58-68.18c-5.95-6.95-13.53-19.81-23.61-20.57
		c-11.93-0.91-22.35,10.6-30.78,17.25C1327.83,666.93,1306.53,698.21,1295.35,727.77z"/>
	<path class="st7" d="M1227.17,633.2l2.2,2.2L1227.17,633.2z"/>
	<path class="st5" d="M1345.93,633.2l2.2,2.2L1345.93,633.2z"/>
	<path d="M895.05,635.39l-13.2,68.18c11.04-8.37,13.6-35.07,15.4-48.39l19.79,21.99C914.74,662.36,906.08,645.58,895.05,635.39z"/>
	<path class="st7" d="M1196.37,637.59l2.2,2.2L1196.37,637.59z"/>
	<path class="st6" d="M1244.76,637.59l2.2,2.2L1244.76,637.59z M1396.52,639.79l2.2,2.2L1396.52,639.79z"/>
	<path d="M1110.6,641.99l-41.79,41.79l39.59-28.59l6.6,39.59C1122.69,683.5,1118.66,652.62,1110.6,641.99 M644.32,648.59v2.2
		c18.54,18.71,33.79,44.47,45.37,68.18c6.37,13.05,4.56,27.44,18.42,35.19c-1.1-25.72-12.1-45.21-21.99-68.18
		c15.58,9.09,36.46,22.68,54.99,17.6v-4.4c-24.96-11.09-44.28-20.53-65.98-37.81C665.87,654,656.41,644.48,644.32,648.59
		L644.32,648.59z"/>
	<path class="st7" d="M1352.53,646.39l2.2,2.2L1352.53,646.39z M906.05,650.79l2.2,2.2L906.05,650.79z M646.52,652.99l2.2,2.2
		L646.52,652.99z M908.25,655.19l2.2,2.2L908.25,655.19z"/>
	<path class="st6" d="M1409.72,655.19l2.2,2.2L1409.72,655.19z"/>
	<path class="st7" d="M901.65,657.39l2.2,2.2L901.65,657.39z"/>
	<path class="st6" d="M1321.74,657.39l2.2,2.2L1321.74,657.39z"/>
	<path class="st1" d="M1431.71,657.39l2.2,2.2L1431.71,657.39z"/>
	<path class="st6" d="M433.18,659.59l2.2,2.2L433.18,659.59z"/>
	<path class="st7" d="M1090.8,659.59l2.2,2.2L1090.8,659.59z M1108.4,659.59l2.2,2.2L1108.4,659.59z M1238.16,659.59l2.2,2.2
		L1238.16,659.59z M675.11,661.79l2.2,2.2L675.11,661.79z M895.05,661.79l2.2,2.2L895.05,661.79z"/>
	<path class="st1" d="M1497.69,661.79l2.2,2.2L1497.69,661.79z"/>
	<path class="st6" d="M1332.74,663.99l2.2,2.2L1332.74,663.99z"/>
	<path class="st7" d="M1093,666.19l2.2,2.2L1093,666.19z"/>
	<path d="M496.96,668.39c2.07,18.55,17.25,25.47,30.79,35.72c18.59,14.06,35.86,29.28,50.07,47.86
		c9.25,12.1,14.95,33.02,26.91,41.79c-2.57-32.34-21.65-70.4-52.79-83.58v-2.2c31.66,6.14,63.18,17.91,94.57,4.4v-4.4l-37.39-1.47
		L496.96,668.39z"/>
	<path class="st7" d="M659.72,668.39l2.2,2.2L659.72,668.39z M1077.61,670.59l2.2,2.2L1077.61,670.59z M1242.56,670.59l2.2,2.2
		L1242.56,670.59z M688.31,672.78l2.2,2.2L688.31,672.78z M1075.41,672.78l2.2,2.2L1075.41,672.78z"/>
	<path class="st1" d="M1442.71,672.78l2.2,2.2L1442.71,672.78z"/>
	<path class="st6" d="M1306.34,674.98l2.2,2.2L1306.34,674.98z"/>
	
		<radialGradient id="SVGID_00000009586869059719238980000002345493168099541948_" cx="4441.9067" cy="-228.3394" r="50.6562" gradientTransform="matrix(0.3052 0 0 -0.3433 190.5892 626.2857)" gradientUnits="userSpaceOnUse">
		<stop  offset="0" style="stop-color:#FFF68E"/>
		<stop  offset="0.5" style="stop-color:#FAEA82"/>
		<stop  offset="1" style="stop-color:#D6AA4A"/>
	</radialGradient>
	<path style="fill:url(#SVGID_00000009586869059719238980000002345493168099541948_);" d="M1519.69,674.98l4.4,52.79l48.39,6.6
		C1564.37,713,1541.27,683.35,1519.69,674.98z"/>
	<path class="st7" d="M917.05,677.18l2.2,2.2L917.05,677.18z"/>
	<path d="M987.43,677.18l-19.79,37.39l21.99-24.19l13.2,21.99L987.43,677.18z"/>
	<path class="st7" d="M1240.36,677.18l2.2,2.2L1240.36,677.18z"/>
	<path class="st3" d="M1519.69,677.18l2.2,2.2L1519.69,677.18z"/>
	<path class="st7" d="M666.31,679.38l2.2,2.2L666.31,679.38z M697.11,679.38l2.2,2.2L697.11,679.38z"/>
	<path class="st1" d="M1429.51,679.38l2.2,2.2L1429.51,679.38z"/>
	<path class="st6" d="M428.78,681.58l2.2,2.2L428.78,681.58z"/>
	<path class="st7" d="M980.83,683.78l2.2,2.2L980.83,683.78z M708.1,685.98l2.2,2.2L708.1,685.98z M694.91,690.38l2.2,2.2
		L694.91,690.38z M1117.2,690.38l2.2,2.2L1117.2,690.38z M1539.48,690.38l2.2,2.2L1539.48,690.38z M989.63,692.58l2.2,2.2
		L989.63,692.58z M1541.68,692.58l2.2,2.2L1541.68,692.58z M567.34,694.78l2.2,2.2L567.34,694.78z M1543.88,694.78l2.2,2.2
		L1543.88,694.78z M518.95,696.98l2.2,2.2L518.95,696.98z M998.43,696.98l2.2,2.2L998.43,696.98z"/>
	<path class="st6" d="M424.38,701.38l2.2,2.2L424.38,701.38z"/>
	<path class="st7" d="M525.55,701.38l2.2,2.2L525.55,701.38z"/>
	<path class="st3" d="M1308.54,701.38l2.2,2.2L1308.54,701.38z"/>
	<path class="st7" d="M884.06,703.58l2.2,2.2L884.06,703.58z M976.43,705.78l2.2,2.2L976.43,705.78z"/>
	<path class="st6" d="M422.18,710.17l2.2,2.2L422.18,710.17z"/>
	<path class="st7" d="M567.34,710.17l2.2,2.2L567.34,710.17z M697.11,710.17l2.2,2.2L697.11,710.17z M686.11,712.37l2.2,2.2
		L686.11,712.37z"/>
	<path class="st3" d="M1301.95,712.37l2.2,2.2L1301.95,712.37z"/>
	<path class="st6" d="M1396.52,712.37l2.2,2.2L1396.52,712.37z"/>
	<path class="st3" d="M1436.11,714.57l2.2,2.2L1436.11,714.57z"/>
	<path class="st7" d="M547.55,718.97l2.2,2.2L547.55,718.97z M690.51,721.17l2.2,2.2L690.51,721.17z"/>
	<path class="st3" d="M1568.08,725.57l2.2,2.2L1568.08,725.57z"/>
	<path d="M1198.57,729.97l-37.39,28.59l32.99-17.6l-4.4,26.39C1199.13,760.83,1202.62,740.33,1198.57,729.97L1198.57,729.97z"/>
	<path class="st4" d="M1418.52,861.93c16.68-7.95,24.67-26.96,29.18-43.99c5.55-20.96,12.75-76.24-13.87-86.65
		c-14.65-5.73-39.11,0.87-54.89,0.87c-14.29,0-44.78-2.18-55.86,8.48c-10.23,9.83-2.58,46.91,4.95,56.9
		c7.82,10.38,26.43,12.43,37.71,17.72C1388.21,825.81,1406.3,840.02,1418.52,861.93z"/>
	<path class="st1" d="M1480.1,732.17l2.2,2.2L1480.1,732.17z"/>
	<path class="st3" d="M1559.28,732.17l2.2,2.2L1559.28,732.17z M1572.47,732.17l-2.2,4.4L1572.47,732.17z"/>
	<path class="st11" d="M1440.51,734.37l2.2,2.2L1440.51,734.37z"/>
	<path class="st4" d="M1572.47,734.37l2.2,2.2L1572.47,734.37z"/>
	<path class="st6" d="M433.18,736.57l2.2,2.2L433.18,736.57z"/>
	<path class="st7" d="M1185.38,736.57l2.2,2.2L1185.38,736.57z"/>
	<path class="st5" d="M373.79,738.77l2.2,2.2L373.79,738.77z"/>
	<path class="st7" d="M1319.54,738.77l2.2,2.2L1319.54,738.77z M1442.71,738.77l2.2,2.2L1442.71,738.77z M705.9,740.97l2.2,2.2
		L705.9,740.97z M1191.98,740.97l2.2,2.2L1191.98,740.97z"/>
	<path class="st6" d="M386.99,743.17l2.2,2.2L386.99,743.17z"/>
	<path class="st7" d="M1174.38,743.17l2.2,2.2L1174.38,743.17z"/>
	<path class="st11" d="M1444.91,743.17l2.2,2.2L1444.91,743.17z"/>
	<path class="st4" d="M1519.69,743.17v19.79c39.88-14.42,48.92,43.92,6.6,41.79l8.8,50.59c29.47-13.75,43.04-80.07,18.84-104.87
		C1546.63,742.98,1529.58,743.95,1519.69,743.17L1519.69,743.17z"/>
	<path class="st5" d="M360.6,745.37l2.2,2.2L360.6,745.37z"/>
	<path class="st7" d="M589.33,747.56l2.2,2.2L589.33,747.56z M1180.98,747.56l2.2,2.2L1180.98,747.56z M1290.95,747.56l2.2,2.2
		L1290.95,747.56z"/>
	<path class="st11" d="M1447.11,747.56l2.2,2.2L1447.11,747.56z M1552.68,747.56l2.2,2.2L1552.68,747.56z"/>
	<path class="st5" d="M367.19,749.76l2.2,2.2L367.19,749.76z"/>
	<path class="st7" d="M1286.55,749.76l2.2,2.2L1286.55,749.76z M703.7,751.96l2.2,2.2L703.7,751.96z"/>
	<path d="M1407.52,751.96c-4.51,4.63-11.08,8-14.39,13.67c-23.25,39.74,64.61,40.77,39.78-2.2c-2.83-4.89-7.84-8.08-12.2-11.46
		l-13.2,6.6L1407.52,751.96z"/>
	<path class="st11" d="M1409.72,751.96v2.2h8.8L1409.72,751.96z"/>
	<path class="st8" d="M1449.31,751.96l2.2,2.2L1449.31,751.96z"/>
	<path class="st5" d="M373.79,754.16l2.2,2.2L373.79,754.16z"/>
	<path class="st11" d="M1401.65,755.63l0.73,1.46L1401.65,755.63z"/>
	<path class="st8" d="M1404.59,754.9l1.47,0.73L1404.59,754.9z M1407.52,756.36v2.2l11-2.2H1407.52z"/>
	<path class="st11" d="M1422.91,754.16l2.2,2.2L1422.91,754.16z"/>
	<path class="st8" d="M1398.72,756.36l2.2,2.2L1398.72,756.36z"/>
	<path class="st12" d="M1427.31,756.36l2.2,2.2L1427.31,756.36z"/>
	<path class="st5" d="M380.39,758.56l2.2,2.2L380.39,758.56z"/>
	<path class="st8" d="M1396.52,758.56l2.2,2.2L1396.52,758.56z"/>
	<path class="st11" d="M1526.29,758.56l6.6,4.4v-2.2L1526.29,758.56z"/>
	<path class="st12" d="M1528.49,758.56l2.2,2.2L1528.49,758.56z"/>
	<path class="st8" d="M1530.69,758.56l2.2,2.2L1530.69,758.56z"/>
	<path class="st11" d="M1535.08,758.56l2.2,2.2L1535.08,758.56z"/>
	<path class="st8" d="M1537.28,758.56l2.2,2.2L1537.28,758.56z"/>
	<path class="st7" d="M595.93,760.76l2.2,2.2L595.93,760.76z"/>
	<path d="M945.64,760.76c0,11.2-2.16,22.55,8.8,28.59v-21.99l26.39,8.8L945.64,760.76z"/>
	<path class="st7" d="M950.04,760.76l2.2,2.2L950.04,760.76z"/>
	<path class="st11" d="M1521.89,760.76l2.2,2.2L1521.89,760.76z"/>
	<path class="st8" d="M1524.09,760.76l4.4,4.4v-4.4H1524.09z M1535.08,760.76l2.2,2.2L1535.08,760.76z"/>
	<path class="st7" d="M956.64,762.96l2.2,2.2L956.64,762.96z"/>
	<path class="st8" d="M1392.12,762.96l2.2,2.2L1392.12,762.96z"/>
	<path class="st6" d="M1515.29,762.96l2.2,2.2L1515.29,762.96z"/>
	<path class="st12" d="M1517.49,762.96l2.2,2.2L1517.49,762.96z"/>
	<path d="M1079.8,791.55l11-19.79l13.2,8.8C1094.33,754.69,1079.96,773.21,1079.8,791.55z"/>
	<path class="st8" d="M1433.91,765.16l2.2,2.2L1433.91,765.16z M1515.29,765.16l2.2,2.2L1515.29,765.16z"/>
	<path d="M813.68,767.36c3.89,14.2,9.98,26.32,21.99,35.19l-13.2-28.59l26.39,2.2C842.05,763.8,826.09,767.36,813.68,767.36z"/>
	<path class="st7" d="M844.47,767.36l2.2,2.2L844.47,767.36z M954.44,767.36l2.2,2.2L954.44,767.36z"/>
	<path class="st4" d="M1513.09,767.36l2.2,2.2L1513.09,767.36z"/>
	<path class="st6" d="M395.79,769.56l2.2,2.2L395.79,769.56z"/>
	<path class="st7" d="M1097.4,769.56l2.2,2.2L1097.4,769.56z"/>
	<path class="st4" d="M1510.89,769.56l2.2,2.2L1510.89,769.56z"/>
	<path class="st7" d="M963.24,771.76l2.2,2.2L963.24,771.76z"/>
	<path d="M701.51,780.56l30.79,37.39l-17.6-30.79l26.39-4.4l-2.2-8.8L701.51,780.56z"/>
	<path class="st7" d="M822.47,773.96l2.2,2.2L822.47,773.96z"/>
	<path class="st12" d="M1436.11,773.96l2.2,2.2L1436.11,773.96z"/>
	<path class="st4" d="M1508.69,773.96v6.6h2.2L1508.69,773.96z"/>
	<path class="st7" d="M815.87,776.16l2.2,2.2L815.87,776.16z"/>
	<path class="st12" d="M1508.69,780.56l2.2,2.2L1508.69,780.56z"/>
	<path class="st7" d="M602.53,782.76l2.2,2.2L602.53,782.76z M701.51,782.76l2.2,2.2L701.51,782.76z"/>
	<path class="st4" d="M1508.69,782.76v6.6h2.2L1508.69,782.76z"/>
	<path class="st8" d="M1432.44,786.42l0.73,1.47L1432.44,786.42z M1554.88,784.95l2.2,2.2L1554.88,784.95z"/>
	<path class="st7" d="M598.13,787.15l2.2,2.2L598.13,787.15z M947.84,787.15l2.2,2.2L947.84,787.15z M419.98,789.35l2.2,2.2
		L419.98,789.35z M822.47,789.35l2.2,2.2L822.47,789.35z"/>
	<path class="st12" d="M1394.32,789.35l2.2,2.2L1394.32,789.35z"/>
	<path class="st6" d="M422.18,791.55l2.2,2.2L422.18,791.55z"/>
	<path class="st4" d="M1510.89,791.55l2.2,2.2L1510.89,791.55z"/>
	<path class="st8" d="M1425.11,793.75l2.2,2.2L1425.11,793.75z"/>
	<path class="st12" d="M1510.89,793.75l2.2,2.2L1510.89,793.75z"/>
	<path class="st11" d="M1403.12,795.95l2.2,2.2L1403.12,795.95z"/>
	<path class="st8" d="M1405.32,795.95l2.2,2.2L1405.32,795.95z M1419.98,796.68l1.46,0.73L1419.98,796.68z"/>
	<path class="st4" d="M1513.09,795.95l2.2,2.2L1513.09,795.95z"/>
	<path class="st8" d="M1549.01,797.42l0.73,1.46L1549.01,797.42z"/>
	<path class="st12" d="M1550.48,795.95l2.2,2.2L1550.48,795.95z"/>
	<path class="st8" d="M428.78,798.15l2.2,2.2L428.78,798.15z"/>
	<path class="st12" d="M1411.92,798.15l2.2,2.2L1411.92,798.15z"/>
	<path class="st4" d="M1515.29,798.15l2.2,2.2L1515.29,798.15z"/>
	<path class="st8" d="M1328.34,800.35l2.2,2.2L1328.34,800.35z"/>
	<path class="st4" d="M1517.49,800.35l2.2,2.2L1517.49,800.35z"/>
	<path class="st8" d="M1521.89,800.35l2.2,2.2L1521.89,800.35z"/>
	<path d="M479.36,842.14v4.4l63.78,21.99c-1.3-16.72-22.91-21.7-37.39-24.19l43.99-39.59C526.37,802.01,498.31,830.49,479.36,842.14
		z"/>
	<path class="st12" d="M1519.69,802.55l2.2,2.2L1519.69,802.55z"/>
	<path class="st4" d="M1521.89,802.55l2.2,2.2L1521.89,802.55z"/>
	<path class="st11" d="M1524.09,802.55l2.2,2.2L1524.09,802.55z"/>
	<path class="st8" d="M1532.88,802.55v2.2h6.6L1532.88,802.55z"/>
	<path class="st6" d="M435.38,804.75l2.2,2.2L435.38,804.75z"/>
	<path class="st7" d="M1449.31,804.75l2.2,2.2L1449.31,804.75z M1532.88,804.75l2.2,2.2L1532.88,804.75z"/>
	<path class="st8" d="M1345.93,806.95l2.2,2.2L1345.93,806.95z"/>
	<path d="M571.74,833.34v4.4l48.39,17.39l28.59,20c-3.13-23.36-27.92-27.28-43.99-39.59c20.43-3.85,48.16-4.17,57.18-26.39
		L571.74,833.34z"/>
	<path class="st7" d="M1304.15,811.35l2.2,2.2L1304.15,811.35z"/>
	<path class="st8" d="M1356.93,811.35l2.2,2.2L1356.93,811.35z"/>
	<path class="st7" d="M521.15,813.55l2.2,2.2L521.15,813.55z M644.32,815.75l2.2,2.2L644.32,815.75z M657.52,815.75l2.2,2.2
		L657.52,815.75z M1561.48,815.75l2.2,2.2L1561.48,815.75z M446.37,817.95l2.2,2.2L446.37,817.95z"/>
	<path class="st11" d="M1561.48,817.95l2.2,2.2L1561.48,817.95z"/>
	<path class="st7" d="M510.16,820.15l2.2,2.2L510.16,820.15z M653.12,820.15l2.2,2.2L653.12,820.15z M1444.91,822.34l2.2,2.2
		L1444.91,822.34z M1528.49,822.34l2.2,2.2L1528.49,822.34z M503.56,824.54l2.2,2.2L503.56,824.54z"/>
	<path class="st1" d="M1466.9,824.54l2.2,2.2L1466.9,824.54z M211.04,828.94l2.2,2.2L211.04,828.94z"/>
	<path class="st8" d="M1528.49,828.94l2.2,2.2L1528.49,828.94z"/>
	<path class="st7" d="M437.58,833.34l2.2,2.2L437.58,833.34z"/>
	<path d="M881.86,848.74l6.6-15.4C879.1,834.84,871.72,842.07,881.86,848.74z"/>
	<path class="st7" d="M488.16,835.54l2.2,2.2L488.16,835.54z"/>
	<path class="st1" d="M224.23,837.74l2.2,2.2L224.23,837.74z"/>
	<path class="st6" d="M1370.13,837.74l2.2,2.2L1370.13,837.74z"/>
	<path class="st7" d="M609.13,839.94l2.2,2.2L609.13,839.94z"/>
	<path class="st8" d="M1530.69,839.94l2.2,2.2L1530.69,839.94z"/>
	<path class="st7" d="M444.17,842.14l2.2,2.2L444.17,842.14z"/>
	<path class="st5" d="M1376.73,842.14l2.2,2.2L1376.73,842.14z"/>
	<path class="st7" d="M1436.11,842.14l2.2,2.2L1436.11,842.14z"/>
	<path class="st2" d="M112.06,844.34l2.2,2.2L112.06,844.34z"/>
	<path class="st1" d="M233.03,844.34l2.2,2.2L233.03,844.34z"/>
	<path class="st6" d="M391.39,844.34l2.2,2.2L391.39,844.34z"/>
	<path class="st11" d="M1548.28,844.34l2.2,2.2L1548.28,844.34z"/>
	<path class="st7" d="M624.53,846.54l2.2,2.2L624.53,846.54z"/>
	<path d="M961.04,846.54l-2.2,15.4c6.88-4.03,8.05-7.64,6.6-15.4H961.04z"/>
	<path class="st7" d="M965.44,846.54l2.2,2.2L965.44,846.54z"/>
	<path d="M1053.41,861.93l6.6-15.4C1051.48,849.01,1044.4,855.14,1053.41,861.93z"/>
	<path class="st8" d="M1433.91,846.54l2.2,2.2L1433.91,846.54z"/>
	<path class="st11" d="M1546.08,846.54l2.2,2.2L1546.08,846.54z"/>
	<path class="st7" d="M613.53,850.94l2.2,2.2L613.53,850.94z"/>
	<path class="st8" d="M1411.92,850.94l2.2,2.2L1411.92,850.94z"/>
	<path class="st5" d="M1455.91,850.94l2.2,2.2L1455.91,850.94z"/>
	<path class="st8" d="M1541.68,850.94l2.2,2.2L1541.68,850.94z M1539.48,853.14l2.2,2.2L1539.48,853.14z"/>
	<path class="st7" d="M637.72,855.34l2.2,2.2L637.72,855.34z"/>
	<path class="st1" d="M248.43,857.54l2.2,2.2L248.43,857.54z"/>
	<path class="st7" d="M1416.32,857.54l2.2,2.2L1416.32,857.54z"/>
	<path class="st2" d="M158.25,859.73l2.2,2.2L158.25,859.73z"/>
	<path class="st7" d="M963.24,859.73l2.2,2.2L963.24,859.73z M1049.01,859.73l2.2,2.2L1049.01,859.73z"/>
	<path d="M1119.39,875.13v8.8l21.99-15.4L1119.39,875.13z"/>
	<path class="st7" d="M639.92,870.73l2.2,2.2L639.92,870.73z M1128.19,870.73l2.2,2.2L1128.19,870.73z M1139.19,870.73l2.2,2.2
		L1139.19,870.73z"/>
	<path d="M1224.97,870.73v26.39C1233.23,889.04,1233.23,878.82,1224.97,870.73z"/>
	<path class="st1" d="M1517.49,870.73l2.2,2.2L1517.49,870.73z"/>
	<path class="st3" d="M1607.67,870.73l2.2,2.2L1607.67,870.73z"/>
	<path class="st7" d="M1125.99,872.93l2.2,2.2L1125.99,872.93z M1136.99,872.93l2.2,2.2L1136.99,872.93z M1222.77,872.93l2.2,2.2
		L1222.77,872.93z"/>
	<path class="st5" d="M1442.71,872.93l2.2,2.2L1442.71,872.93z"/>
	<path class="st1" d="M1506.49,875.13l2.2,2.2L1506.49,875.13z"/>
	<path class="st7" d="M1123.79,881.73l2.2,2.2L1123.79,881.73z M809.28,883.93l2.2,2.2L809.28,883.93z"/>
	<path d="M791.68,914.72l26.39,6.6l-14.64-14.12l8.05-21.07C800.87,891.62,794.37,903.27,791.68,914.72z"/>
	<path class="st13" d="M1519.69,886.13l2.2,2.2L1519.69,886.13z"/>
	
		<radialGradient id="SVGID_00000130628900316439441290000001416561700100158385_" cx="3455.4912" cy="-1603.1227" r="124.4062" gradientTransform="matrix(0.3828 0 0 -0.2737 187.9538 503.1563)" gradientUnits="userSpaceOnUse">
		<stop  offset="0" style="stop-color:#FFF68E"/>
		<stop  offset="0.5" style="stop-color:#FAEA82"/>
		<stop  offset="1" style="stop-color:#D6AA4A"/>
	</radialGradient>
	<path style="fill:url(#SVGID_00000130628900316439441290000001416561700100158385_);" d="M1429.51,982.9v2.2
		c55.34,6.99,80.26-19.46,120.97-50.59c-5.84,15.75-34.87,35.97-34.11,50.58c0.82,15.65,25.43,17.09,36.31,12.78
		c20.79-8.24,33.93-31.2,38.45-52.37c9.38-43.94-48.31-79.92-84.43-51.87C1475.74,917.68,1462.07,958.75,1429.51,982.9z"/>
	<path class="st8" d="M162.65,890.53l2.2,2.2L162.65,890.53z"/>
	<path d="M393.59,934.52c2.85,16.41,19.12,7.6,30.79,6.8c16.77-1.15,47.92,4.28,57.18,19.59l15.4-2.2
		c-3.93-24.89-39.82-24.85-59.38-26.39c14.4-14.56,35.03-18.89,39.59-41.79L393.59,934.52z"/>
	<path class="st3" d="M1592.27,890.53l2.2,2.2L1592.27,890.53z"/>
	<path class="st5" d="M285.82,892.73l2.2,2.2L285.82,892.73z"/>
	<path class="st3" d="M1618.66,894.93l2.2,2.2L1618.66,894.93z"/>
	<path class="st1" d="M226.43,897.12l2.2,2.2L226.43,897.12z"/>
	<path class="st7" d="M798.28,897.12l2.2,2.2L798.28,897.12z M459.57,899.32l2.2,2.2L459.57,899.32z M800.48,901.52l2.2,2.2
		L800.48,901.52z"/>
	<path class="st5" d="M301.21,905.92l2.2,2.2L301.21,905.92z"/>
	<path class="st7" d="M450.77,905.92l2.2,2.2L450.77,905.92z M468.37,905.92l2.2,2.2L468.37,905.92z"/>
	<path class="st2" d="M167.05,908.12l2.2,2.2L167.05,908.12z"/>
	<path d="M901.65,908.12l-24.19,30.79l30.79,11l-21.99-13.2C890.83,927.11,908.8,918.78,901.65,908.12L901.65,908.12z"/>
	<path class="st13" d="M1585.67,908.12l2.2,2.2L1585.67,908.12z"/>
	<path class="st5" d="M358.4,910.32l2.2,2.2L358.4,910.32z"/>
	<path class="st7" d="M444.17,910.32l2.2,2.2L444.17,910.32z M789.48,910.32l2.2,2.2L789.48,910.32z"/>
	<path class="st5" d="M310.01,912.52l2.2,2.2L310.01,912.52z M354,912.52l2.2,2.2L354,912.52z"/>
	<path class="st7" d="M459.57,914.72l2.2,2.2L459.57,914.72z M708.1,914.72l2.2,2.2L708.1,914.72z"/>
	<path d="M710.3,914.72l-26.39,24.19c10.3,3.48,34.09,17.03,41.79,6.6l-28.59-11L710.3,914.72z M1279.95,914.72l30.79,24.19v4.4
		l-28.59,15.4c15.05-1.23,27.88-5.8,39.59-15.4C1313.18,928.83,1296.48,917.91,1279.95,914.72z"/>
	<path class="st5" d="M316.61,916.92l2.2,2.2L316.61,916.92z"/>
	<path class="st8" d="M1590.07,916.92l2.2,2.2L1590.07,916.92z"/>
	<path class="st3" d="M1627.46,916.92l2.2,2.2L1627.46,916.92z M175.84,919.12l2.2,2.2L175.84,919.12z"/>
	<path class="st7" d="M888.46,919.12l2.2,2.2L888.46,919.12z M899.45,919.12l2.2,2.2L899.45,919.12z M1293.15,919.12l2.2,2.2
		L1293.15,919.12z"/>
	<path class="st13" d="M1484.5,919.12l2.2,2.2L1484.5,919.12z M1590.07,919.12l2.2,2.2L1590.07,919.12z"/>
	<path class="st7" d="M699.31,921.32l2.2,2.2L699.31,921.32z M708.1,921.32l2.2,2.2L708.1,921.32z M886.26,921.32l2.2,2.2
		L886.26,921.32z"/>
	<path class="st2" d="M180.24,923.52l2.2,2.2L180.24,923.52z"/>
	<path d="M573.94,923.52c-13.31,29.85-33.82,54.16-57.18,76.95c-13.41,13.08-34.32,25.24-39.59,44.02l96.77-20.54l50.59-10.25
		c-30.16-21.49-83.05,2.43-112.17,15.4c20-40.15,59.27-56.08,68.18-103.37l-2.2-2.2H573.94z"/>
	<path class="st7" d="M705.9,923.52l2.2,2.2L705.9,923.52z M884.06,923.52l2.2,2.2L884.06,923.52z M1288.75,923.52l2.2,2.2
		L1288.75,923.52z M441.97,925.72l2.2,2.2L441.97,925.72z"/>
	<path d="M976.43,945.51l13.2,2.2v-21.99C980.08,928.81,979,936.51,976.43,945.51z"/>
	<path class="st6" d="M411.18,927.92l2.2,2.2L411.18,927.92z"/>
	<path class="st7" d="M1295.35,927.92l2.2,2.2L1295.35,927.92z M569.54,930.12l2.2,2.2L569.54,930.12z"/>
	<path class="st2" d="M186.84,932.32l2.2,2.2L186.84,932.32z"/>
	<path class="st7" d="M446.37,932.32l2.2,2.2L446.37,932.32z M886.26,934.52l2.2,2.2L886.26,934.52z"/>
	<path class="st8" d="M1592.27,934.52l2.2,2.2L1592.27,934.52z"/>
	<path class="st6" d="M1317.34,936.71l2.2,2.2L1317.34,936.71z"/>
	<path class="st5" d="M1458.1,936.71l2.2,2.2L1458.1,936.71z"/>
	<path class="st7" d="M708.1,938.91l2.2,2.2L708.1,938.91z"/>
	<path class="st1" d="M1541.68,938.91l2.2,2.2L1541.68,938.91z"/>
	<path class="st7" d="M692.71,941.11l2.2,2.2L692.71,941.11z M976.43,941.11l2.2,2.2L976.43,941.11z"/>
	<path d="M1079.8,941.11l2.2,24.19c10.2-5.4,16.87-12.95,19.79-24.19l-15.4,11L1079.8,941.11z"/>
	<path class="st7" d="M488.16,943.31l2.2,2.2L488.16,943.31z M1077.61,943.31l2.2,2.2L1077.61,943.31z M1095.2,943.31l2.2,2.2
		L1095.2,943.31z"/>
	<path class="st6" d="M1319.54,943.31l2.2,2.2L1319.54,943.31z"/>
	<path class="st13" d="M1546.08,943.31l2.2,2.2L1546.08,943.31z"/>
	<path class="st2" d="M195.64,945.51l2.2,2.2L195.64,945.51z"/>
	<path class="st7" d="M705.9,945.51l2.2,2.2L705.9,945.51z M1093,945.51l2.2,2.2L1093,945.51z M1297.55,947.71l2.2,2.2
		L1297.55,947.71z"/>
	<path class="st13" d="M1460.3,952.11l2.2,2.2L1460.3,952.11z"/>
	<path class="st8" d="M1587.87,952.11l2.2,2.2L1587.87,952.11z"/>
	<path class="st3" d="M1638.46,954.31l2.2,2.2L1638.46,954.31z"/>
	<path class="st8" d="M1585.67,958.71l2.2,2.2L1585.67,958.71z"/>
	<path class="st7" d="M567.34,960.91l2.2,2.2L567.34,960.91z"/>
	<path class="st2" d="M255.02,963.11l2.2,2.2L255.02,963.11z"/>
	<path class="st11" d="M1513.09,965.31l2.2,2.2L1513.09,965.31z"/>
	<path class="st3" d="M1447.11,967.51l2.2,2.2L1447.11,967.51z"/>
	<path class="st13" d="M1510.89,967.51l2.2,2.2L1510.89,967.51z M1444.91,969.71l2.2,2.2L1444.91,969.71z"/>
	<path d="M769.69,987.3l4.4-15.4C764.65,974.65,759.47,981.45,769.69,987.3z"/>
	<path class="st1" d="M211.04,974.1l2.2,2.2L211.04,974.1z"/>
	<path class="st7" d="M763.09,974.1l2.2,2.2L763.09,974.1z M538.75,976.3l2.2,2.2L538.75,976.3z"/>
	<path class="st13" d="M1493.3,976.3l2.2,2.2L1493.3,976.3z"/>
	<path class="st7" d="M536.55,978.5l2.2,2.2L536.55,978.5z"/>
	<path class="st8" d="M1574.67,978.5l2.2,2.2L1574.67,978.5z M1482.3,980.7l2.2,2.2L1482.3,980.7z"/>
	<path class="st13" d="M1572.47,980.7l2.2,2.2L1572.47,980.7z"/>
	<path d="M1163.38,985.1l-2.2,30.79l-19.79-13.2c2.07,13.35,11.4,19.68,24.19,21.99l2.2-39.59H1163.38z"/>
	<path class="st8" d="M1462.5,985.1v2.2h6.6L1462.5,985.1z"/>
	<path d="M620.13,1053.28c14.56-0.62,65.25,1.32,72.58-8.8l-48.39-6.6l26.39-50.59C654.71,992.3,627.24,1037.77,620.13,1053.28
		 M798.28,1244.63c16.59-9.51,38.19-37.83,46.19-54.99c-17.61,5.27-25.31,22.53-37.39,35.19l-6.6-46.19
		c51.44-4.49,74.03-60.69,104.31-94.49c18.43-20.56,41.51-29.47,65.04-41.87c-13.87-16.59-33.16,0.94-46.19,10.97
		c-34.91,26.88-55.05,59.46-85.78,90.2l17.59-46.19h-2.2c-9.55,22.95-20.98,47.45-43.99,59.38l8.8-30.79h-2.2
		c-9.25,22.09-19.68,32.98-43.99,32.99l21.99-50.59h-2.2l-28.59,48.39l-8.8-2.2l21.99-41.79h-2.2
		c-11.12,17.8-22.85,43.11-46.19,37.39l19.79-37.39c-11.02,8.63-15.79,29.25-28.8,34.38c-5.93,2.34-17.12-2.01-14.74-9.86
		c3.09-10.2,19.87-20.24,26.49-28.92c22.52-29.58,40.79-77.8,74.23-96c27.38-14.9,69.05,3.98,98.97,3.61
		c17.14-0.21,36.67-6.09,41.79-24.18c-13.98-1.51-27.2,7.52-41.79,7.54c-36.97,0.06-97.63-18.35-129.39,6.74
		c-28.92,22.84-30.56,53.5-48.75,82.48c-8.88,14.15-24.57,23.73-37.39,33.93c-4.75,3.78-13.35,9.28-11.55,16.52
		c2.21,8.91,17.38,13.69,24.74,17.06c16.68,7.64,34.81,13.61,52.79,17.29c9.61,1.97,23.91,1.65,32.07,7.56
		C801.26,1191.62,796.23,1228.39,798.28,1244.63L798.28,1244.63z"/>
	<path class="st8" d="M1559.28,993.9l2.2,2.2L1559.28,993.9z M1521.89,996.1l2.2,2.2L1521.89,996.1z M1552.68,996.1l2.2,2.2
		L1552.68,996.1z"/>
	<path d="M386.99,998.3l-2.2,13.2l8.8-13.2H386.99z"/>
	<path class="st7" d="M906.05,998.3l2.2,2.2L906.05,998.3z"/>
	<path class="st8" d="M1530.69,998.3l2.2,2.2L1530.69,998.3z"/>
	<path class="st7" d="M1167.78,1000.5l2.2,2.2L1167.78,1000.5z"/>
	
		<radialGradient id="SVGID_00000078008610580115652920000008425176050873302718_" cx="4074.7375" cy="-1483.3738" r="133.0404" gradientTransform="matrix(0.3229 0 0 -0.3244 189.9857 592.8604)" gradientUnits="userSpaceOnUse">
		<stop  offset="0" style="stop-color:#FFF68E"/>
		<stop  offset="0.5" style="stop-color:#FAEA82"/>
		<stop  offset="1" style="stop-color:#D6AA4A"/>
	</radialGradient>
	<path style="fill:url(#SVGID_00000078008610580115652920000008425176050873302718_);" d="M1528.49,1062.08
		c-5.05-14.91-2.74-32.95-12.43-46.09c-12.66-17.18-41.06-15.72-60.15-15.48c-6.59,0.08-17.58-0.32-21.84,5.94
		c-5.09,7.46,4.17,25.69,6.17,33.64c8.28,32.95,15.66,78.4,44.28,100.48c18.81,14.51,56.65,5,72.34-10.54
		c25.03-24.79,31.79-82.73,6.36-109.49C1531.76,987.43,1532.24,1046.32,1528.49,1062.08L1528.49,1062.08z"/>
	<path class="st1" d="M228.63,1002.7l2.2,2.2L228.63,1002.7z"/>
	<path class="st7" d="M776.29,1002.7l2.2,2.2L776.29,1002.7z"/>
	<path class="st6" d="M435.38,1004.9l2.2,2.2L435.38,1004.9z"/>
	<path class="st7" d="M510.16,1004.9l2.2,2.2L510.16,1004.9z M661.92,1004.9l2.2,2.2L661.92,1004.9z"/>
	<path class="st6" d="M391.39,1007.1l2.2,2.2L391.39,1007.1z"/>
	<path class="st7" d="M446.37,1007.1l2.2,2.2L446.37,1007.1z M507.96,1007.1l2.2,2.2L507.96,1007.1z M811.48,1007.1l2.2,2.2
		L811.48,1007.1z M505.76,1009.3l2.2,2.2L505.76,1009.3z"/>
	<path class="st6" d="M389.19,1011.49l2.2,2.2L389.19,1011.49z"/>
	<path class="st7" d="M648.72,1011.49l2.2,2.2L648.72,1011.49z M767.49,1011.49l2.2,2.2L767.49,1011.49z"/>
	<path class="st2" d="M923.65,1011.49l2.2,2.2L923.65,1011.49z"/>
	<path class="st7" d="M1552.68,1011.49l2.2,2.2L1552.68,1011.49z"/>
	
		<radialGradient id="SVGID_00000093868575613417643690000006684084548565635715_" cx="4087.0627" cy="-1775.0299" r="1311.674" gradientTransform="matrix(0.3207 0 0 -0.3267 190.0629 596.9292)" gradientUnits="userSpaceOnUse">
		<stop  offset="0" style="stop-color:#FFF68E"/>
		<stop  offset="0.5" style="stop-color:#FAEA82"/>
		<stop  offset="1" style="stop-color:#D6AA4A"/>
	</radialGradient>
	<path style="fill:url(#SVGID_00000093868575613417643690000006684084548565635715_);" d="M1664.85,1013.69l-11.75,54.99l-8.33,28.5
		l15.69,11.09l-4.4-19.79h2.2c10.17,24.43,20.89,28.59,46.19,28.59l-15.4-32.99c10.14,11.67,13.82,28.17,30.79,30.79l-15.4-28.59
		c14.08,15.28,21.03,25.83,41.79,15.4v-4.4C1709.58,1079.83,1706.25,1021.19,1664.85,1013.69L1664.85,1013.69z"/>
	<path d="M1312.94,1031.29l6.6-15.4C1310.55,1018.51,1305.83,1023.55,1312.94,1031.29z"/>
	<path class="st7" d="M644.32,1018.09l2.2,2.2L644.32,1018.09z"/>
	<path class="st13" d="M1517.49,1018.09l2.2,2.2L1517.49,1018.09z"/>
	<path class="st6" d="M789.48,1020.29l2.2,2.2L789.48,1020.29z"/>
	<path class="st8" d="M1433.91,1020.29l2.2,2.2L1433.91,1020.29z"/>
	<path class="st3" d="M1640.66,1020.29l2.2,2.2L1640.66,1020.29z"/>
	<path class="st7" d="M573.94,1022.49l2.2,2.2L573.94,1022.49z"/>
	<path class="st6" d="M787.28,1022.49l2.2,2.2L787.28,1022.49z M386.99,1024.69l2.2,2.2L386.99,1024.69z M395.79,1024.69l2.2,2.2
		L395.79,1024.69z M785.08,1024.69l2.2,2.2L785.08,1024.69z"/>
	<path class="st7" d="M646.52,1026.89l2.2,2.2L646.52,1026.89z M752.09,1026.89l2.2,2.2L752.09,1026.89z"/>
	<path class="st6" d="M424.38,1029.09l2.2,2.2L424.38,1029.09z"/>
	<path class="st5" d="M1383.32,1029.09l2.2,2.2L1383.32,1029.09z"/>
	<path class="st8" d="M1528.49,1029.09l2.2,2.2L1528.49,1029.09z"/>
	<path class="st6" d="M422.18,1033.49l2.2,2.2L422.18,1033.49z"/>
	<path class="st5" d="M778.48,1033.49l2.2,2.2L778.48,1033.49z"/>
	<path d="M1016.02,1033.49l24.19,26.39l11-26.39l-11,17.6L1016.02,1033.49z M1238.16,1033.49l-2.2,32.99l-21.99-13.2
		c-1.22,14.5,20.98,30.98,32.99,37.39l-4.4-57.18H1238.16z"/>
	<path class="st7" d="M628.92,1037.89l2.2,2.2L628.92,1037.89z M666.31,1037.89l2.2,2.2L666.31,1037.89z M626.72,1040.09l2.2,2.2
		L626.72,1040.09z"/>
	<path class="st5" d="M1376.73,1040.09l2.2,2.2L1376.73,1040.09z"/>
	<path class="st1" d="M288.01,1044.49l2.2,2.2L288.01,1044.49z"/>
	<path class="st6" d="M426.58,1046.69l2.2,2.2L426.58,1046.69z"/>
	<path class="st7" d="M620.13,1046.69l2.2,2.2L620.13,1046.69z"/>
	<path class="st1" d="M930.24,1046.69l2.2,2.2L930.24,1046.69z"/>
	<path class="st5" d="M1372.33,1046.69l2.2,2.2L1372.33,1046.69z M1387.72,1048.88l2.2,2.2L1387.72,1048.88z"/>
	<path class="st7" d="M1029.22,1051.08l2.2,2.2L1029.22,1051.08z M1704.44,1051.08l2.2,2.2L1704.44,1051.08z M738.89,1053.28
		l2.2,2.2L738.89,1053.28z"/>
	<path class="st5" d="M1367.93,1053.28l2.2,2.2L1367.93,1053.28z"/>
	<path class="st1" d="M268.22,1055.48l2.2,2.2L268.22,1055.48z M919.25,1055.48l2.2,2.2L919.25,1055.48z"/>
	<path class="st7" d="M936.84,1055.48l2.2,2.2L936.84,1055.48z"/>
	<path class="st1" d="M261.62,1057.68l2.2,2.2L261.62,1057.68z"/>
	<path class="st7" d="M1033.62,1057.68l2.2,2.2L1033.62,1057.68z M1222.77,1057.68l2.2,2.2L1222.77,1057.68z"/>
	<path class="st5" d="M1378.93,1062.08l2.2,2.2L1378.93,1062.08z"/>
	<path class="st7" d="M921.45,1066.48l2.2,2.2L921.45,1066.48z"/>
	<path class="st1" d="M261.62,1068.68l2.2,2.2L261.62,1068.68z"/>
	<path class="st7" d="M1447.11,1068.68l2.2,2.2L1447.11,1068.68z M507.96,1070.88l2.2,2.2L507.96,1070.88z"/>
	<path d="M642.12,1070.88c-6.89,32.95-30.44,62.61-51.54,87.98c-10.06,12.09-25.53,24.24-29.84,39.59
		c36.45-10.5,77.42-47.53,116.57-43.99c-10.07-19.5-57.04,7.56-74.78,11c14.27-21.14,33.77-39.56,42.96-63.78
		C649.35,1091.51,651.78,1077.84,642.12,1070.88L642.12,1070.88z"/>
	<path class="st5" d="M754.29,1070.88l2.2,2.2L754.29,1070.88z"/>
	<path class="st7" d="M897.25,1070.88l2.2,2.2L897.25,1070.88z"/>
	<path class="st1" d="M288.01,1073.08l2.2,2.2L288.01,1073.08z M296.81,1073.08l2.2,2.2L296.81,1073.08z"/>
	<path class="st7" d="M639.92,1075.28l2.2,2.2L639.92,1075.28z"/>
	<path class="st5" d="M1350.33,1075.28l2.2,2.2L1350.33,1075.28z"/>
	<path class="st8" d="M1449.31,1077.48l2.2,2.2L1449.31,1077.48z M1576.87,1079.68l2.2,2.2L1576.87,1079.68z"/>
	<path class="st6" d="M1722.03,1079.68l2.2,2.2L1722.03,1079.68z"/>
	<path class="st7" d="M903.85,1081.88l2.2,2.2L903.85,1081.88z"/>
	<path class="st6" d="M435.38,1084.08l2.2,2.2L435.38,1084.08z"/>
	<path class="st1" d="M279.22,1086.27l2.2,2.2L279.22,1086.27z"/>
	<path class="st7" d="M881.86,1086.27l2.2,2.2L881.86,1086.27z"/>
	<path class="st1" d="M277.02,1088.47l2.2,2.2L277.02,1088.47z"/>
	<path class="st7" d="M1240.36,1088.47l2.2,2.2L1240.36,1088.47z"/>
	<path d="M1132.59,1123.66c-9.3-9.28-18.78-22.1-32.99-19.79l41.79,50.59l11-63.78C1135.63,1093.32,1136.44,1109.95,1132.59,1123.66
		z"/>
	<path class="st5" d="M1695.64,1090.67l2.2,2.2L1695.64,1090.67z"/>
	<path class="st6" d="M408.98,1092.87l2.2,2.2L408.98,1092.87z M455.17,1092.87l2.2,2.2L455.17,1092.87z"/>
	<path d="M925.85,1112.67l-2.2-11h-6.6l2.2,28.59c12.81-2.22,26.14-25.25,28.59-37.39L925.85,1112.67z"/>
	<path class="st8" d="M1574.67,1092.87l2.2,2.2L1574.67,1092.87z"/>
	<path class="st7" d="M492.56,1095.07l2.2,2.2L492.56,1095.07z M875.26,1095.07l2.2,2.2L875.26,1095.07z M892.85,1095.07l2.2,2.2
		L892.85,1095.07z M1152.39,1095.07l2.2,2.2L1152.39,1095.07z"/>
	<path class="st5" d="M1354.73,1095.07l2.2,2.2L1354.73,1095.07z"/>
	<path class="st3" d="M1746.23,1097.27l2.2,2.2L1746.23,1097.27z"/>
	<path class="st7" d="M714.7,1099.47l2.2,2.2L714.7,1099.47z"/>
	<path class="st2" d="M1642.86,1099.47l2.2,2.2L1642.86,1099.47z"/>
	<path class="st7" d="M510.16,1101.67l2.2,2.2L510.16,1101.67z M628.92,1101.67l2.2,2.2L628.92,1101.67z"/>
	<path d="M794.61,1103.14l0.73,1.46L794.61,1103.14z"/>
	<path class="st5" d="M1345.93,1103.87l2.2,2.2L1345.93,1103.87z"/>
	<path class="st3" d="M1590.07,1103.87l2.2,2.2L1590.07,1103.87z M1658.25,1103.87l2.2,2.2L1658.25,1103.87z"/>
	<path class="st7" d="M642.12,1106.07l2.2,2.2L642.12,1106.07z M791.68,1106.07l2.2,2.2L791.68,1106.07z M624.53,1110.47l2.2,2.2
		L624.53,1110.47z M1568.08,1110.47l2.2,2.2L1568.08,1110.47z"/>
	<path class="st3" d="M1587.87,1110.47l2.2,2.2L1587.87,1110.47z"/>
	<path class="st1" d="M1706.64,1110.47l2.2,2.2L1706.64,1110.47z"/>
	<path d="M318.81,1112.67l2.2,2.2L318.81,1112.67z"/>
	<path class="st7" d="M699.31,1112.67l2.2,2.2L699.31,1112.67z"/>
	<path class="st5" d="M1328.34,1112.67l2.2,2.2L1328.34,1112.67z"/>
	<path class="st1" d="M314.41,1114.87l2.2,2.2L314.41,1114.87z M318.81,1114.87l2.2,2.2L318.81,1114.87z"/>
	<path class="st6" d="M771.89,1114.87l2.2,2.2L771.89,1114.87z"/>
	<path class="st7" d="M862.06,1114.87l2.2,2.2L862.06,1114.87z M1565.88,1114.87l2.2,2.2L1565.88,1114.87z M1132.59,1119.27l2.2,2.2
		L1132.59,1119.27z M1466.9,1119.27l2.2,2.2L1466.9,1119.27z"/>
	<path class="st5" d="M356.2,1121.47l2.2,2.2L356.2,1121.47z"/>
	<path class="st7" d="M855.46,1123.66l2.2,2.2L855.46,1123.66z M1141.39,1123.66l2.2,2.2L1141.39,1123.66z"/>
	<path class="st6" d="M494.76,1125.86l2.2,2.2L494.76,1125.86z"/>
	<path class="st2" d="M734.5,1125.86l2.2,2.2L734.5,1125.86z"/>
	<path class="st7" d="M763.09,1125.86l2.2,2.2L763.09,1125.86z"/>
	<path class="st6" d="M782.88,1125.86l2.2,2.2L782.88,1125.86z"/>
	<path class="st7" d="M870.86,1125.86l2.2,2.2L870.86,1125.86z"/>
	<path class="st3" d="M1596.67,1125.86l2.2,2.2L1596.67,1125.86z"/>
	<path class="st7" d="M679.51,1128.06l2.2,2.2L679.51,1128.06z M813.68,1128.06l2.2,2.2L813.68,1128.06z"/>
	<path d="M1007.22,1128.06l-11,28.59h-2.2l-17.6-24.19l15.4,50.59h2.2C999.88,1168.35,1020.59,1141.32,1007.22,1128.06z"/>
	<path class="st7" d="M1121.59,1128.06l2.2,2.2L1121.59,1128.06z"/>
	<path class="st6" d="M780.68,1130.26l2.2,2.2L780.68,1130.26z"/>
	<path class="st1" d="M1442.71,1130.26l2.2,2.2L1442.71,1130.26z"/>
	<path class="st3" d="M703.7,1132.46l2.2,2.2L703.7,1132.46z"/>
	<path class="st7" d="M1002.83,1132.46l2.2,2.2L1002.83,1132.46z"/>
	<path class="st6" d="M428.78,1134.66l2.2,2.2L428.78,1134.66z"/>
	<path class="st5" d="M774.09,1134.66l2.2,2.2L774.09,1134.66z"/>
	<path class="st7" d="M813.68,1134.66l2.2,2.2L813.68,1134.66z M833.47,1134.66l2.2,2.2L833.47,1134.66z"/>
	<path class="st1" d="M299.01,1136.86l2.2,2.2L299.01,1136.86z"/>
	<path class="st7" d="M837.87,1136.86l2.2,2.2L837.87,1136.86z M1480.1,1136.86l2.2,2.2L1480.1,1136.86z M604.73,1139.06l2.2,2.2
		L604.73,1139.06z M1482.3,1139.06l2.2,2.2L1482.3,1139.06z"/>
	<path class="st1" d="M292.41,1141.26l2.2,2.2L292.41,1141.26z"/>
	<path class="st3" d="M730.1,1141.26l2.2,2.2L730.1,1141.26z"/>
	<path class="st1" d="M758.69,1141.26l2.2,2.2L758.69,1141.26z"/>
	<path class="st7" d="M837.87,1141.26l2.2,2.2L837.87,1141.26z"/>
	<path d="M1244.76,1143.46l13.2,72.58c-14.02-12.25-57.26-68.69-74.78-48.39c40.46,12.89,57.32,60.17,92.38,81.38l-10.97-41.79
		l-13.23-65.98L1244.76,1143.46z"/>
	<path class="st7" d="M1484.5,1141.26l2.2,2.2L1484.5,1141.26z"/>
	<path class="st8" d="M1526.29,1143.46l2.2,2.2L1526.29,1143.46z"/>
	<path class="st2" d="M1581.27,1143.46l2.2,2.2L1581.27,1143.46z"/>
	<path class="st3" d="M285.82,1145.66l2.2,2.2L285.82,1145.66z"/>
	<path class="st5" d="M343,1145.66l2.2,2.2L343,1145.66z"/>
	<path class="st7" d="M613.53,1145.66l2.2,2.2L613.53,1145.66z"/>
	<path class="st3" d="M721.3,1145.66l2.2,2.2L721.3,1145.66z M727.9,1145.66l2.2,2.2L727.9,1145.66z"/>
	<path class="st2" d="M767.49,1145.66l2.2,2.2L767.49,1145.66z"/>
	<path class="st8" d="M1495.49,1145.66l2.2,2.2L1495.49,1145.66z"/>
	<path class="st3" d="M1579.07,1145.66l2.2,2.2L1579.07,1145.66z"/>
	<path class="st7" d="M598.13,1147.86l2.2,2.2L598.13,1147.86z"/>
	<path class="st3" d="M716.9,1147.86l2.2,2.2L716.9,1147.86z M747.69,1147.86l2.2,2.2L747.69,1147.86z"/>
	<path class="st6" d="M457.37,1150.06l2.2,2.2L457.37,1150.06z"/>
	<path class="st5" d="M815.87,1152.26l2.2,2.2L815.87,1152.26z"/>
	<path class="st1" d="M336.4,1154.46l2.2,2.2L336.4,1154.46z"/>
	<path class="st2" d="M760.89,1154.46l2.2,2.2L760.89,1154.46z"/>
	<path class="st5" d="M811.48,1154.46l2.2,2.2L811.48,1154.46z"/>
	<path class="st7" d="M631.12,1156.66l2.2,2.2L631.12,1156.66z"/>
	<path class="st1" d="M1471.3,1156.66l2.2,2.2L1471.3,1156.66z"/>
	<path class="st7" d="M710.3,1158.86l2.2,2.2L710.3,1158.86z"/>
	<path d="M1361.33,1158.86c-11.14,27.27,16.05,56.53,26.39,81.38c-28.6-14.74-53.98-39.3-87.98-39.59v8.8
		c48.97,4.28,75.09,54.39,114.37,76.98c-0.37-40.99-35.55-88.13-48.39-127.57L1361.33,1158.86z"/>
	<path class="st1" d="M1427.31,1158.86l2.2,2.2L1427.31,1158.86z"/>
	<path class="st7" d="M617.93,1161.05l2.2,2.2L617.93,1161.05z"/>
	<path class="st1" d="M1480.1,1161.05l2.2,2.2L1480.1,1161.05z"/>
	<path class="st2" d="M1563.68,1161.05l2.2,2.2L1563.68,1161.05z"/>
	<path class="st7" d="M835.67,1163.25l2.2,2.2L835.67,1163.25z"/>
	<path class="st3" d="M1561.48,1163.25l2.2,2.2L1561.48,1163.25z"/>
	<path class="st6" d="M494.76,1165.45l2.2,2.2L494.76,1165.45z M1246.96,1165.45l2.2,2.2L1246.96,1165.45z"/>
	<path class="st2" d="M1559.28,1165.45l2.2,2.2L1559.28,1165.45z"/>
	<path class="st6" d="M492.56,1167.65l2.2,2.2L492.56,1167.65z"/>
	<path class="st7" d="M736.7,1167.65l2.2,2.2L736.7,1167.65z M829.07,1167.65l2.2,2.2L829.07,1167.65z"/>
	<path class="st1" d="M1440.51,1167.65l2.2,2.2L1440.51,1167.65z"/>
	<path class="st6" d="M490.36,1169.85l2.2,2.2L490.36,1169.85z M488.16,1172.05l2.2,2.2L488.16,1172.05z"/>
	<path class="st7" d="M996.23,1172.05l2.2,2.2L996.23,1172.05z"/>
	<path class="st6" d="M485.96,1174.25l2.2,2.2L485.96,1174.25z"/>
	<path class="st7" d="M576.14,1174.25l2.2,2.2L576.14,1174.25z"/>
	<path class="st6" d="M1257.96,1176.45l2.2,2.2L1257.96,1176.45z"/>
	<path class="st5" d="M1359.13,1183.05l2.2,2.2L1359.13,1183.05z"/>
	<path class="st6" d="M477.16,1185.25l2.2,2.2L477.16,1185.25z"/>
	<path class="st7" d="M587.14,1185.25l2.2,2.2L587.14,1185.25z M582.74,1187.45l2.2,2.2L582.74,1187.45z"/>
	<path d="M914.85,1191.85l-15.4,2.2c5.19,12.33,14.34,22.3,18.64,35.19c4.77,14.28,1.67,33.99,16.55,41.79
		c6.89-15.47,23.82-40.68,19.79-57.18c-12.5,6.15-18.42,19.52-19.79,32.99h-2.2L914.85,1191.85z"/>
	<path class="st6" d="M470.57,1194.05l2.2,2.2L470.57,1194.05z"/>
	<path d="M710.3,1194.05c0,43.16-5.87,83.75-17.6,125.37c15.3,0.56,23.32-15.35,31.61-26.39c16.38-21.8,32.8-45.83,58.56-57.18v-2.2
		c-26.13-3.38-58.78,35.68-68.18,57.18h-2.2c7.74-29.93,14.63-67.35,2.2-96.77H710.3z"/>
	<path class="st7" d="M842.27,1194.05l2.2,2.2L842.27,1194.05z"/>
	<path class="st2" d="M1475.7,1194.05l2.2,2.2L1475.7,1194.05z"/>
	<path class="st3" d="M1528.49,1194.05l2.2,2.2L1528.49,1194.05z"/>
	<path d="M1084.2,1242.43l-50.59-35.19c2.82,9,9.96,11.68,16.63,17.87c13.12,12.17,24.58,40.65,42.75,43.72l4.4-72.58
		C1079.65,1203.02,1084.2,1226.84,1084.2,1242.43z"/>
	<path class="st5" d="M1365.73,1196.25l2.2,2.2L1365.73,1196.25z"/>
	<path class="st2" d="M1526.29,1196.25l2.2,2.2L1526.29,1196.25z"/>
	<path class="st7" d="M917.05,1198.44l2.2,2.2L917.05,1198.44z"/>
	<path class="st6" d="M1253.56,1200.64l2.2,2.2L1253.56,1200.64z"/>
	<path class="st7" d="M903.85,1202.84l2.2,2.2L903.85,1202.84z"/>
	<path class="st6" d="M1229.37,1202.84l2.2,2.2L1229.37,1202.84z M1244.76,1205.04l2.2,2.2L1244.76,1205.04z"/>
	<path class="st5" d="M1246.96,1207.24l2.2,2.2L1246.96,1207.24z"/>
	<path class="st7" d="M826.87,1209.44l2.2,2.2L826.87,1209.44z M1042.41,1209.44l2.2,2.2L1042.41,1209.44z"/>
	<path class="st6" d="M1339.34,1211.64l2.2,2.2L1339.34,1211.64z"/>
	<path class="st5" d="M474.97,1213.84l2.2,2.2L474.97,1213.84z"/>
	<path class="st7" d="M954.44,1213.84l2.2,2.2L954.44,1213.84z M820.27,1218.24l2.2,2.2L820.27,1218.24z"/>
	<path class="st6" d="M1242.56,1218.24l2.2,2.2L1242.56,1218.24z"/>
	<path class="st1" d="M1387.72,1218.24l2.2,2.2L1387.72,1218.24z"/>
	<path class="st2" d="M1493.3,1218.24l2.2,2.2L1493.3,1218.24z"/>
	<path class="st8" d="M1504.29,1218.24l2.2,2.2L1504.29,1218.24z"/>
	<path class="st5" d="M479.36,1220.44l2.2,2.2L479.36,1220.44z"/>
	<path class="st2" d="M1502.09,1220.44l2.2,2.2L1502.09,1220.44z"/>
	<path class="st7" d="M1049.01,1222.64l2.2,2.2L1049.01,1222.64z"/>
	<path class="st1" d="M1359.13,1222.64l2.2,2.2L1359.13,1222.64z"/>
	<path class="st2" d="M1499.89,1222.64l2.2,2.2L1499.89,1222.64z"/>
	<path class="st7" d="M587.14,1227.04l2.2,2.2L587.14,1227.04z M917.05,1227.04l2.2,2.2L917.05,1227.04z M1057.81,1231.44l2.2,2.2
		L1057.81,1231.44z"/>
	<path class="st6" d="M584.94,1235.84l2.2,2.2L584.94,1235.84z"/>
	<path class="st7" d="M1077.61,1238.03l2.2,2.2L1077.61,1238.03z"/>
	<path d="M1209.57,1238.03c-15.51,27.5,7.1,84.16,11,114.37h-2.2c-12.26-25.89-35.87-47.28-54.99-68.18
		c-2.69-2.95-16.63-21.92-21.61-13.94c-5.19,8.32,20.26,28.07,25.04,33.73c17.58,20.83,33.45,44.4,46.76,68.18
		c7.69,13.75,14.39,32.14,28.98,39.59c-11-56.74-28.43-115.66-28.59-173.75L1209.57,1238.03z"/>
	<path class="st1" d="M1359.13,1238.03l2.2,2.2L1359.13,1238.03z"/>
	<path class="st8" d="M758.69,1240.23l2.2,2.2L758.69,1240.23z"/>
	<path class="st7" d="M769.69,1240.23l2.2,2.2L769.69,1240.23z M930.24,1240.23l2.2,2.2L930.24,1240.23z"/>
	<path class="st5" d="M1264.56,1240.23l2.2,2.2L1264.56,1240.23z"/>
	<path class="st6" d="M1205.17,1242.43l2.2,2.2L1205.17,1242.43z"/>
	<path class="st2" d="M1491.1,1242.43l2.2,2.2L1491.1,1242.43z"/>
	<path class="st7" d="M798.28,1244.63l2.2,2.2L798.28,1244.63z"/>
	<path class="st6" d="M932.44,1244.63l2.2,2.2L932.44,1244.63z"/>
	<path class="st2" d="M1440.51,1246.83l2.2,2.2L1440.51,1246.83z M1469.1,1246.83l2.2,2.2L1469.1,1246.83z"/>
	<path class="st7" d="M758.69,1249.03l2.2,2.2L758.69,1249.03z M1071.01,1249.03l2.2,2.2L1071.01,1249.03z"/>
	<path class="st1" d="M1370.13,1249.03l2.2,2.2L1370.13,1249.03z"/>
	<path class="st6" d="M580.54,1251.23l2.2,2.2L580.54,1251.23z"/>
	<path class="st2" d="M1451.51,1253.43l2.2,2.2L1451.51,1253.43z"/>
	<path class="st7" d="M705.9,1255.63l2.2,2.2L705.9,1255.63z"/>
	<path class="st5" d="M507.96,1257.83l2.2,2.2L507.96,1257.83z"/>
	<path class="st6" d="M1077.61,1257.83l2.2,2.2L1077.61,1257.83z M1205.17,1257.83l2.2,2.2L1205.17,1257.83z"/>
	<path class="st3" d="M1491.1,1257.83l2.2,2.2L1491.1,1257.83z"/>
	
		<radialGradient id="SVGID_00000063594706985018787890000010941035897616946597_" cx="1028.6379" cy="-1624.5234" r="53.1362" gradientTransform="matrix(0.2788 0 0 -0.3758 191.4837 683.6736)" gradientUnits="userSpaceOnUse">
		<stop  offset="0" style="stop-color:#FFF68E"/>
		<stop  offset="0.5" style="stop-color:#FAEA82"/>
		<stop  offset="1" style="stop-color:#D6AA4A"/>
	</radialGradient>
	<path style="fill:url(#SVGID_00000063594706985018787890000010941035897616946597_);" d="M477.16,1260.03l-24.19,68.18l50.59-35.19
		C502.67,1276.02,493.47,1264.87,477.16,1260.03z"/>
	<path class="st7" d="M745.49,1262.23l2.2,2.2L745.49,1262.23z M1082,1264.43l2.2,2.2L1082,1264.43z"/>
	<path class="st6" d="M571.74,1273.23l2.2,2.2L571.74,1273.23z"/>
	<path class="st1" d="M1396.52,1273.23l2.2,2.2L1396.52,1273.23z"/>
	<path class="st6" d="M1154.59,1275.42l2.2,2.2L1154.59,1275.42z"/>
	<path class="st7" d="M672.91,1277.62l2.2,2.2L672.91,1277.62z"/>
	<path d="M842.27,1277.62l-2.2,2.2c10.76,29.56,21.35,54.06,26.57,85.78c2.42,14.73,0.92,33.91,13.02,43.99
		c12.37-23.47,16.82-50.69,28.11-74.78c6.48-13.83,17.06-25.97,13.68-41.79c-21.14,10.4-33.62,57.35-39.59,79.18
		C870.95,1343.12,874.29,1292.6,842.27,1277.62L842.27,1277.62z"/>
	<path class="st6" d="M1145.79,1282.02l2.2,2.2L1145.79,1282.02z M1147.99,1284.22l2.2,2.2L1147.99,1284.22z"/>
	<path class="st7" d="M712.5,1286.42l2.2,2.2L712.5,1286.42z"/>
	<path class="st6" d="M1150.19,1286.42l2.2,2.2L1150.19,1286.42z"/>
	<path class="st5" d="M538.75,1288.62l2.2,2.2L538.75,1288.62z"/>
	<path class="st6" d="M584.94,1288.62l2.2,2.2L584.94,1288.62z"/>
	<path class="st4" d="M712.5,1288.62l2.2,2.2L712.5,1288.62z"/>
	<path class="st6" d="M1152.39,1288.62l2.2,2.2L1152.39,1288.62z"/>
	<path class="st8" d="M1451.51,1288.62l2.2,2.2L1451.51,1288.62z"/>
	<path class="st7" d="M723.5,1290.82l2.2,2.2L723.5,1290.82z M914.85,1293.02l2.2,2.2L914.85,1293.02z"/>
	<path class="st5" d="M1209.57,1293.02l2.2,2.2L1209.57,1293.02z"/>
	<path class="st7" d="M921.45,1295.22l2.2,2.2L921.45,1295.22z"/>
	<path class="st6" d="M1172.18,1295.22l2.2,2.2L1172.18,1295.22z"/>
	<path class="st1" d="M1174.38,1297.42l2.2,2.2L1174.38,1297.42z"/>
	<path class="st5" d="M551.94,1299.62l2.2,2.2L551.94,1299.62z M716.9,1299.62l2.2,2.2L716.9,1299.62z"/>
	<path d="M991.83,1299.62c24.87,49.39,43.28,95.85,57.18,149.56c15.51-8.69,13.38-24.05,13.21-39.59
		c-0.4-36.19,13.5-72.23,10.99-107.77c-10.38,3.56-12.23,14.19-14.04,24.19c-4.34,24-4.42,48.77-10.15,72.58
		C1037.09,1370.88,1027.63,1305.35,991.83,1299.62z"/>
	<path class="st7" d="M998.43,1299.62l2.2,2.2L998.43,1299.62z"/>
	<path class="st1" d="M1350.33,1299.62l2.2,2.2L1350.33,1299.62z"/>
	<path class="st7" d="M851.07,1301.82l2.2,2.2L851.07,1301.82z"/>
	<path class="st5" d="M1165.58,1301.82l2.2,2.2L1165.58,1301.82z M580.54,1304.02l2.2,2.2L580.54,1304.02z"/>
	<path class="st7" d="M747.69,1304.02l2.2,2.2L747.69,1304.02z"/>
	<path class="st6" d="M1064.41,1304.02l2.2,2.2L1064.41,1304.02z"/>
	<path class="st1" d="M1440.51,1304.02l2.2,2.2L1440.51,1304.02z"/>
	<path class="st3" d="M477.16,1306.22l2.2,2.2L477.16,1306.22z"/>
	<path class="st6" d="M1062.21,1308.42l2.2,2.2L1062.21,1308.42z M615.73,1312.81l2.2,2.2L615.73,1312.81z"/>
	<path class="st7" d="M903.85,1312.81l2.2,2.2L903.85,1312.81z M917.05,1312.81l2.2,2.2L917.05,1312.81z"/>
	<path class="st5" d="M1174.38,1312.81l2.2,2.2L1174.38,1312.81z M613.53,1315.01l2.2,2.2L613.53,1315.01z"/>
	<path class="st1" d="M1356.93,1315.01l2.2,2.2L1356.93,1315.01z"/>
	<path class="st3" d="M1431.71,1315.01l2.2,2.2L1431.71,1315.01z"/>
	<path class="st6" d="M611.33,1317.21l2.2,2.2L611.33,1317.21z"/>
	<path class="st7" d="M914.85,1317.21l2.2,2.2L914.85,1317.21z"/>
	<path class="st6" d="M1013.82,1317.21l2.2,2.2L1013.82,1317.21z"/>
	
		<radialGradient id="SVGID_00000110467950614082506340000011310980253122417034_" cx="3938.396" cy="-2316.6279" r="43.7793" gradientTransform="matrix(0.3237 0 0 -0.3237 189.9611 591.5791)" gradientUnits="userSpaceOnUse">
		<stop  offset="0" style="stop-color:#FFF68E"/>
		<stop  offset="0.5" style="stop-color:#FAEA82"/>
		<stop  offset="1" style="stop-color:#D6AA4A"/>
	</radialGradient>
	<path style="fill:url(#SVGID_00000110467950614082506340000011310980253122417034_);" d="M1455.91,1317.21l-15.4,26.39l48.39,21.99
		L1455.91,1317.21z"/>
	<path class="st5" d="M1194.17,1319.41l2.2,2.2L1194.17,1319.41z"/>
	<path class="st7" d="M912.65,1321.61l2.2,2.2L912.65,1321.61z"/>
	<path class="st6" d="M1005.02,1323.81l2.2,2.2L1005.02,1323.81z"/>
	<path class="st3" d="M455.17,1326.01l2.2,2.2L455.17,1326.01z"/>
	<path class="st6" d="M631.12,1326.01l2.2,2.2L631.12,1326.01z"/>
	<path class="st4" d="M450.77,1328.21l2.2,2.2L450.77,1328.21z"/>
	<path class="st7" d="M897.25,1328.21l2.2,2.2L897.25,1328.21z"/>
	<path class="st6" d="M1007.22,1328.21l2.2,2.2L1007.22,1328.21z"/>
	<path class="st2" d="M1420.71,1328.21l2.2,2.2L1420.71,1328.21z"/>
	<path class="st6" d="M1009.42,1332.61l2.2,2.2L1009.42,1332.61z M1022.62,1332.61l2.2,2.2L1022.62,1332.61z M1011.62,1337.01
		l2.2,2.2L1011.62,1337.01z M1024.82,1337.01l2.2,2.2L1024.82,1337.01z M892.85,1339.21l2.2,2.2L892.85,1339.21z M903.85,1339.21
		l2.2,2.2L903.85,1339.21z"/>
	<path class="st1" d="M1286.55,1339.21l2.2,2.2L1286.55,1339.21z"/>
	<path class="st6" d="M1027.02,1341.41l2.2,2.2L1027.02,1341.41z"/>
	<path class="st8" d="M1442.71,1343.61l2.2,2.2L1442.71,1343.61z"/>
	<path class="st5" d="M584.94,1345.81l2.2,2.2L584.94,1345.81z"/>
	<path d="M833.47,1348.01l2.2,2.2L833.47,1348.01z"/>
	<path class="st5" d="M1198.57,1348.01l2.2,2.2L1198.57,1348.01z"/>
	<path class="st6" d="M888.46,1350.2l2.2,2.2L888.46,1350.2z"/>
	<path class="st1" d="M1301.95,1350.2l2.2,2.2L1301.95,1350.2z"/>
	<path class="st5" d="M622.33,1352.4l2.2,2.2L622.33,1352.4z"/>
	<path class="st6" d="M837.87,1352.4l2.2,2.2L837.87,1352.4z"/>
	<path class="st1" d="M1310.74,1356.8l2.2,2.2L1310.74,1356.8z M1169.98,1359l2.2,2.2L1169.98,1359z M1174.38,1359l2.2,2.2
		L1174.38,1359z"/>
	<path class="st5" d="M571.74,1361.2l2.2,2.2L571.74,1361.2z"/>
	<path class="st6" d="M884.06,1361.2l2.2,2.2L884.06,1361.2z"/>
	<path class="st5" d="M1207.37,1361.2l2.2,2.2L1207.37,1361.2z M648.72,1370l2.2,2.2L648.72,1370z"/>
	<path class="st6" d="M923.65,1370l2.2,2.2L923.65,1370z M562.94,1372.2l2.2,2.2L562.94,1372.2z"/>
	<path class="st1" d="M1233.76,1372.2l2.2,2.2L1233.76,1372.2z"/>
	<path class="st5" d="M1040.22,1374.4l2.2,2.2L1040.22,1374.4z M657.52,1376.6l2.2,2.2L657.52,1376.6z"/>
	<path class="st1" d="M1216.17,1376.6l2.2,2.2L1216.17,1376.6z"/>
	<path class="st5" d="M1082,1378.8l2.2,2.2L1082,1378.8z"/>
	<path class="st6" d="M661.92,1381l2.2,2.2L661.92,1381z"/>
	<path class="st2" d="M1341.54,1383.2l2.2,2.2L1341.54,1383.2z"/>
	<path class="st5" d="M554.14,1385.4l2.2,2.2L554.14,1385.4z"/>
	<path class="st6" d="M868.66,1385.4l2.2,2.2L868.66,1385.4z"/>
	<path class="st5" d="M1002.83,1385.4l2.2,2.2L1002.83,1385.4z"/>
	<path class="st2" d="M1343.73,1385.4l2.2,2.2L1343.73,1385.4z"/>
	<path class="st5" d="M743.29,1387.59l2.2,2.2L743.29,1387.59z M1044.61,1389.79l2.2,2.2L1044.61,1389.79z M677.31,1391.99l2.2,2.2
		L677.31,1391.99z M1108.4,1391.99l2.2,2.2L1108.4,1391.99z M683.91,1396.39l2.2,2.2L683.91,1396.39z M1095.2,1398.59l2.2,2.2
		L1095.2,1398.59z M798.28,1400.79l2.2,2.2L798.28,1400.79z M1115,1400.79l2.2,2.2L1115,1400.79z M796.08,1405.19l2.2,2.2
		L796.08,1405.19z M705.9,1407.39l2.2,2.2L705.9,1407.39z M734.5,1407.39l2.2,2.2L734.5,1407.39z M1119.39,1407.39l2.2,2.2
		L1119.39,1407.39z M712.5,1409.59l2.2,2.2L712.5,1409.59z M943.44,1411.79l2.2,2.2L943.44,1411.79z"/>
	
		<radialGradient id="SVGID_00000127035826459427809120000012267278750731076015_" cx="2271.4849" cy="-1107.2094" r="40.1184" gradientTransform="matrix(0.2105 0 0 -0.4977 193.8011 899.219)" gradientUnits="userSpaceOnUse">
		<stop  offset="0" style="stop-color:#FFF68E"/>
		<stop  offset="0.5" style="stop-color:#FAEA82"/>
		<stop  offset="1" style="stop-color:#D6AA4A"/>
	</radialGradient>
	<path style="fill:url(#SVGID_00000127035826459427809120000012267278750731076015_);" d="M661.92,1416.19l-4.4,68.18
		C676.85,1463.73,709.08,1420.34,661.92,1416.19z"/>
	<path class="st5" d="M807.08,1416.19l2.2,2.2L807.08,1416.19z"/>
	<path class="st2" d="M1301.95,1424.99l2.2,2.2L1301.95,1424.99z"/>
	<path class="st3" d="M1389.92,1424.99l2.2,2.2L1389.92,1424.99z"/>
	<path class="st5" d="M1064.41,1427.18l2.2,2.2L1064.41,1427.18z"/>
	<path class="st2" d="M1293.15,1429.38l2.2,2.2L1293.15,1429.38z"/>
	<path class="st5" d="M952.24,1433.78l2.2,2.2L952.24,1433.78z M1044.61,1433.78l2.2,2.2L1044.61,1433.78z"/>
	<path class="st3" d="M1277.75,1435.98l2.2,2.2L1277.75,1435.98z"/>
	<path class="st5" d="M1057.81,1442.58l2.2,2.2L1057.81,1442.58z"/>
	<path class="st1" d="M1121.59,1442.58l2.2,2.2L1121.59,1442.58z"/>
	<path class="st2" d="M1264.56,1442.58l2.2,2.2L1264.56,1442.58z"/>
	<path class="st5" d="M802.68,1444.78l2.2,2.2L802.68,1444.78z M1055.61,1444.78l2.2,2.2L1055.61,1444.78z"/>
	<path class="st2" d="M1260.16,1444.78l2.2,2.2L1260.16,1444.78z"/>
	<path class="st5" d="M1005.02,1449.18l2.2,2.2L1005.02,1449.18z"/>
	<path class="st1" d="M1123.79,1449.18l2.2,2.2L1123.79,1449.18z M1141.39,1449.18l2.2,2.2L1141.39,1449.18z"/>
	<path class="st3" d="M675.11,1453.58l2.2,2.2L675.11,1453.58z"/>
	<path class="st5" d="M835.67,1455.78l2.2,2.2L835.67,1455.78z M961.04,1460.18l2.2,2.2L961.04,1460.18z"/>
	<path class="st2" d="M1222.77,1460.18l2.2,2.2L1222.77,1460.18z M1216.17,1462.38l2.2,2.2L1216.17,1462.38z"/>
	<path class="st3" d="M1409.72,1464.57l2.2,2.2L1409.72,1464.57z M1414.12,1464.57l2.2,2.2L1414.12,1464.57z"/>
	<path class="st1" d="M1200.77,1466.77l2.2,2.2L1200.77,1466.77z"/>
	
		<radialGradient id="SVGID_00000000936929344426263710000004860766677071436213_" cx="3922.0847" cy="-2097.6838" r="47.0912" gradientTransform="matrix(0.2736 0 0 -0.383 191.6616 696.4086)" gradientUnits="userSpaceOnUse">
		<stop  offset="0" style="stop-color:#FFF68E"/>
		<stop  offset="0.5" style="stop-color:#FAEA82"/>
		<stop  offset="1" style="stop-color:#D6AA4A"/>
	</radialGradient>
	<path style="fill:url(#SVGID_00000000936929344426263710000004860766677071436213_);" d="M1242.56,1482.17
		c8.47,18.19,27.7,36.91,43.99,48.39l-19.79-61.58L1242.56,1482.17z"/>
	<path class="st1" d="M1150.19,1471.17l2.2,2.2L1150.19,1471.17z M767.49,1475.57l2.2,2.2L767.49,1475.57z"/>
	<path class="st5" d="M903.85,1475.57l2.2,2.2L903.85,1475.57z"/>
	<path class="st3" d="M1246.96,1477.77l2.2,2.2L1246.96,1477.77z"/>
	<path class="st1" d="M923.65,1479.97l2.2,2.2L923.65,1479.97z"/>
	<path class="st3" d="M1251.36,1495.37l2.2,2.2L1251.36,1495.37z M1253.56,1497.57l2.2,2.2L1253.56,1497.57z"/>
	
		<radialGradient id="SVGID_00000077290678775751955740000008239192688386180769_" cx="3548.6353" cy="-1024.9877" r="40.1551" gradientTransform="matrix(0.1925 0 0 -0.5443 194.4123 981.5529)" gradientUnits="userSpaceOnUse">
		<stop  offset="0" style="stop-color:#FFF68E"/>
		<stop  offset="0.5" style="stop-color:#FAEA82"/>
		<stop  offset="1" style="stop-color:#D6AA4A"/>
	</radialGradient>
	<path style="fill:url(#SVGID_00000077290678775751955740000008239192688386180769_);" d="M868.66,1576.74h2.2l19.79-70.38
		l-25.03-4.25l-1.36,19.65L868.66,1576.74z"/>
	<path class="st3" d="M1255.76,1499.77l2.2,2.2L1255.76,1499.77z M1277.75,1508.56l2.2,2.2L1277.75,1508.56z"/>
	
		<radialGradient id="SVGID_00000139286220144621057510000010371985238866042781_" cx="3778.6111" cy="-1630.3236" r="48.7544" gradientTransform="matrix(0.2322 0 0 -0.4511 193.0639 816.8967)" gradientUnits="userSpaceOnUse">
		<stop  offset="0" style="stop-color:#FFF68E"/>
		<stop  offset="0.5" style="stop-color:#FAEA82"/>
		<stop  offset="1" style="stop-color:#D6AA4A"/>
	</radialGradient>
	<path style="fill:url(#SVGID_00000139286220144621057510000010371985238866042781_);" d="M1051.21,1519.56l24.19,70.38
		c5.43-12.58,22.19-61.17,10.3-71.25C1076.5,1510.88,1061.2,1516.92,1051.21,1519.56z"/>
	<path class="st3" d="M1055.61,1517.36l2.2,2.2L1055.61,1517.36z"/>
	<path class="st8" d="M1271.15,1517.36l2.2,2.2L1271.15,1517.36z M1167.78,1526.16l2.2,2.2L1167.78,1526.16z"/>
	<path class="st3" d="M1282.15,1528.36l2.2,2.2L1282.15,1528.36z M1053.41,1530.56l2.2,2.2L1053.41,1530.56z M1284.35,1530.56
		l4.4,4.4L1284.35,1530.56z"/>
	<path class="st4" d="M1286.55,1530.56l2.2,2.2L1286.55,1530.56z"/>
	<path class="st2" d="M1178.78,1534.96l2.2,2.2L1178.78,1534.96z"/>
	<path class="st3" d="M879.66,1537.16l2.2,2.2L879.66,1537.16z"/>
	<path class="st23" d="M1531.73,999.6c-8.7-1.58-15.51-8.06-15.51-14.74c0-6.31,4.04-12.69,20.51-32.33
		c13.14-15.66,11.55-15.25-12.76,3.33c-26.89,20.55-46.14,28.38-72.97,29.66c-12.46,0.6-22.66,0.28-22.66-0.69
		c0-0.98,3.67-4.87,8.16-8.64c4.49-3.78,19.56-22.12,33.49-40.76c25.44-34.04,37.86-45.58,54.2-50.38
		c25.85-7.58,59.14,12.39,66.63,39.97c6.96,25.61-15.63,66.86-40.37,73.73c-5.33,1.48-10.26,2.54-10.98,2.35
		C1538.78,1000.93,1535.29,1000.25,1531.73,999.6L1531.73,999.6z"/>
	<path class="st24" d="M1496.84,1147.05c-8.47-2.35-19.36-11.18-27.28-22.12c-9.44-13.03-16.1-30.85-27.28-73.05
		c-4.9-18.48-9.49-35.51-10.21-37.85c-3.61-11.79,22.09-17.79,53.52-12.49c24.73,4.17,33.82,12.47,38.26,34.92
		c1.68,8.48,3.36,16.58,3.75,18c0.39,1.42,2.21-5.38,4.05-15.11c2.05-10.82,5.6-20.32,9.16-24.45l5.81-6.76l9.43,6.36
		c14.81,9.99,23.19,29.6,23.03,53.88c-0.22,34.36-14.37,61.14-38.23,72.35C1529.04,1146.29,1506.02,1149.59,1496.84,1147.05
		L1496.84,1147.05z"/>
</g>
</svg>
