<svg xmlns="http://www.w3.org/2000/svg" xml:space="preserve" id="Layer_1" x="0" y="0" version="1.1" viewBox="0 0 1024 1024"><style>.st1{fill:#0f0d06}.st2{fill:#0e0b05}.st3{fill:#0d0b05}.st4{fill:#fff}.st5{fill:#0f0e07}.st6{fill:#0f0e08}.st7{fill:#0e0d08}.st8{fill:#010101}.st11{fill:#020202}.st12{fill:#050505}.st13{fill:#0e0d05}</style><g transform="translate(-19 -10) scale(.5857)"><path d="M1029 138c-15 35-10 75-21 110-3 9-11 33-23 32-24-4-11-51-39-51l8 68c-42 5-36-61-53-87-20-31-24 14-23 27l4 27c1 15 2 28 0 44-40-1-26-54-55-62l2 64c-45 0-65-41-84-75-9-14-19-42-39-33 9 40 31 78 33 119 1 11-10 38-24 33-34-12-30-74-58-90-6-3-15-1-21 0 0 33 14 72 25 103 3 7 10 30-5 30-25-1-32-51-58-45 3 13 11 24 16 37 3 8 8 16 9 24 3 18-20 20-31 16-28-8-49-31-69-51-5-5-20-25-29-16-10 10 10 27 16 34 17 19 35 43 43 68 4 11 5 26-6 33-11 8-28-6-37-11-26-18-52-48-86-49l-7 20 21 29 55 61-64-26c2 17 42 37 34 54-4 10-27 10-36 9-33-5-56-29-86-37-27-8-22 13-7 25a472 472 0 0 1 42 37c13 13 25 28 37 42l-63-2v4l61 29-11 44c-18-1-32-5-48-12-11-5-23-13-35-12-15 1-24 14-14 27 15 19 45 30 64 45 8 6 18 16 10 25-17 20-61-5-82 1v5c20 11 61 18 73 40 9 17-17 55-36 53-17-1-32-20-44-30-29-23-61-51-95-67-58-28-116 17-162 45 6 19 29-1 44 3 19 4 34 22 47 37 61 71 113 151 135 242 7 24 17 53-1 74-5 6-12 7-18 12-4 3-3 8 2 10 10 3 25-2 35-4 32-8 69-25 84-57 9-20 12-58 35-66 5 21 28 49 26 71-2 18-22 40-34 54-4 5-14 16-8 23s18-8 22-11c17-16 53-41 63-5 9 32-19 83-33 110-3 8-21 32-14 41 8 9 24-16 28-21 14-18 62-72 88-53 32 24 21 41 9 73-4 9-16 31-8 40 9 8 19 1 24-7 7-15 27-57 48-46 12 7 32 18 39 31 12 20 2 59-1 81-2 12-15 51-4 60 10 8 18-17 21-23 11-21 24-43 40-61 5-7 14-18 24-16 51 10-2 61 19 86 5 6 16 5 22 7l27-69c13 6 33 7 43 18 8 10 10 26 12 37 7 33 11 66 6 99 4 3 11 10 17 7 7-5 8-23 10-31 8-24 20-47 31-70 7-15 27-31 41-11 15 22 9 59 18 83 23-11 26-60 26-83l31 4 18 38 33 94c17-6 11-39 13-55 3-21 8-64 23-80 7-6 19-7 27-10 10 23 15 49 26 70 5 9 15 18 25 13 9-5 9-17 8-26-3-23-8-45-10-68 43-3 69 32 96 62 11 11 20 26 36 30l-23-66-12-61c15-7 49-39 66-35 24 8 43 77 74 60 13-6 7-18 0-27-9-14-36-47-33-64 2-13 23-28 36-28 28 1 78 22 94 45l20-2c-3-39-62-57-71-97l1-12c6-25 21-14 37-8 5 2 15 8 20 2 4-7-4-16-7-21-6-12-11-25-9-38 21 6 34 18 51 30 4 2 13 9 18 5 6-4-2-12-5-15-8-9-31-30-29-44 1-8 16-18 22-24 21-20 43-41 60-64h2c39 46 161 14 145-55-9 2-18 9-28 6-44-15-33-85-82-85-3-45-21-90-43-130-10-18-31-34-39-53-4-10-3-26-4-37 26-4 13-30 4-44-10-16-21-35-35-48-16-17-40-27-38-55 2-26 46-23 54-46-13 0-26 3-40 6-32 5-38-6-23-35 14-25 35-45 54-66 6-7 24-22 15-32-8-8-21 4-28 9-24 16-51 28-79 36-8 3-33 12-36-2-3-20 34-24 29-46-15 3-44 27-59 16-17-13 9-47 11-62 3-16-10-17-19-7l-8 11c-5 6-9 12-13 20-36-21 32-46 20-65-5-7-13 0-17 3-9 8-41 45-48 18-8-30 8-66 16-95 2-7 11-27 2-32-13-8-19 18-22 26-10 23-26 44-45 61-7 5-17 16-27 14-13-4-13-42-13-53 0-6 4-15-2-19-7-6-10 5-12 10-3 16-13 62-37 32-22-27 12-84-32-96l-25 77c-29-6-22-48-15-70l-13-5-8 27c-12 33-28 39-40 2-9-28-6-59-10-88-2-12-3-23-15-29z"/><radialGradient id="SVGID_1_" cx="1523.8" cy="310.2" r="768.2" gradientTransform="matrix(.5857 0 0 -.6135 -18 1079)" gradientUnits="userSpaceOnUse"><stop offset="0" stop-color="#fff68e"/><stop offset=".7" stop-color="#eed26a"/><stop offset="1" stop-color="#d6aa4a"/></radialGradient><path fill="url(#SVGID_1_)" d="M1031 204c-1 63-20 110-90 110l24 99c-26-27-35-66-47-101-8-22-17-45-21-68h-2c1 40 9 79 1 119-4 21-16 38-23 59h-2l13-97c-49 4-91 12-124-35-7-10-12-22-17-33h-2c6 37 38 80 0 111l-20 10 35 53 20 26c-55-37-88-101-116-160h-2c7 47 35 90 43 138 2 17 9 41-6 53l-18-84c-25 14-45 54-79 48-14-2-26-14-39-19 6 20 24 39 13 62-3 8-11 14-16 22l71 26c-13 15-40 3-55-4-29-14-55-32-82-50-15-11-32-26-50-30 11 24 40 45 59 62 16 15 28 32 42 48 13 17 31 35 24 58-23-24-44-41-79-33-13 3-24 11-37 10-25 0-49-13-71-21 13 27 47 42 55 74 5 24-12 54-15 77l75 11v5c-65 17-110-18-170-29v2c41 20 87 52 115 86 11 13 24 27 24 44-12-9-34-34-51-32-13 2-17 17-19 28-5 30-5 62-5 92-13-11-11-26-11-42-16 11-33 24-53 20-20-5-41-30-55-44-28-28-59-55-99-61-21-2-84 1-56 32 3 4 6 7 10 9 15 8 47-2 64-2v2l-55 11c22 47 70 5 97 33-19-5-50-5-69 0l31 40 14 18 52 6v2h-46c3 25 31 18 48 16v2l-37 7c6 13 20 54 34 60 11 5 25-5 34-10-12 22-34 13-22 44l35-18c-7 9-21 16-26 27-6 12 4 34 9 46l35-26-34 37 3 40c30-13 54-34 66-64 5-12 6-28 12-39 5-9 18-7 20-17 6-17-5-31 3-50h3l6 36c22-7 36-42 42-62h4c6 28-19 46-28 70 15 4 43 11 42 31l-55-20 41 93h3c20-31 39-79 68-101 10 32-25 58-38 85 19-5 53-30 71-20-25 11-46 25-64 44-6 7-16 18-16 27s12 21 17 28c19 28 42 56 72 73 11-23 22-45 28-70 3-12 2-27 13-33 11 60-32 127-46 184 41-35 66-91 119-114-1 28-47 43-49 75-1 11 13 17 20 22 22 15 40 31 64 41 9 4 17 11 25 2 15-15 16-45 14-65-1-13-7-32 3-42l15 90-9 106h3c20-52 38-109 79-150 0 28-31 67-42 93 41 19 90 31 134 39 4-27 3-54-5-81-3-12-13-28-6-40 28 59 57 118 57 185h3c0-40 7-81 15-121 1-7 3-37 13-37 11 0 7 18 6 24l-15 81 95-2 33-6-1-34-45-79c17-4 34 27 42 40 29 47 49 107 61 160h2c-5-72-24-139-15-213 21 9 10 63 13 84 0 6-1 24 7 26 8 3 21-4 28-6 26-8 50-20 75-32 10-4 23-9 24-21 2-43-36-55-61-77 22-3 38 12 55 25 25 19 49 41 69 65 12 14 20 32 34 44-7-24-26-46-37-68-21-44-38-91-44-139h2l42 110c22-8 41-35 56-53 6-8 14-15 14-26 37-13-10-43-17-55 25-4 48 21 72 26-11-23-29-53-24-79h4l16 44c38-36 84-72 113-116 40-63 40-142 11-209-7-19-15-45-28-59-20-21-37 14-39 30 9 1 18 5 26 10 30 20 32 56 19 87-5 13-15 25-16 39-1 18 9 36 12 53 5 29-9 60-30 79a90 90 0 0 1-73 24c-12-2-25-13-37-9-19 7-23 37-35 51-6-33 19-52 25-81 2-15-9-40-14-55-3-12-9-44-27-37-11 4-17 17-23 26-16 22-30 48-58 55 10-26 38-49 53-73 31-47 64-128 23-180-12-16-32-27-50-35-24-11-51-15-77-22v-5l31-4-6-48-20 6c0-80 81-124 136-167l-10 29 27 41 56 86-22-2c4 32 11 61 0 92-7 21-24 37-30 58-2 10 3 20 3 30 0 15-5 28-8 42 39-19 46-76 87-90-3-19-11-37-13-57-2-44 6-87-1-130-7-47-28-90-45-134l20 9c4-31 30-47 46-71-25 10-64 41-92 24-20-11-27-36-46-46l-27 106h-2c-12-49 13-95 24-141-33 27-57 61-103 68l64-46 14-22-19-16-48-34 22 4 9-70h-3l-17 24c-10 10-21 25-35 30-25 9-60-21-84-28v101c-22-4-20-26-20-46 0-44-2-86 0-130h-2c-7 49-23 119-70 143 13-22 26-41 34-66 2-7 8-20 0-26-22-17-56-2-74-29-18-26-6-59-18-86z"/><path d="m897 251 2 2-2-2zm-2 6 2 2-2-2z" class="st1"/><path d="m1159 266 2 2-2-2z" class="st2"/><path d="m1020 270 3 2-3-2z" class="st1"/><path d="m1157 275 2 2-2-2z" class="st3"/><path d="m1018 277 2 2-2-2z" class="st1"/><path d="m655 294 3 3-3-3z" class="st4"/><path d="m1007 294 2 3-2-3zm-2 3 2 2-2-2zm51 2 2 2-2-2zm-302 2 2 2-2-2zm306 0 2 2-2-2zm-398 2 2 2-2-2zm108 0 2 2-2-2zm294 0 3 2-3-2z" class="st1"/><path d="m776 310 2 2-2-2zm198 0 2 2-2-2z" class="st5"/><path d="m1322 310 2 2-2-2z" class="st3"/><path d="m1320 314 1 1-1-1z" class="st4"/><path d="m662 314 2 2-2-2zm451 0 2 2-2-2z" class="st1"/><path d="m759 323 2 2-2-2z" class="st5"/><path d="m1317 323 3 2-3-2z" class="st2"/><path d="m673 343 2 2-2-2zm11 0 2 2-2-2zm2 4 2 2-2-2z" class="st5"/><path d="m1012 356-36 158c28-16 33-76 36-105h2c5 25 7 51 17 75 4 9 9 22 20 22l-28-99-11-51z"/><path d="m932 358 3 2-3-2zm-187 5 3 2-3-2zm-10 8 2 3-2-3zm-11 5 2 2-2-2zm281 6 2 3-2-3z" class="st5"/><path d="M796 385c1 56 28 107 18 165 10-7 11-22 11-33 0-27-5-53-5-80h2c8 27 29 80 60 84-4-14-16-25-23-37-18-28-35-83-63-99z"/><path d="m708 387 2 2-2-2z" class="st5"/><path d="m800 387 3 2-3-2z" class="st6"/><path d="m1102 389 2 2-2-2z" class="st1"/><path d="m1003 393 2 3-2-3zm108 0 2 3-2-3z" class="st5"/><path d="m1298 393 2 3-2-3z" class="st1"/><path d="m1108 396 3 2-3-2zm-13 2 2 2-2-2zm11 0 2 2-2-2z" class="st5"/><path d="m809 400 2 2-2-2zm145 2 3 2-3-2z" class="st6"/><path d="m1311 402 2 2-2-2z" class="st3"/><path d="m1095 407 2 2-2-2z" class="st5"/><path d="M1247 409c-24 38-54 91-90 119v2c28-5 57-40 66-66h2c0 39-18 80-2 119h2c12-40 6-87 16-128 3-13 14-34 6-46z"/><path d="m680 413 2 2-2-2z" class="st5"/><path d="m818 415 2 3-2-3zm-121 5 2 2-2-2zm-15 2 2 2-2-2zm50 0 2 2-2-2zm293 0 2 2-2-2zm-18 4 2 3-2-3z" class="st6"/><path d="m1247 426 2 3-2-3z" class="st1"/><path d="m1381 429 2 2-2-2zm-825 2 3 2-3-2z" class="st4"/><path d="m827 431 2 2-2-2z" class="st6"/><path d="m1381 431 2 2-2-2z" class="st2"/><path d="m1229 435 3 2-3-2z" class="st5"/><path d="m750 440 2 2-2-2z" class="st6"/><path d="m1163 440 3 2-3-2z" class="st5"/><path d="m770 444 2 2-2-2z" class="st7"/><path d="m772 446 2 2-2-2z" class="st6"/><path d="m1221 446 2 2-2-2z" class="st5"/><path d="m774 448 2 3-2-3z" class="st8"/><path d="m594 451 2 2-2-2z" class="st5"/><path d="m1364 451 2 2-2-2zm-3 2 3 2-3-2zm-919 4 2 2-2-2z" class="st1"/><path d="m570 457 2 2-2-2z" class="st5"/><path d="m831 459 2 3-2-3z" class="st7"/><path d="m1225 462 2 2-2-2z" class="st5"/><path d="m1331 462 2 2-2-2z" class="st1"/><path d="m1353 462 2 2-2-2z" class="st2"/><path d="m1223 464 2 2-2-2z" class="st5"/><path d="m811 473 3 2-3-2z" class="st7"/><path d="m1366 475 2 2-2-2z" class="st1"/><path d="m822 479 3 2-3-2z" class="st7"/><path d="m1302 481 2 3-2-3z" class="st2"/><path d="m858 484 2 2-2-2z" class="st7"/><path d="m1405 488 3 2-3-2z" class="st1"/><path d="m1524 488 2 2-2-2z" class="st4"/><path d="m862 490 2 2-2-2z" class="st7"/><path d="m1205 490 2 2-2-2z" class="st5"/><path d="m1524 490 2 2-2-2z" class="st2"/><path d="m1515 492 2 3-2-3zm7 0 2 3-2-3z" class="st3"/><path d="m1201 495 2 2-2-2z" class="st5"/><path d="m1520 495 2 2-2-2z" class="st2"/><path d="m851 497 2 2-2-2z" class="st7"/><path d="M1102 497c-13 29-20 56-46 77v4c19 5 32-19 37-35h2c2 15 4 46 20 51l-11-51-2-46z"/><path d="m1412 497 2 2-2-2z" class="st1"/><path d="m1517 497 3 2-3-2z" class="st3"/><path d="M631 499c5 54 78 91 68 150 12-7 9-20 5-31-8-23-22-44-31-66 21 19 52 41 81 28l-46-19-77-62z"/><path d="m1515 499 2 2-2-2z" class="st2"/><path d="m1513 501 2 2-2-2z" class="st3"/><path d="m1375 503 2 3-2-3z" class="st1"/><path d="m1493 503 2 3-2-3z" class="st3"/><path d="m1511 503 2 3-2-3z" class="st2"/><path d="m858 506 2 2-2-2z" class="st7"/><path d="m1192 506 2 2-2-2z" class="st5"/><path d="m1509 506 2 2-2-2z" class="st3"/><path d="m631 508 2 2-2-2zm559 0 2 2-2-2z" class="st6"/><path d="m1506 508 3 2-3-2z" class="st2"/><path d="m647 510 2 2-2-2z" class="st5"/><path d="m1504 510 2 2-2-2z" class="st3"/><path d="m523 512 3 2-3-2z" class="st5"/><path d="m1185 512 3 2-3-2zm-2 2 2 3-2-3z" class="st6"/><path d="m495 517 2 2-2-2z" class="st5"/><path d="m869 517 2 2-2-2z" class="st7"/><path d="M935 517c-7 22-26 64-18 85h4l16-52h2c5 20 11 50 35 52l-35-85h-4z"/><path d="m497 519 2 2-2-2z" class="st6"/><path d="m1495 519 3 2-3-2z" class="st3"/><path d="m499 521 2 2-2-2z" class="st5"/><path d="m570 521 2 2-2-2zm593 0 3 2-3-2z" class="st6"/><path d="m501 523 3 2-3-2z" class="st5"/><path d="m541 523 2 2-2-2z" class="st6"/><path d="m1091 523 2 2-2-2zm13 0 2 2-2-2z" class="st7"/><path d="m1161 523 2 2-2-2z" class="st6"/><path d="m504 525 2 3-2-3z" class="st5"/><path d="m1159 525 2 3-2-3zm-490 5 2 2-2-2z" class="st7"/><path d="m1216 530 2 2-2-2z" class="st6"/><path d="m647 536 2 3-2-3zm437 3 2 2-2-2z" class="st7"/><path d="m576 541 2 2-2-2zm-55 2 2 2-2-2z" class="st6"/><path d="m684 543 2 2-2-2zm130 0 2 2-2-2z" class="st7"/><path d="m1366 543 2 2-2-2z" class="st1"/><path d="m818 547 2 3-2-3zm119 3 2 2-2-2zm158 0 2 2-2-2zm-433 8 2 3-2-3z" class="st7"/><path d="m1474 558 2 3-2-3z" class="st3"/><path d="m691 565 2 2-2-2z" class="st7"/><path d="m1463 565 2 2-2-2z" class="st3"/><path d="m669 567 2 2-2-2zm406 2 3 3-3-3z" class="st7"/><path d="m787 572 11 92h5l-3-66c15 10 34 35 53 26-7-8-18-9-26-16-14-11-21-35-40-36z"/><path d="m684 576 2 2-2-2zm372 2 2 2-2-2zm-379 2 3 3-3-3zm238 0 2 3-2-3z" class="st7"/><path d="m1221 580 2 3-2-3zm4 0 2 3-2-3z" class="st6"/><path d="M1271 585c-23 23-42 39-75 48v5c19 5 38-6 53-16-2 13-19 47-6 55l21-64 7-28z"/><path d="m807 587 2 2-2-2zm-251 2 3 2-3-2zm354 0 3 2-3-2zm205 0 2 2-2-2z" class="st7"/><path d="m1265 589 2 2-2-2z" class="st1"/><path d="m407 594 2 2-2-2z" class="st5"/><path d="m968 594 2 2-2-2z" class="st7"/><path d="m526 596 2 2-2-2z" class="st6"/><path d="m1476 596 2 2-2-2z" class="st3"/><path d="m686 598 2 2-2-2zm9 0 2 2-2-2zm226 0 3 2-3-2zm-382 2 2 2-2-2z" class="st7"/><path d="m1251 605 3 2-3-2zm14 2 2 2-2-2z" class="st6"/><path d="m1403 607 2 2-2-2z" class="st1"/><path d="m400 609 2 2-2-2z" class="st8"/><path d="m818 611 2 2-2-2zm-116 2 2 3-2-3zm131 0 3 3-3-3z" class="st7"/><path d="m407 616 2 2-2-2z" class="st5"/><path d="m1236 616 2 2-2-2z" class="st6"/><path d="m827 618 2 2-2-2zm24 2 2 2-2-2z" class="st7"/><path d="m1245 622 2 2-2-2z" class="st6"/><path d="m838 624 2 3-2-3zm4 3 2 2-2-2zm372 0 2 2-2-2z" class="st7"/><path d="m1355 627 2 2-2-2zm-937 2 2 2-2-2z" class="st5"/><radialGradient id="SVGID_00000112628679526330538100000011298148151594944144_" cx="2897.8" cy="-809.8" r="111.7" gradientTransform="matrix(.4094 0 0 -.2559 187 472)" gradientUnits="userSpaceOnUse"><stop offset="0" stop-color="#fff68e"/><stop offset=".5" stop-color="#faea82"/><stop offset="1" stop-color="#d6aa4a"/></radialGradient><path fill="url(#SVGID_00000112628679526330538100000011298148151594944144_)" d="M1295 728c51-12 106-20 157-9-8-26-28-48-45-68-6-7-14-20-24-21-12-1-22 11-30 17-25 20-46 51-58 81z"/><path d="m1227 633 2 2-2-2z" class="st7"/><path d="m1346 633 2 2-2-2z" class="st5"/><path d="m895 635-13 69c11-9 13-36 15-49l20 22c-2-15-11-31-22-42z"/><path d="m1196 638 3 2-3-2z" class="st7"/><path d="m1245 638 2 2-2-2zm152 2 2 2-2-2z" class="st6"/><path d="m1111 642-42 42 39-29 7 40c8-11 4-42-4-53m-467 7v2c19 19 34 44 46 68 6 13 4 27 18 35-1-26-12-45-22-68 16 9 37 23 55 18v-5c-25-11-44-20-66-38-9-7-19-17-31-12z"/><path d="m1353 646 2 3-2-3zm-447 5 2 2-2-2zm-259 2 2 2-2-2zm261 2 2 2-2-2z" class="st7"/><path d="m1410 655 2 2-2-2z" class="st6"/><path d="m902 657 2 3-2-3z" class="st7"/><path d="m1322 657 2 3-2-3z" class="st6"/><path d="m1432 657 2 3-2-3z" class="st1"/><path d="m433 660 2 2-2-2z" class="st6"/><path d="m1091 660 2 2-2-2zm17 0 3 2-3-2zm130 0 2 2-2-2zm-563 2 2 2-2-2zm220 0 2 2-2-2z" class="st7"/><path d="m1498 662 2 2-2-2z" class="st1"/><path d="m1333 664 2 2-2-2z" class="st6"/><path d="m1093 666 2 2-2-2z" class="st7"/><path d="M497 668c2 19 17 26 31 36 18 14 36 29 50 48 9 12 15 33 27 42-3-33-22-71-53-84v-2c32 6 63 18 95 4v-4l-38-1-112-39z"/><path d="m660 668 2 3-2-3zm418 3 2 2-2-2zm165 0 2 2-2-2zm-555 2 3 2-3-2zm387 0 3 2-3-2z" class="st7"/><path d="m1443 673 2 2-2-2z" class="st1"/><path d="m1306 675 3 2-3-2z" class="st6"/><radialGradient id="SVGID_00000009586869059719238980000002345493168099541948_" cx="4441.9" cy="-228.3" r="50.7" gradientTransform="matrix(.3052 0 0 -.3433 191 626)" gradientUnits="userSpaceOnUse"><stop offset="0" stop-color="#fff68e"/><stop offset=".5" stop-color="#faea82"/><stop offset="1" stop-color="#d6aa4a"/></radialGradient><path fill="url(#SVGID_00000009586869059719238980000002345493168099541948_)" d="m1520 675 4 53 48 6c-8-21-31-51-52-59z"/><path d="m917 677 2 2-2-2z" class="st7"/><path d="m987 677-19 38 22-25 13 22-16-35z"/><path d="m1240 677 3 2-3-2z" class="st7"/><path d="m1520 677 2 2-2-2z" class="st3"/><path d="m666 679 3 3-3-3zm31 0 2 3-2-3z" class="st7"/><path d="m1430 679 2 3-2-3z" class="st1"/><path d="m429 682 2 2-2-2z" class="st6"/><path d="m981 684 2 2-2-2zm-273 2 2 2-2-2zm-13 4 2 3-2-3zm422 0 2 3-2-3zm422 0 3 3-3-3zm-549 3 2 2-2-2zm552 0 2 2-2-2zm-975 2 3 2-3-2zm977 0 2 2-2-2zm-1025 2 2 2-2-2zm479 0 3 2-3-2z" class="st7"/><path d="m424 701 3 3-3-3z" class="st6"/><path d="m526 701 2 3-2-3z" class="st7"/><path d="m1309 701 2 3-2-3z" class="st3"/><path d="m884 704 2 2-2-2zm92 2 3 2-3-2z" class="st7"/><path d="m422 710 2 2-2-2z" class="st6"/><path d="m567 710 3 2-3-2zm130 0 2 2-2-2zm-11 2 2 3-2-3z" class="st7"/><path d="m1302 712 2 3-2-3z" class="st3"/><path d="m1397 712 2 3-2-3z" class="st6"/><path d="m1436 715 2 2-2-2z" class="st3"/><path d="m548 719 2 2-2-2zm143 2 2 2-2-2z" class="st7"/><path d="m1568 726 2 2-2-2z" class="st3"/><path d="m1199 730-38 29 33-18-4 26c9-6 13-27 9-37z"/><path d="M1419 862c16-8 24-27 29-44 5-21 12-76-14-87-15-5-39 1-55 1-14 0-45-2-56 9-10 9-2 47 5 57 8 10 26 12 38 17 22 11 40 25 53 47z" class="st4"/><path d="m1480 732 2 2-2-2z" class="st1"/><path d="m1559 732 2 2-2-2zm13 0-2 5 2-5z" class="st3"/><path d="m1441 734 2 3-2-3z" class="st11"/><path d="m1572 734 3 3-3-3z" class="st4"/><path d="m433 737 2 2-2-2z" class="st6"/><path d="m1185 737 3 2-3-2z" class="st7"/><path d="m374 739 2 2-2-2z" class="st5"/><path d="m1320 739 2 2-2-2zm123 0 2 2-2-2zm-737 2 2 2-2-2zm486 0 2 2-2-2z" class="st7"/><path d="m387 743 2 2-2-2z" class="st6"/><path d="m1174 743 3 2-3-2z" class="st7"/><path d="m1445 743 2 2-2-2z" class="st11"/><path d="M1520 743v20c40-14 49 44 6 42l9 50c30-13 43-80 19-105-7-7-24-6-34-7z" class="st4"/><path d="m361 745 2 3-2-3z" class="st5"/><path d="m589 748 3 2-3-2zm592 0 2 2-2-2zm110 0 2 2-2-2z" class="st7"/><path d="m1447 748 2 2-2-2zm106 0 2 2-2-2z" class="st11"/><path d="m367 750 2 2-2-2z" class="st5"/><path d="m1287 750 2 2-2-2zm-583 2 2 2-2-2z" class="st7"/><path d="M1408 752c-5 5-12 8-15 14-23 39 65 40 40-3l-12-11-13 7v-7z"/><path d="M1410 752v2h9l-9-2z" class="st11"/><path d="m1449 752 3 2-3-2z" class="st8"/><path d="m374 754 2 2-2-2z" class="st5"/><path d="M1402 756v1-1z" class="st11"/><path d="m1405 755 1 1-1-1zm3 1v3l11-3h-11z" class="st8"/><path d="m1423 754 2 2-2-2z" class="st11"/><path d="m1399 756 2 3-2-3z" class="st8"/><path d="m1427 756 3 3-3-3z" class="st12"/><path d="m380 759 3 2-3-2z" class="st5"/><path d="m1397 759 2 2-2-2z" class="st8"/><path d="m1526 759 7 4v-2l-7-2z" class="st11"/><path d="m1528 759 3 2-3-2z" class="st12"/><path d="m1531 759 2 2-2-2z" class="st8"/><path d="m1535 759 2 2-2-2z" class="st11"/><path d="m1537 759 2 2-2-2z" class="st8"/><path d="m596 761 2 2-2-2z" class="st7"/><path d="M946 761c0 11-3 22 8 28v-22l27 9-35-15z"/><path d="m950 761 2 2-2-2z" class="st7"/><path d="m1522 761 2 2-2-2z" class="st11"/><path d="m1524 761 4 4v-4h-4zm11 0 2 2-2-2z" class="st8"/><path d="m957 763 2 2-2-2z" class="st7"/><path d="m1392 763 2 2-2-2z" class="st8"/><path d="m1515 763 2 2-2-2z" class="st6"/><path d="m1517 763 3 2-3-2z" class="st12"/><path d="m1080 792 11-20 13 9c-10-26-24-8-24 11z"/><path d="m1434 765 2 2-2-2zm81 0 2 2-2-2z" class="st8"/><path d="M814 767c4 15 10 27 22 36l-14-29 27 2c-7-12-23-9-35-9z"/><path d="m844 767 3 3-3-3zm110 0 3 3-3-3z" class="st7"/><path d="m1513 767 2 3-2-3z" class="st4"/><path d="m396 770 2 2-2-2z" class="st6"/><path d="m1097 770 3 2-3-2z" class="st7"/><path d="m1511 770 2 2-2-2z" class="st4"/><path d="m963 772 2 2-2-2z" class="st7"/><path d="m702 781 30 37-17-31 26-4-2-9-37 7z"/><path d="m822 774 3 2-3-2z" class="st7"/><path d="m1436 774 2 2-2-2z" class="st12"/><path d="M1509 774v7h2l-2-7z" class="st4"/><path d="m816 776 2 2-2-2z" class="st7"/><path d="m1509 781 2 2-2-2z" class="st12"/><path d="m603 783 2 2-2-2zm99 0 2 2-2-2z" class="st7"/><path d="M1509 783v6h2l-2-6z" class="st4"/><path d="m1432 786 1 2-1-2zm123-1 2 2-2-2z" class="st8"/><path d="m598 787 2 2-2-2zm350 0 2 2-2-2zm-528 2 2 3-2-3zm402 0 3 3-3-3z" class="st7"/><path d="m1394 789 3 3-3-3z" class="st12"/><path d="m422 792 2 2-2-2z" class="st6"/><path d="m1511 792 2 2-2-2z" class="st4"/><path d="m1425 794 2 2-2-2z" class="st8"/><path d="m1511 794 2 2-2-2z" class="st12"/><path d="m1403 796 2 2-2-2z" class="st11"/><path d="m1405 796 3 2-3-2zm15 1h1-1z" class="st8"/><path d="m1513 796 2 2-2-2z" class="st4"/><path d="m1549 797 1 2-1-2z" class="st8"/><path d="m1550 796 3 2-3-2z" class="st12"/><path d="m429 798 2 2-2-2z" class="st8"/><path d="m1412 798 2 2-2-2z" class="st12"/><path d="m1515 798 2 2-2-2z" class="st4"/><path d="m1328 800 3 3-3-3z" class="st8"/><path d="m1517 800 3 3-3-3z" class="st4"/><path d="m1522 800 2 3-2-3z" class="st8"/><path d="M479 842v5l64 22c-1-17-23-22-37-25l44-39c-24-3-52 25-71 37z"/><path d="m1520 803 2 2-2-2z" class="st12"/><path d="m1522 803 2 2-2-2z" class="st4"/><path d="m1524 803 2 2-2-2z" class="st11"/><path d="M1533 803v2h6l-6-2z" class="st8"/><path d="m435 805 3 2-3-2z" class="st6"/><path d="m1449 805 3 2-3-2zm84 0 2 2-2-2z" class="st7"/><path d="m1346 807 2 2-2-2z" class="st8"/><path d="M572 833v5l48 17 29 20c-3-23-28-27-44-39 20-4 48-5 57-27l-90 24z"/><path d="m1304 811 2 3-2-3z" class="st7"/><path d="m1357 811 2 3-2-3z" class="st8"/><path d="m521 814 2 2-2-2zm123 2 3 2-3-2zm14 0 2 2-2-2zm903 0 3 2-3-2zm-1115 2 3 2-3-2z" class="st7"/><path d="m1561 818 3 2-3-2z" class="st11"/><path d="m510 820 2 2-2-2zm143 0 2 2-2-2zm792 2 2 3-2-3zm83 0 3 3-3-3zm-1024 3 2 2-2-2z" class="st7"/><path d="m1467 825 2 2-2-2zm-1256 4 2 2-2-2z" class="st1"/><path d="m1528 829 3 2-3-2z" class="st8"/><path d="m438 833 2 3-2-3z" class="st7"/><path d="m882 849 6-16c-9 2-16 9-6 16z"/><path d="m488 836 2 2-2-2z" class="st7"/><path d="m224 838 2 2-2-2z" class="st1"/><path d="m1370 838 2 2-2-2z" class="st6"/><path d="m609 840 2 2-2-2z" class="st7"/><path d="m1531 840 2 2-2-2z" class="st8"/><path d="m444 842 2 2-2-2z" class="st7"/><path d="m1377 842 2 2-2-2z" class="st5"/><path d="m1436 842 2 2-2-2z" class="st7"/><path d="m112 844 2 3-2-3z" class="st2"/><path d="m233 844 2 3-2-3z" class="st1"/><path d="m391 844 3 3-3-3z" class="st6"/><path d="m1548 844 2 3-2-3z" class="st11"/><path d="m625 847 2 2-2-2z" class="st7"/><path d="m961 847-2 15c7-4 8-8 6-15h-4z"/><path d="m965 847 3 2-3-2z" class="st7"/><path d="m1053 862 7-15c-9 2-16 8-7 15z"/><path d="m1434 847 2 2-2-2z" class="st8"/><path d="m1546 847 2 2-2-2z" class="st11"/><path d="m614 851 2 2-2-2z" class="st7"/><path d="m1412 851 2 2-2-2z" class="st8"/><path d="m1456 851 2 2-2-2z" class="st5"/><path d="m1542 851 2 2-2-2zm-3 2 3 2-3-2z" class="st8"/><path d="m638 855 2 3-2-3z" class="st7"/><path d="m248 858 3 2-3-2z" class="st1"/><path d="m1416 858 3 2-3-2z" class="st7"/><path d="m158 860 2 2-2-2z" class="st2"/><path d="m963 860 2 2-2-2zm86 0 2 2-2-2z" class="st7"/><path d="M1119 875v9l22-15-22 6z"/><path d="m640 871 2 2-2-2zm488 0 2 2-2-2zm11 0 2 2-2-2z" class="st7"/><path d="M1225 871v26c8-8 8-18 0-26z"/><path d="m1517 871 3 2-3-2z" class="st1"/><path d="m1608 871 2 2-2-2z" class="st3"/><path d="m1126 873 2 2-2-2zm11 0 2 2-2-2zm86 0 2 2-2-2z" class="st7"/><path d="m1443 873 2 2-2-2z" class="st5"/><path d="m1506 875 3 2-3-2z" class="st1"/><path d="m1124 882 2 2-2-2zm-315 2 2 2-2-2z" class="st7"/><path d="m792 915 26 6-15-14 8-21c-10 6-17 17-19 29z"/><path d="m1520 886 2 2-2-2z" class="st13"/><radialGradient id="SVGID_00000130628900316439441290000001416561700100158385_" cx="3455.5" cy="-1603.1" r="124.4" gradientTransform="matrix(.3828 0 0 -.2737 188 503)" gradientUnits="userSpaceOnUse"><stop offset="0" stop-color="#fff68e"/><stop offset=".5" stop-color="#faea82"/><stop offset="1" stop-color="#d6aa4a"/></radialGradient><path fill="url(#SVGID_00000130628900316439441290000001416561700100158385_)" d="M1430 983v2c55 7 80-19 120-50-5 15-34 35-34 50 1 16 26 17 37 13 20-8 34-31 38-52 10-44-48-80-84-52-31 24-45 65-77 89z"/><path d="m163 891 2 2-2-2z" class="st8"/><path d="M394 935c2 16 19 7 30 6 17-1 48 5 58 20l15-2c-4-25-40-25-59-27 14-14 35-19 39-41l-83 44z"/><path d="m1592 891 2 2-2-2z" class="st3"/><path d="m286 893 2 2-2-2z" class="st5"/><path d="m1619 895 2 2-2-2z" class="st3"/><path d="m226 897 3 2-3-2z" class="st1"/><path d="m798 897 2 2-2-2zm-338 2 2 3-2-3zm340 3 3 2-3-2z" class="st7"/><path d="m301 906 2 2-2-2z" class="st5"/><path d="m451 906 2 2-2-2zm17 0 3 2-3-2z" class="st7"/><path d="m167 908 2 2-2-2z" class="st2"/><path d="m902 908-25 31 31 11-22-13c5-10 23-18 16-29z"/><path d="m1586 908 2 2-2-2z" class="st13"/><path d="m358 910 3 3-3-3z" class="st5"/><path d="m444 910 2 3-2-3zm345 0 3 3-3-3z" class="st7"/><path d="m310 913 2 2-2-2zm44 0 2 2-2-2z" class="st5"/><path d="m460 915 2 2-2-2zm248 0 2 2-2-2z" class="st7"/><path d="m710 915-26 24c10 3 34 17 42 7l-29-11 13-20zm570 0 31 24v4l-29 16c15-2 28-6 40-16-9-14-26-25-42-28z"/><path d="m317 917 2 2-2-2z" class="st5"/><path d="m1590 917 2 2-2-2z" class="st8"/><path d="m1627 917 3 2-3-2zm-1451 2 2 2-2-2z" class="st3"/><path d="m888 919 3 2-3-2zm11 0 3 2-3-2zm394 0 2 2-2-2z" class="st7"/><path d="m1485 919 2 2-2-2zm105 0 2 2-2-2z" class="st13"/><path d="m699 921 3 3-3-3zm9 0 2 3-2-3zm178 0 2 3-2-3z" class="st7"/><path d="m180 924 2 2-2-2z" class="st2"/><path d="M574 924c-13 29-34 54-57 76-14 14-35 26-40 44l97-20 51-10c-31-22-84 2-113 15 20-40 60-56 69-103l-3-2h-4z"/><path d="m706 924 2 2-2-2zm178 0 2 2-2-2zm405 0 2 2-2-2zm-847 2 2 2-2-2z" class="st7"/><path d="m976 946 14 2v-22c-10 3-11 11-14 20z"/><path d="m411 928 2 2-2-2z" class="st6"/><path d="m1295 928 3 2-3-2zm-725 2 2 2-2-2z" class="st7"/><path d="m187 932 2 3-2-3z" class="st2"/><path d="m446 932 3 3-3-3zm440 3 2 2-2-2z" class="st7"/><path d="m1592 935 2 2-2-2z" class="st8"/><path d="m1317 937 3 2-3-2z" class="st6"/><path d="m1458 937 2 2-2-2z" class="st5"/><path d="m708 939 2 2-2-2z" class="st7"/><path d="m1542 939 2 2-2-2z" class="st1"/><path d="m693 941 2 2-2-2zm283 0 3 2-3-2z" class="st7"/><path d="m1080 941 2 24c10-5 17-13 20-24l-16 11-6-11z"/><path d="m488 943 2 3-2-3zm590 0 2 3-2-3zm17 0 2 3-2-3z" class="st7"/><path d="m1320 943 2 3-2-3z" class="st6"/><path d="m1546 943 2 3-2-3z" class="st13"/><path d="m196 946 2 2-2-2z" class="st2"/><path d="m706 946 2 2-2-2zm387 0 2 2-2-2zm205 2 2 2-2-2z" class="st7"/><path d="m1460 952 2 2-2-2z" class="st13"/><path d="m1588 952 2 2-2-2z" class="st8"/><path d="m1638 954 3 3-3-3z" class="st3"/><path d="m1586 959 2 2-2-2z" class="st8"/><path d="m567 961 3 2-3-2z" class="st7"/><path d="m255 963 2 2-2-2z" class="st2"/><path d="m1513 965 2 3-2-3z" class="st11"/><path d="m1447 968 2 2-2-2z" class="st3"/><path d="m1511 968 2 2-2-2zm-66 2 2 2-2-2z" class="st13"/><path d="m770 987 4-15c-9 3-15 9-4 15z"/><path d="m211 974 2 2-2-2z" class="st1"/><path d="m763 974 2 2-2-2zm-224 2 2 2-2-2z" class="st7"/><path d="m1493 976 2 2-2-2z" class="st13"/><path d="m537 979 2 2-2-2z" class="st7"/><path d="m1575 979 2 2-2-2zm-93 2 2 2-2-2z" class="st8"/><path d="m1572 981 3 2-3-2z" class="st13"/><path d="m1163 985-2 31-20-13c2 13 12 19 25 22l2-40h-5z"/><path d="M1463 985v2h6l-6-2z" class="st8"/><path d="M620 1053c15 0 65 2 73-9l-49-6 27-51c-16 5-44 51-51 66m178 192c17-10 38-38 46-55-17 5-25 22-37 35l-7-46c52-5 75-61 105-95 18-20 41-29 65-42-14-16-33 1-46 11-35 27-55 60-86 90l17-46h-2c-9 23-21 48-44 60l9-31h-2c-9 22-20 33-44 33l22-51h-2l-29 49-9-3 22-41h-2c-11 17-23 43-46 37l20-37c-11 8-16 29-29 34-6 2-17-2-15-10 3-10 20-20 27-29 22-29 40-78 74-96 27-15 69 4 99 4 17 0 36-6 42-24-14-2-28 7-42 7-37 0-98-18-130 7-29 23-30 53-48 82-9 15-25 24-38 34-4 4-13 10-11 17 2 9 17 14 24 17 17 8 35 14 53 17 10 2 24 2 32 8 15 11 10 47 12 64z"/><path d="m1559 994 2 2-2-2zm-37 2 2 2-2-2zm31 0 2 2-2-2z" class="st8"/><path d="m387 998-2 13 9-13h-7z"/><path d="m906 998 2 2-2-2z" class="st7"/><path d="m1531 998 2 2-2-2z" class="st8"/><path d="m1168 1001 2 2-2-2z" class="st7"/><radialGradient id="SVGID_00000078008610580115652920000008425176050873302718_" cx="4074.7" cy="-1483.4" r="133" gradientTransform="matrix(.3229 0 0 -.3244 190 593)" gradientUnits="userSpaceOnUse"><stop offset="0" stop-color="#fff68e"/><stop offset=".5" stop-color="#faea82"/><stop offset="1" stop-color="#d6aa4a"/></radialGradient><path fill="url(#SVGID_00000078008610580115652920000008425176050873302718_)" d="M1528 1062c-5-15-2-33-12-46-13-17-41-16-60-15-7 0-18-1-22 5-5 8 4 26 6 34 9 33 16 78 45 101 18 14 56 5 72-11 25-25 32-83 6-109-31-34-31 25-35 41z"/><path d="m229 1003 2 2-2-2z" class="st1"/><path d="m776 1003 2 2-2-2z" class="st7"/><path d="m435 1005 3 2-3-2z" class="st6"/><path d="m510 1005 2 2-2-2zm152 0 2 2-2-2z" class="st7"/><path d="m391 1007 3 2-3-2z" class="st6"/><path d="m446 1007 3 2-3-2zm62 0 2 2-2-2zm303 0 3 2-3-2zm-305 2 2 2-2-2z" class="st7"/><path d="m389 1011 2 3-2-3z" class="st6"/><path d="m649 1011 2 3-2-3zm118 0 3 3-3-3z" class="st7"/><path d="m924 1011 2 3-2-3z" class="st2"/><path d="m1553 1011 2 3-2-3z" class="st7"/><radialGradient id="SVGID_00000093868575613417643690000006684084548565635715_" cx="4087.1" cy="-1775" r="1311.7" gradientTransform="matrix(.3207 0 0 -.3267 190 597)" gradientUnits="userSpaceOnUse"><stop offset="0" stop-color="#fff68e"/><stop offset=".5" stop-color="#faea82"/><stop offset="1" stop-color="#d6aa4a"/></radialGradient><path fill="url(#SVGID_00000093868575613417643690000006684084548565635715_)" d="m1665 1014-12 55-8 28 15 11-4-20h2c10 25 21 29 46 29l-15-33c10 12 14 28 31 31l-16-29c15 16 21 26 42 16v-5c-36-17-40-76-81-83z"/><path d="m1313 1031 7-15c-9 3-14 8-7 15z"/><path d="m644 1018 3 2-3-2z" class="st7"/><path d="m1517 1018 3 2-3-2z" class="st13"/><path d="m789 1020 3 2-3-2z" class="st6"/><path d="m1434 1020 2 2-2-2z" class="st8"/><path d="m1641 1020 2 2-2-2z" class="st3"/><path d="m574 1022 2 3-2-3z" class="st7"/><path d="m787 1022 2 3-2-3zm-400 3 2 2-2-2zm9 0 2 2-2-2zm389 0 2 2-2-2z" class="st6"/><path d="m647 1027 2 2-2-2zm105 0 2 2-2-2z" class="st7"/><path d="m424 1029 3 2-3-2z" class="st6"/><path d="m1383 1029 3 2-3-2z" class="st5"/><path d="m1528 1029 3 2-3-2z" class="st8"/><path d="m422 1033 2 3-2-3z" class="st6"/><path d="m778 1033 3 3-3-3z" class="st5"/><path d="m1016 1033 24 27 11-27-11 18-24-18zm222 0-2 33-22-13c-1 15 21 31 33 38l-4-58h-5z"/><path d="m629 1038 2 2-2-2zm37 0 3 2-3-2zm-39 2 2 2-2-2z" class="st7"/><path d="m1377 1040 2 2-2-2z" class="st5"/><path d="m288 1044 2 3-2-3z" class="st1"/><path d="m427 1047 2 2-2-2z" class="st6"/><path d="m620 1047 2 2-2-2z" class="st7"/><path d="m930 1047 2 2-2-2z" class="st1"/><path d="m1372 1047 3 2-3-2zm16 2 2 2-2-2z" class="st5"/><path d="m1029 1051 2 2-2-2zm675 0 3 2-3-2zm-965 2 2 2-2-2z" class="st7"/><path d="m1368 1053 2 2-2-2z" class="st5"/><path d="m268 1055 2 3-2-3zm651 0 2 3-2-3z" class="st1"/><path d="m937 1055 2 3-2-3z" class="st7"/><path d="m262 1058 2 2-2-2z" class="st1"/><path d="m1034 1058 2 2-2-2zm189 0 2 2-2-2z" class="st7"/><path d="m1379 1062 2 2-2-2z" class="st5"/><path d="m921 1066 3 3-3-3z" class="st7"/><path d="m262 1069 2 2-2-2z" class="st1"/><path d="m1447 1069 2 2-2-2zm-939 2 2 2-2-2z" class="st7"/><path d="M642 1071c-7 33-30 62-51 88-10 12-26 24-30 39 36-10 77-47 116-44-10-19-57 8-74 11 14-21 33-39 42-63 4-10 7-24-3-31z"/><path d="m754 1071 2 2-2-2z" class="st5"/><path d="m897 1071 2 2-2-2z" class="st7"/><path d="m288 1073 2 2-2-2zm9 0 2 2-2-2z" class="st1"/><path d="m640 1075 2 2-2-2z" class="st7"/><path d="m1350 1075 3 2-3-2z" class="st5"/><path d="m1449 1077 3 3-3-3zm128 3 2 2-2-2z" class="st8"/><path d="m1722 1080 2 2-2-2z" class="st6"/><path d="m904 1082 2 2-2-2z" class="st7"/><path d="m435 1084 3 2-3-2z" class="st6"/><path d="m279 1086 2 2-2-2z" class="st1"/><path d="m882 1086 2 2-2-2z" class="st7"/><path d="m277 1088 2 3-2-3z" class="st1"/><path d="m1240 1088 3 3-3-3z" class="st7"/><path d="M1133 1124c-10-10-19-22-33-20l41 50 11-63c-16 2-16 19-19 33z"/><path d="m1696 1091 2 2-2-2z" class="st5"/><path d="m409 1093 2 2-2-2zm46 0 2 2-2-2z" class="st6"/><path d="m926 1113-2-11h-7l2 28c13-2 26-25 29-37l-22 20z"/><path d="m1575 1093 2 2-2-2z" class="st8"/><path d="m493 1095 2 2-2-2zm382 0 2 2-2-2zm18 0 2 2-2-2zm259 0 3 2-3-2z" class="st7"/><path d="m1355 1095 2 2-2-2z" class="st5"/><path d="m1746 1097 2 2-2-2z" class="st3"/><path d="m715 1099 2 3-2-3z" class="st7"/><path d="m1643 1099 2 3-2-3z" class="st2"/><path d="m510 1102 2 2-2-2zm119 0 2 2-2-2z" class="st7"/><path d="M795 1103v2-2z"/><path d="m1346 1104 2 2-2-2z" class="st5"/><path d="m1590 1104 2 2-2-2zm68 0 2 2-2-2z" class="st3"/><path d="m642 1106 2 2-2-2zm150 0 2 2-2-2zm-167 4 2 3-2-3zm943 0 2 3-2-3z" class="st7"/><path d="m1588 1110 2 3-2-3z" class="st3"/><path d="m1707 1110 2 3-2-3z" class="st1"/><path d="m319 1113 2 2-2-2z"/><path d="m699 1113 3 2-3-2z" class="st7"/><path d="m1328 1113 3 2-3-2z" class="st5"/><path d="m314 1115 3 2-3-2zm5 0 2 2-2-2z" class="st1"/><path d="m772 1115 2 2-2-2z" class="st6"/><path d="m862 1115 2 2-2-2zm704 0 2 2-2-2zm-433 4 2 2-2-2zm334 0 2 2-2-2z" class="st7"/><path d="m356 1121 2 3-2-3z" class="st5"/><path d="m855 1124 3 2-3-2zm286 0 3 2-3-2z" class="st7"/><path d="m495 1126 2 2-2-2z" class="st6"/><path d="m735 1126 2 2-2-2z" class="st2"/><path d="m763 1126 2 2-2-2z" class="st7"/><path d="m783 1126 2 2-2-2z" class="st6"/><path d="m871 1126 2 2-2-2z" class="st7"/><path d="m1597 1126 2 2-2-2z" class="st3"/><path d="m680 1128 2 2-2-2zm134 0 2 2-2-2z" class="st7"/><path d="m1007 1128-11 29h-2l-18-25 16 51h2c6-15 27-42 13-55z"/><path d="m1122 1128 2 2-2-2z" class="st7"/><path d="m781 1130 2 2-2-2z" class="st6"/><path d="m1443 1130 2 2-2-2z" class="st1"/><path d="m704 1132 2 3-2-3z" class="st3"/><path d="m1003 1132 2 3-2-3z" class="st7"/><path d="m429 1135 2 2-2-2z" class="st6"/><path d="m774 1135 2 2-2-2z" class="st5"/><path d="m814 1135 2 2-2-2zm19 0 3 2-3-2z" class="st7"/><path d="m299 1137 2 2-2-2z" class="st1"/><path d="m838 1137 2 2-2-2zm642 0 2 2-2-2zm-875 2 2 2-2-2zm877 0 2 2-2-2z" class="st7"/><path d="m292 1141 3 2-3-2z" class="st1"/><path d="m730 1141 2 2-2-2z" class="st3"/><path d="m759 1141 2 2-2-2z" class="st1"/><path d="m838 1141 2 2-2-2z" class="st7"/><path d="m1245 1143 13 73c-14-12-57-69-75-48 41 13 58 60 93 81l-11-42-14-66-6 2z"/><path d="m1485 1141 2 2-2-2z" class="st7"/><path d="m1526 1143 2 3-2-3z" class="st8"/><path d="m1581 1143 2 3-2-3z" class="st2"/><path d="m286 1146 2 2-2-2z" class="st3"/><path d="m343 1146 2 2-2-2z" class="st5"/><path d="m614 1146 2 2-2-2z" class="st7"/><path d="m721 1146 2 2-2-2zm7 0 2 2-2-2z" class="st3"/><path d="m767 1146 3 2-3-2z" class="st2"/><path d="m1495 1146 3 2-3-2z" class="st8"/><path d="m1579 1146 2 2-2-2z" class="st3"/><path d="m598 1148 2 2-2-2z" class="st7"/><path d="m717 1148 2 2-2-2zm31 0 2 2-2-2z" class="st3"/><path d="m457 1150 3 2-3-2z" class="st6"/><path d="m816 1152 2 2-2-2z" class="st5"/><path d="m336 1154 3 3-3-3z" class="st1"/><path d="m761 1154 2 3-2-3z" class="st2"/><path d="m811 1154 3 3-3-3z" class="st5"/><path d="m631 1157 2 2-2-2z" class="st7"/><path d="m1471 1157 2 2-2-2z" class="st1"/><path d="m710 1159 2 2-2-2z" class="st7"/><path d="M1361 1159c-11 27 16 56 27 81-29-15-54-39-88-39v8c49 5 75 55 114 77 0-41-35-88-48-127h-5z"/><path d="m1427 1159 3 2-3-2z" class="st1"/><path d="m618 1161 2 2-2-2z" class="st7"/><path d="m1480 1161 2 2-2-2z" class="st1"/><path d="m1564 1161 2 2-2-2z" class="st2"/><path d="m836 1163 2 2-2-2z" class="st7"/><path d="m1561 1163 3 2-3-2z" class="st3"/><path d="m495 1165 2 3-2-3zm752 0 2 3-2-3z" class="st6"/><path d="m1559 1165 2 3-2-3z" class="st2"/><path d="m493 1168 2 2-2-2z" class="st6"/><path d="m737 1168 2 2-2-2zm92 0 2 2-2-2z" class="st7"/><path d="m1441 1168 2 2-2-2z" class="st1"/><path d="m490 1170 3 2-3-2zm-2 2 2 2-2-2z" class="st6"/><path d="m996 1172 2 2-2-2z" class="st7"/><path d="m486 1174 2 2-2-2z" class="st6"/><path d="m576 1174 2 2-2-2z" class="st7"/><path d="m1258 1176 2 3-2-3z" class="st6"/><path d="m1359 1183 2 2-2-2z" class="st5"/><path d="m477 1185 2 2-2-2z" class="st6"/><path d="m587 1185 2 2-2-2zm-4 2 2 3-2-3z" class="st7"/><path d="m915 1192-16 2c6 12 15 22 19 35 5 15 2 34 17 42 7-15 23-41 19-57-12 6-18 19-19 33h-3l-17-55z"/><path d="m471 1194 2 2-2-2z" class="st6"/><path d="M710 1194c0 43-6 84-17 125 15 1 23-15 31-26 17-22 33-46 59-57v-2c-26-4-59 35-68 57h-3c8-30 15-68 3-97h-5z"/><path d="m842 1194 2 2-2-2z" class="st7"/><path d="m1476 1194 2 2-2-2z" class="st2"/><path d="m1528 1194 3 2-3-2z" class="st3"/><path d="m1084 1242-50-35c2 9 10 12 16 18 13 12 25 41 43 44l4-73c-17 7-13 31-13 46z"/><path d="m1366 1196 2 2-2-2z" class="st5"/><path d="m1526 1196 2 2-2-2z" class="st2"/><path d="m917 1198 2 3-2-3z" class="st7"/><path d="m1254 1201 2 2-2-2z" class="st6"/><path d="m904 1203 2 2-2-2z" class="st7"/><path d="m1229 1203 3 2-3-2zm16 2 2 2-2-2z" class="st6"/><path d="m1247 1207 2 2-2-2z" class="st5"/><path d="m827 1209 2 3-2-3zm215 0 3 3-3-3z" class="st7"/><path d="m1339 1212 3 2-3-2z" class="st6"/><path d="m475 1214 2 2-2-2z" class="st5"/><path d="m954 1214 3 2-3-2zm-134 4 2 2-2-2z" class="st7"/><path d="m1243 1218 2 2-2-2z" class="st6"/><path d="m1388 1218 2 2-2-2z" class="st1"/><path d="m1493 1218 2 2-2-2z" class="st2"/><path d="m1504 1218 2 2-2-2z" class="st8"/><path d="m479 1220 3 3-3-3z" class="st5"/><path d="m1502 1220 2 3-2-3z" class="st2"/><path d="m1049 1223 2 2-2-2z" class="st7"/><path d="m1359 1223 2 2-2-2z" class="st1"/><path d="m1500 1223 2 2-2-2z" class="st2"/><path d="m587 1227 2 2-2-2zm330 0 2 2-2-2zm141 4 2 3-2-3z" class="st7"/><path d="m585 1236 2 2-2-2z" class="st6"/><path d="m1078 1238 2 2-2-2z" class="st7"/><path d="M1210 1238c-16 28 7 84 11 114h-3c-12-25-36-47-55-68-2-3-16-22-21-14-5 9 20 28 25 34 17 21 33 44 47 68 7 14 14 32 29 40-11-57-29-116-29-174h-4z"/><path d="m1359 1238 2 2-2-2z" class="st1"/><path d="m759 1240 2 2-2-2z" class="st8"/><path d="m770 1240 2 2-2-2zm160 0 2 2-2-2z" class="st7"/><path d="m1265 1240 2 2-2-2z" class="st5"/><path d="m1205 1242 2 3-2-3z" class="st6"/><path d="m1491 1242 2 3-2-3z" class="st2"/><path d="m798 1245 2 2-2-2z" class="st7"/><path d="m932 1245 3 2-3-2z" class="st6"/><path d="m1441 1247 2 2-2-2zm28 0 2 2-2-2z" class="st2"/><path d="m759 1249 2 2-2-2zm312 0 2 2-2-2z" class="st7"/><path d="m1370 1249 2 2-2-2z" class="st1"/><path d="m581 1251 2 2-2-2z" class="st6"/><path d="m1452 1253 2 3-2-3z" class="st2"/><path d="m706 1256 2 2-2-2z" class="st7"/><path d="m508 1258 2 2-2-2z" class="st5"/><path d="m1078 1258 2 2-2-2zm127 0 2 2-2-2z" class="st6"/><path d="m1491 1258 2 2-2-2z" class="st3"/><radialGradient id="SVGID_00000063594706985018787890000010941035897616946597_" cx="1028.6" cy="-1624.5" r="53.1" gradientTransform="matrix(.2788 0 0 -.3758 191 684)" gradientUnits="userSpaceOnUse"><stop offset="0" stop-color="#fff68e"/><stop offset=".5" stop-color="#faea82"/><stop offset="1" stop-color="#d6aa4a"/></radialGradient><path fill="url(#SVGID_00000063594706985018787890000010941035897616946597_)" d="m477 1260-24 68 51-35c-1-17-11-28-27-33z"/><path d="m745 1262 3 2-3-2zm337 2 2 3-2-3z" class="st7"/><path d="m572 1273 2 2-2-2z" class="st6"/><path d="m1397 1273 2 2-2-2z" class="st1"/><path d="m1155 1275 2 3-2-3z" class="st6"/><path d="m673 1278 2 2-2-2z" class="st7"/><path d="m842 1278-2 2c11 29 21 54 27 86 2 14 1 34 13 44 12-24 16-51 28-75 6-14 17-26 13-42-21 10-33 57-39 79-11-29-8-79-40-94z"/><path d="m1146 1282 2 2-2-2zm2 2 2 2-2-2z" class="st6"/><path d="m713 1286 2 3-2-3z" class="st7"/><path d="m1150 1286 2 3-2-3z" class="st6"/><path d="m539 1289 2 2-2-2z" class="st5"/><path d="m585 1289 2 2-2-2z" class="st6"/><path d="m713 1289 2 2-2-2z" class="st4"/><path d="m1152 1289 3 2-3-2z" class="st6"/><path d="m1452 1289 2 2-2-2z" class="st8"/><path d="m724 1291 2 2-2-2zm191 2 2 2-2-2z" class="st7"/><path d="m1210 1293 2 2-2-2z" class="st5"/><path d="m921 1295 3 2-3-2z" class="st7"/><path d="m1172 1295 2 2-2-2z" class="st6"/><path d="m1174 1297 3 3-3-3z" class="st1"/><path d="m552 1300 2 2-2-2zm165 0 2 2-2-2z" class="st5"/><path d="M992 1300c25 49 43 95 57 149 16-9 13-24 13-39 0-37 14-73 11-108-10 3-12 14-14 24-4 24-4 49-10 73-12-28-21-94-57-99z"/><path d="m998 1300 3 2-3-2z" class="st7"/><path d="m1350 1300 3 2-3-2z" class="st1"/><path d="m851 1302 2 2-2-2z" class="st7"/><path d="m1166 1302 2 2-2-2zm-585 2 2 2-2-2z" class="st5"/><path d="m748 1304 2 2-2-2z" class="st7"/><path d="m1064 1304 3 2-3-2z" class="st6"/><path d="m1441 1304 2 2-2-2z" class="st1"/><path d="m477 1306 2 2-2-2z" class="st3"/><path d="m1062 1308 2 3-2-3zm-446 5 2 2-2-2z" class="st6"/><path d="m904 1313 2 2-2-2zm13 0 2 2-2-2z" class="st7"/><path d="m1174 1313 3 2-3-2zm-560 2 2 2-2-2z" class="st5"/><path d="m1357 1315 2 2-2-2z" class="st1"/><path d="m1432 1315 2 2-2-2z" class="st3"/><path d="m611 1317 3 2-3-2z" class="st6"/><path d="m915 1317 2 2-2-2z" class="st7"/><path d="m1014 1317 2 2-2-2z" class="st6"/><radialGradient id="SVGID_00000110467950614082506340000011310980253122417034_" cx="3938.4" cy="-2316.6" r="43.8" gradientTransform="matrix(.3237 0 0 -.3237 190 592)" gradientUnits="userSpaceOnUse"><stop offset="0" stop-color="#fff68e"/><stop offset=".5" stop-color="#faea82"/><stop offset="1" stop-color="#d6aa4a"/></radialGradient><path fill="url(#SVGID_00000110467950614082506340000011310980253122417034_)" d="m1456 1317-15 27 48 22-33-49z"/><path d="m1194 1319 2 3-2-3z" class="st5"/><path d="m913 1322 2 2-2-2z" class="st7"/><path d="m1005 1324 2 2-2-2z" class="st6"/><path d="m455 1326 2 2-2-2z" class="st3"/><path d="m631 1326 2 2-2-2z" class="st6"/><path d="m451 1328 2 2-2-2z" class="st4"/><path d="m897 1328 2 2-2-2z" class="st7"/><path d="m1007 1328 2 2-2-2z" class="st6"/><path d="m1421 1328 2 2-2-2z" class="st2"/><path d="m1009 1333 3 2-3-2zm14 0 2 2-2-2zm-11 4 2 2-2-2zm13 0 2 2-2-2zm-132 2 2 2-2-2zm11 0 2 2-2-2z" class="st6"/><path d="m1287 1339 2 2-2-2z" class="st1"/><path d="m1027 1341 2 3-2-3z" class="st6"/><path d="m1443 1344 2 2-2-2z" class="st8"/><path d="m585 1346 2 2-2-2z" class="st5"/><path d="m833 1348 3 2-3-2z"/><path d="m1199 1348 2 2-2-2z" class="st5"/><path d="m888 1350 3 2-3-2z" class="st6"/><path d="m1302 1350 2 2-2-2z" class="st1"/><path d="m622 1352 3 3-3-3z" class="st5"/><path d="m838 1352 2 3-2-3z" class="st6"/><path d="m1311 1357 2 2-2-2zm-141 2 2 2-2-2zm4 0 3 2-3-2z" class="st1"/><path d="m572 1361 2 2-2-2z" class="st5"/><path d="m884 1361 2 2-2-2z" class="st6"/><path d="m1207 1361 3 2-3-2zm-558 9 2 2-2-2z" class="st5"/><path d="m924 1370 2 2-2-2zm-361 2 2 2-2-2z" class="st6"/><path d="m1234 1372 2 2-2-2z" class="st1"/><path d="m1040 1374 2 3-2-3zm-382 3 2 2-2-2z" class="st5"/><path d="m1216 1377 2 2-2-2z" class="st1"/><path d="m1082 1379 2 2-2-2z" class="st5"/><path d="m662 1381 2 2-2-2z" class="st6"/><path d="m1342 1383 2 2-2-2z" class="st2"/><path d="m554 1385 2 3-2-3z" class="st5"/><path d="m869 1385 2 3-2-3z" class="st6"/><path d="m1003 1385 2 3-2-3z" class="st5"/><path d="m1344 1385 2 3-2-3z" class="st2"/><path d="m743 1388 2 2-2-2zm302 2 2 2-2-2zm-368 2 3 2-3-2zm431 0 3 2-3-2zm-424 4 2 3-2-3zm411 3 2 2-2-2zm-297 2 2 2-2-2zm317 0 2 2-2-2zm-319 4 2 2-2-2zm-90 2 2 3-2-3zm29 0 2 3-2-3zm384 0 3 3-3-3zm-406 3 2 2-2-2zm230 2 3 2-3-2z" class="st5"/><radialGradient id="SVGID_00000127035826459427809120000012267278750731076015_" cx="2271.5" cy="-1107.2" r="40.1" gradientTransform="matrix(.2105 0 0 -.4977 194 899)" gradientUnits="userSpaceOnUse"><stop offset="0" stop-color="#fff68e"/><stop offset=".5" stop-color="#faea82"/><stop offset="1" stop-color="#d6aa4a"/></radialGradient><path fill="url(#SVGID_00000127035826459427809120000012267278750731076015_)" d="m662 1416-4 68c19-20 51-64 4-68z"/><path d="m807 1416 2 2-2-2z" class="st5"/><path d="m1302 1425 2 2-2-2z" class="st2"/><path d="m1390 1425 2 2-2-2z" class="st3"/><path d="m1064 1427 3 2-3-2z" class="st5"/><path d="m1293 1429 2 3-2-3z" class="st2"/><path d="m952 1434 2 2-2-2zm93 0 2 2-2-2z" class="st5"/><path d="m1278 1436 2 2-2-2z" class="st3"/><path d="m1058 1443 2 2-2-2z" class="st5"/><path d="m1122 1443 2 2-2-2z" class="st1"/><path d="m1265 1443 2 2-2-2z" class="st2"/><path d="m803 1445 2 2-2-2zm253 0 2 2-2-2z" class="st5"/><path d="m1260 1445 2 2-2-2z" class="st2"/><path d="m1005 1449 2 2-2-2z" class="st5"/><path d="m1124 1449 2 2-2-2zm17 0 3 2-3-2z" class="st1"/><path d="m675 1454 2 2-2-2z" class="st3"/><path d="m836 1456 2 2-2-2zm125 4 2 2-2-2z" class="st5"/><path d="m1223 1460 2 2-2-2zm-7 2 2 3-2-3z" class="st2"/><path d="m1410 1465 2 2-2-2zm4 0 2 2-2-2z" class="st3"/><path d="m1201 1467 2 2-2-2z" class="st1"/><radialGradient id="SVGID_00000000936929344426263710000004860766677071436213_" cx="3922.1" cy="-2097.7" r="47.1" gradientTransform="matrix(.2736 0 0 -.383 192 696)" gradientUnits="userSpaceOnUse"><stop offset="0" stop-color="#fff68e"/><stop offset=".5" stop-color="#faea82"/><stop offset="1" stop-color="#d6aa4a"/></radialGradient><path fill="url(#SVGID_00000000936929344426263710000004860766677071436213_)" d="M1243 1482c8 18 27 37 44 49l-20-62-24 13z"/><path d="m1150 1471 2 2-2-2zm-383 5 3 2-3-2z" class="st1"/><path d="m904 1476 2 2-2-2z" class="st5"/><path d="m1247 1478 2 2-2-2z" class="st3"/><path d="m924 1480 2 2-2-2z" class="st1"/><path d="m1251 1495 3 3-3-3zm3 3 2 2-2-2z" class="st3"/><radialGradient id="SVGID_00000077290678775751955740000008239192688386180769_" cx="3548.6" cy="-1025" r="40.2" gradientTransform="matrix(.1925 0 0 -.5443 194 982)" gradientUnits="userSpaceOnUse"><stop offset="0" stop-color="#fff68e"/><stop offset=".5" stop-color="#faea82"/><stop offset="1" stop-color="#d6aa4a"/></radialGradient><path fill="url(#SVGID_00000077290678775751955740000008239192688386180769_)" d="M869 1577h2l20-71-25-4-2 20 5 55z"/><path d="m1256 1500 2 2-2-2zm22 9 2 2-2-2z" class="st3"/><radialGradient id="SVGID_00000139286220144621057510000010371985238866042781_" cx="3778.6" cy="-1630.3" r="48.8" gradientTransform="matrix(.2322 0 0 -.4511 193 817)" gradientUnits="userSpaceOnUse"><stop offset="0" stop-color="#fff68e"/><stop offset=".5" stop-color="#faea82"/><stop offset="1" stop-color="#d6aa4a"/></radialGradient><path fill="url(#SVGID_00000139286220144621057510000010371985238866042781_)" d="m1051 1520 24 70c6-13 23-61 11-71-9-8-25-2-35 1z"/><path d="m1056 1517 2 3-2-3z" class="st3"/><path d="m1271 1517 2 3-2-3zm-103 9 2 2-2-2z" class="st8"/><path d="m1282 1528 2 3-2-3zm-229 3 3 2-3-2zm231 0 5 4-5-4z" class="st3"/><path d="m1287 1531 2 2-2-2z" class="st4"/><path d="m1179 1535 2 2-2-2z" class="st2"/><path d="m880 1537 2 2-2-2z" class="st3"/><path fill="#fef666" d="M1532 1000c-9-2-16-8-16-15 0-6 4-13 21-32 13-16 11-16-13 3-27 20-46 28-73 30l-23-1 8-9c5-4 20-22 34-41 25-34 38-45 54-50 26-8 59 12 67 40 7 26-16 67-41 74l-11 2-7-1z"/><path fill="#fef67a" d="M1497 1147c-9-2-20-11-27-22-10-13-17-31-28-73l-10-38c-4-12 22-18 54-12 24 4 33 12 38 34l4 18 4-15c2-10 5-20 9-24l6-7 9 7c15 9 23 29 23 53 0 35-14 62-38 73-12 5-35 9-44 6z"/></g></svg>