<?xml version="1.0" encoding="utf-8"?>
<!-- Generator: Adobe Illustrator 28.3.0, SVG Export Plug-In . SVG Version: 6.00 Build 0)  -->
<svg version="1.1" id="Layer_1" xmlns="http://www.w3.org/2000/svg" xmlns:xlink="http://www.w3.org/1999/xlink" x="0px" y="0px"
	 viewBox="0 0 1024 1024" style="enable-background:new 0 0 1024 1024;" xml:space="preserve">
<style type="text/css">
	.st0{fill:#765338;}
	.st1{fill:#B7835A;}
	.st2{fill:#5B422D;}
	.st3{fill:#72B147;}
	.st4{fill:#5A9A30;}
	.st5{fill:#88B858;}
	.st6{fill:url(#SVGID_1_);}
	.st7{fill:none;}
</style>
<path class="st0" d="M196.1,999.62c0,0,0-230,316.23-230c316.31,0,316.23,230,316.23,230H196.1z"/>
<path class="st1" d="M512.34,769.64l-316.23,230L0.67,397.51L512.34,769.64z"/>
<path class="st2" d="M512.34,769.64L1024,397.51L828.55,999.63L512.34,769.64z"/>
<path class="st3" d="M535.8,786.67l-23.47,17.07l-23.48-17.07c0-17.07,23.48-17.07,23.48-17.07S535.8,769.61,535.8,786.67z"/>
<path class="st4" d="M512.34,769.64c0,0,0-372.13,511.66-372.13l-14.51,44.7l-59.21,77.21l-59.21,8.92l-59.2,77.21l-59.21,8.91
	l-59.21,77.22l-59.21,8.91l-59.21,77.21l-59.2,8.92L512.34,769.64z"/>
<path class="st5" d="M488.85,786.67l-59.2-8.91l-59.21-77.22l-59.21-8.91l-59.21-77.21l-59.21-8.92l-59.2-77.21l-59.21-8.92
	l-59.21-77.21l-14.51-44.7c511.66,0,511.66,372.13,511.66,372.13L488.85,786.67z"/>
<linearGradient id="SVGID_1_" gradientUnits="userSpaceOnUse" x1="35.2263" y1="995.7983" x2="108.843" y2="942.3088" gradientTransform="matrix(6.95 0 0 -6.9572 11.676 7139.3711)">
	<stop  offset="0" style="stop-color:#88B858"/>
	<stop  offset="0.5" style="stop-color:#72B147"/>
	<stop  offset="1" style="stop-color:#5A9A30"/>
</linearGradient>
<path class="st6" d="M0.72,397.5l511.64,372.07l511.64-372.07L512.35,25.36L0.72,397.5z"/>
<path class="st7" d="M15.17,442.18L0.67,397.47l511.66,372.15L1024,397.48l-14.51,44.71L512.34,803.75L15.17,442.18z"/>
</svg>
