<svg xmlns="http://www.w3.org/2000/svg" xmlns:xlink="http://www.w3.org/1999/xlink" xml:space="preserve" id="Layer_1" x="0" y="0" version="1.1" viewBox="0 0 1024 1024"><style>.st6{fill:#ffc49c}</style><symbol id="Snoo" viewBox="-216.1 -188.86 432.21 377.72"><radialGradient id="SVGID_1_" cx="154.38" cy="1235.11" r="127.45" fx="154.38" fy="1244.23" gradientTransform="matrix(1 0 0 .87 0 -1112.39)" gradientUnits="userSpaceOnUse"><stop offset="0" stop-color="#feffff"/><stop offset=".4" stop-color="#feffff"/><stop offset=".51" stop-color="#f9fcfc"/><stop offset=".62" stop-color="#edf3f5"/><stop offset=".7" stop-color="#dee9ec"/><stop offset=".72" stop-color="#d8e4e8"/><stop offset=".76" stop-color="#ccd8df"/><stop offset=".8" stop-color="#c8d5dd"/><stop offset=".83" stop-color="#ccd6de"/><stop offset=".85" stop-color="#d8dbe2"/><stop offset=".88" stop-color="#ede3e9"/><stop offset=".9" stop-color="#ffebef"/></radialGradient><circle cx="153.06" cy="-.31" r="63.05" fill="url(#SVGID_1_)"/><radialGradient id="SVGID_00000028307998430585705670000001973907268439567285_" cx="-151.72" cy="-37.27" r="127.45" fx="-151.72" fy="-28.15" gradientUnits="userSpaceOnUse"><stop offset="0" stop-color="#feffff"/><stop offset=".4" stop-color="#feffff"/><stop offset=".51" stop-color="#f9fcfc"/><stop offset=".62" stop-color="#edf3f5"/><stop offset=".7" stop-color="#dee9ec"/><stop offset=".72" stop-color="#d8e4e8"/><stop offset=".76" stop-color="#ccd8df"/><stop offset=".8" stop-color="#c8d5dd"/><stop offset=".83" stop-color="#ccd6de"/><stop offset=".85" stop-color="#d8dbe2"/><stop offset=".88" stop-color="#ede3e9"/><stop offset=".9" stop-color="#ffebef"/></radialGradient><circle cx="-153.05" cy="-.31" r="63.05" fill="url(#SVGID_00000028307998430585705670000001973907268439567285_)"/><radialGradient id="SVGID_00000088837544938825014700000011107646249396091836_" cx="4.04" cy="3595.57" r="384.44" gradientTransform="matrix(1 0 0 .7 0 -2570.85)" gradientUnits="userSpaceOnUse"><stop offset="0" stop-color="#feffff"/><stop offset=".4" stop-color="#feffff"/><stop offset=".51" stop-color="#f9fcfc"/><stop offset=".62" stop-color="#edf3f5"/><stop offset=".7" stop-color="#dee9ec"/><stop offset=".72" stop-color="#d8e4e8"/><stop offset=".76" stop-color="#ccd8df"/><stop offset=".8" stop-color="#c8d5dd"/><stop offset=".83" stop-color="#ccd6de"/><stop offset=".85" stop-color="#d8dbe2"/><stop offset=".88" stop-color="#ede3e9"/><stop offset=".9" stop-color="#ffebef"/></radialGradient><ellipse cx=".16" cy="53.86" fill="url(#SVGID_00000088837544938825014700000011107646249396091836_)" rx="180" ry="135"/><path fill="#842123" d="M-53.07 40.73C-54.12 63.6-69.29 71.9-86.98 71.9s-31.15-11.71-30.09-34.58c1.05-22.87 16.23-38.01 33.91-38.01s31.15 18.54 30.09 41.42zm170.45-3.41c1.05 22.87-12.42 34.58-30.09 34.58s-32.85-8.3-33.91-31.17C52.33 17.86 65.8-.69 83.47-.69s32.85 15.13 33.91 38.01z"/><radialGradient id="SVGID_00000066505253143839747040000008062204189318774155_" cx="-81.41" cy="-2631.23" r="32.12" gradientTransform="matrix(1 0 0 1.46 0 3893.8)" gradientUnits="userSpaceOnUse"><stop offset="0" stop-color="#f60"/><stop offset=".5" stop-color="#ff4500"/><stop offset=".7" stop-color="#fc4301"/><stop offset=".82" stop-color="#f43f07"/><stop offset=".92" stop-color="#e53812"/><stop offset="1" stop-color="#d4301f"/></radialGradient><path fill="url(#SVGID_00000066505253143839747040000008062204189318774155_)" d="M-53.05 42.73c-.99 21.41-15.19 29.17-31.73 29.17s-29.15-11.63-28.16-33.03c.99-21.41 15.19-35.41 31.73-35.41s29.14 17.86 28.16 39.27z"/><radialGradient id="SVGID_00000072963115943635969730000002260022569184873142_" cx="21767.61" cy="-2631.23" r="32.12" gradientTransform="matrix(-1 0 0 1.46 21849.32 3893.8)" gradientUnits="userSpaceOnUse"><stop offset="0" stop-color="#f60"/><stop offset=".5" stop-color="#ff4500"/><stop offset=".7" stop-color="#fc4301"/><stop offset=".82" stop-color="#f43f07"/><stop offset=".92" stop-color="#e53812"/><stop offset="1" stop-color="#d4301f"/></radialGradient><path fill="url(#SVGID_00000072963115943635969730000002260022569184873142_)" d="M53.37 42.73C54.35 64.14 68.56 71.9 85.1 71.9s29.15-11.63 28.16-33.03c-.99-21.41-15.19-35.41-31.73-35.41S52.38 21.32 53.37 42.73z"/><ellipse cx="-70.91" cy="23.18" class="st6" rx="7" ry="7.64"/><ellipse cx="95.54" cy="23.18" class="st6" rx="7" ry="7.64"/><path fill="#bbcfda" d="M.15 87.16c-22.32 0-43.71 1.08-63.49 3.04a5 5 0 0 0-4.21 6.86c11.08 25.97 37.22 44.21 67.7 44.21s56.62-18.24 67.7-44.21a5 5 0 0 0-4.21-6.86A644.47 644.47 0 0 0 .15 87.16z"/><path fill="#fff" d="M.15 92.12a630.9 630.9 0 0 0-63.29 3.09 5.07 5.07 0 0 0-4.2 6.97 73.16 73.16 0 0 0 134.98 0 5.08 5.08 0 0 0-4.2-6.97A630.9 630.9 0 0 0 .15 92.12z"/><radialGradient id="SVGID_00000119101148535726548260000012810354625241096600_" cx="-.17" cy="4536.25" r="113.26" gradientTransform="matrix(1 0 0 .66 0 -2842.97)" gradientUnits="userSpaceOnUse"><stop offset="0" stop-color="#172e35"/><stop offset=".29" stop-color="#0e1c21"/><stop offset=".73" stop-color="#030708"/><stop offset="1"/></radialGradient><path fill="url(#SVGID_00000119101148535726548260000012810354625241096600_)" d="M.15 89.54c-21.9 0-42.89 1.08-62.3 3.04a5 5 0 0 0-4.13 6.86 72.02 72.02 0 0 0 132.88 0 5 5 0 0 0-4.13-6.86A620.78 620.78 0 0 0 .15 89.54z"/><radialGradient id="SVGID_00000007430392037281772510000000171406918258289834_" cx="99.7" cy="-11.61" r="99.42" gradientTransform="matrix(1 0 0 .98 0 -174.02)" gradientUnits="userSpaceOnUse"><stop offset="0" stop-color="#feffff"/><stop offset=".4" stop-color="#feffff"/><stop offset=".51" stop-color="#f9fcfc"/><stop offset=".62" stop-color="#edf3f5"/><stop offset=".7" stop-color="#dee9ec"/><stop offset=".72" stop-color="#d8e4e8"/><stop offset=".76" stop-color="#ccd8df"/><stop offset=".8" stop-color="#c8d5dd"/><stop offset=".83" stop-color="#ccd6de"/><stop offset=".85" stop-color="#d8dbe2"/><stop offset=".88" stop-color="#ede3e9"/><stop offset=".9" stop-color="#ffebef"/></radialGradient><circle cx="98.74" cy="-144.18" r="44.68" fill="url(#SVGID_00000007430392037281772510000000171406918258289834_)"/><radialGradient id="SVGID_00000038376203684520612710000002550673682986696592_" cx="58.27" cy="-85.04" r="81.49" gradientUnits="userSpaceOnUse"><stop offset=".48" stop-color="#7a9299"/><stop offset=".67" stop-color="#172e35"/><stop offset=".75"/><stop offset=".82" stop-color="#172e35"/></radialGradient><path fill="url(#SVGID_00000038376203684520612710000002550673682986696592_)" d="M-.49-75.45c-5.35 0-9.69-2.24-9.69-5.69 0-40.03 32.56-72.59 72.59-72.59a9.7 9.7 0 0 1 0 19.38A53.28 53.28 0 0 0 9.19-81.13c0 3.45-4.34 5.69-9.69 5.69l.01-.01z"/><path fill="#ff6101" d="M-64.82 53.32c0 8.28-8.81 12-19.69 12s-19.69-3.72-19.69-12 8.81-15 19.69-15 19.69 6.72 19.69 15zm169.32 0c0 8.28-8.81 12-19.69 12s-19.69-3.72-19.69-12 8.81-15 19.69-15 19.69 6.72 19.69 15z"/></symbol><path fill="#ff4500" d="M512.33.83C229.73.83.67 229.9.67 512.5c0 141.28 57.28 269.19 149.85 361.81l-97.45 97.45c-19.33 19.33-5.64 52.4 21.7 52.4h437.57c282.6 0 511.67-229.07 511.67-511.67C1024 229.9 794.93.83 512.33.83z"/><use xlink:href="#Snoo" width="432.21" height="377.72" x="-216.1" y="-188.86" overflow="visible" transform="translate(512.34 508.2) scale(1.8951)"/></svg>