<?xml version="1.0" encoding="utf-8"?>
<!-- Generator: Adobe Illustrator 28.3.0, SVG Export Plug-In . SVG Version: 6.00 Build 0)  -->
<svg version="1.1" id="Layer_1" xmlns="http://www.w3.org/2000/svg" xmlns:xlink="http://www.w3.org/1999/xlink" x="0px" y="0px"
	 viewBox="0 0 1024 1024" style="enable-background:new 0 0 1024 1024;" xml:space="preserve">
<style type="text/css">
	.st0{fill:url(#SVGID_1_);}
	.st1{fill:url(#SVGID_00000147911933249204978020000017258716379975071120_);}
	.st2{fill:url(#SVGID_00000149377320315078938260000014445398221372964496_);}
	.st3{fill:#842123;}
	.st4{fill:url(#SVGID_00000016767998334353511150000001136073806695961507_);}
	.st5{fill:url(#SVGID_00000157293225066312615910000005079709094327809210_);}
	.st6{fill:#FFC49C;}
	.st7{fill:#BBCFDA;}
	.st8{fill:#FFFFFF;}
	.st9{fill:url(#SVGID_00000097487256445878443860000014986678544891794852_);}
	.st10{fill:url(#SVGID_00000181786595317730443120000011282390763347633329_);}
	.st11{fill:url(#SVGID_00000114754124345646668310000012416087449119771805_);}
	.st12{fill:#FF6101;}
	.st13{fill:#FF4500;}
</style>
<symbol  id="Snoo" viewBox="-216.1 -188.86 432.21 377.72">
	<g>
		
			<radialGradient id="SVGID_1_" cx="154.385" cy="1235.1072" r="127.45" fx="154.385" fy="1244.2272" gradientTransform="matrix(1 0 0 0.87 0 -1112.39)" gradientUnits="userSpaceOnUse">
			<stop  offset="0" style="stop-color:#FEFFFF"/>
			<stop  offset="0.4" style="stop-color:#FEFFFF"/>
			<stop  offset="0.51" style="stop-color:#F9FCFC"/>
			<stop  offset="0.62" style="stop-color:#EDF3F5"/>
			<stop  offset="0.7" style="stop-color:#DEE9EC"/>
			<stop  offset="0.72" style="stop-color:#D8E4E8"/>
			<stop  offset="0.76" style="stop-color:#CCD8DF"/>
			<stop  offset="0.8" style="stop-color:#C8D5DD"/>
			<stop  offset="0.83" style="stop-color:#CCD6DE"/>
			<stop  offset="0.85" style="stop-color:#D8DBE2"/>
			<stop  offset="0.88" style="stop-color:#EDE3E9"/>
			<stop  offset="0.9" style="stop-color:#FFEBEF"/>
		</radialGradient>
		<circle class="st0" cx="153.06" cy="-0.31" r="63.05"/>
		
			<radialGradient id="SVGID_00000028307998430585705670000001973907268439567285_" cx="-151.725" cy="-37.27" r="127.45" fx="-151.725" fy="-28.15" gradientUnits="userSpaceOnUse">
			<stop  offset="0" style="stop-color:#FEFFFF"/>
			<stop  offset="0.4" style="stop-color:#FEFFFF"/>
			<stop  offset="0.51" style="stop-color:#F9FCFC"/>
			<stop  offset="0.62" style="stop-color:#EDF3F5"/>
			<stop  offset="0.7" style="stop-color:#DEE9EC"/>
			<stop  offset="0.72" style="stop-color:#D8E4E8"/>
			<stop  offset="0.76" style="stop-color:#CCD8DF"/>
			<stop  offset="0.8" style="stop-color:#C8D5DD"/>
			<stop  offset="0.83" style="stop-color:#CCD6DE"/>
			<stop  offset="0.85" style="stop-color:#D8DBE2"/>
			<stop  offset="0.88" style="stop-color:#EDE3E9"/>
			<stop  offset="0.9" style="stop-color:#FFEBEF"/>
		</radialGradient>
		<circle style="fill:url(#SVGID_00000028307998430585705670000001973907268439567285_);" cx="-153.05" cy="-0.31" r="63.05"/>
		
			<radialGradient id="SVGID_00000088837544938825014700000011107646249396091836_" cx="4.035" cy="3595.5659" r="384.44" gradientTransform="matrix(1 0 0 0.7 0 -2570.8501)" gradientUnits="userSpaceOnUse">
			<stop  offset="0" style="stop-color:#FEFFFF"/>
			<stop  offset="0.4" style="stop-color:#FEFFFF"/>
			<stop  offset="0.51" style="stop-color:#F9FCFC"/>
			<stop  offset="0.62" style="stop-color:#EDF3F5"/>
			<stop  offset="0.7" style="stop-color:#DEE9EC"/>
			<stop  offset="0.72" style="stop-color:#D8E4E8"/>
			<stop  offset="0.76" style="stop-color:#CCD8DF"/>
			<stop  offset="0.8" style="stop-color:#C8D5DD"/>
			<stop  offset="0.83" style="stop-color:#CCD6DE"/>
			<stop  offset="0.85" style="stop-color:#D8DBE2"/>
			<stop  offset="0.88" style="stop-color:#EDE3E9"/>
			<stop  offset="0.9" style="stop-color:#FFEBEF"/>
		</radialGradient>
		
			<ellipse style="fill:url(#SVGID_00000088837544938825014700000011107646249396091836_);" cx="0.16" cy="53.86" rx="180" ry="135"/>
		<g>
			<path class="st3" d="M-53.07,40.73C-54.12,63.6-69.29,71.9-86.98,71.9s-31.15-11.71-30.09-34.58
				c1.05-22.87,16.23-38.01,33.91-38.01S-52.01,17.85-53.07,40.73L-53.07,40.73z"/>
			<path class="st3" d="M117.38,37.32c1.05,22.87-12.42,34.58-30.09,34.58s-32.85-8.3-33.91-31.17C52.33,17.86,65.8-0.69,83.47-0.69
				S116.32,14.44,117.38,37.32L117.38,37.32z"/>
		</g>
		
			<radialGradient id="SVGID_00000066505253143839747040000008062204189318774155_" cx="-81.405" cy="-2631.2324" r="32.12" gradientTransform="matrix(1 0 0 1.46 0 3893.8003)" gradientUnits="userSpaceOnUse">
			<stop  offset="0" style="stop-color:#FF6600"/>
			<stop  offset="0.5" style="stop-color:#FF4500"/>
			<stop  offset="0.7" style="stop-color:#FC4301"/>
			<stop  offset="0.82" style="stop-color:#F43F07"/>
			<stop  offset="0.92" style="stop-color:#E53812"/>
			<stop  offset="1" style="stop-color:#D4301F"/>
		</radialGradient>
		<path style="fill:url(#SVGID_00000066505253143839747040000008062204189318774155_);" d="M-53.05,42.73
			C-54.04,64.14-68.24,71.9-84.78,71.9s-29.15-11.63-28.16-33.03c0.99-21.41,15.19-35.41,31.73-35.41S-52.07,21.32-53.05,42.73
			L-53.05,42.73z"/>
		
			<radialGradient id="SVGID_00000072963115943635969730000002260022569184873142_" cx="21767.6055" cy="-2631.2324" r="32.12" gradientTransform="matrix(-1 0 0 1.46 21849.3203 3893.8003)" gradientUnits="userSpaceOnUse">
			<stop  offset="0" style="stop-color:#FF6600"/>
			<stop  offset="0.5" style="stop-color:#FF4500"/>
			<stop  offset="0.7" style="stop-color:#FC4301"/>
			<stop  offset="0.82" style="stop-color:#F43F07"/>
			<stop  offset="0.92" style="stop-color:#E53812"/>
			<stop  offset="1" style="stop-color:#D4301F"/>
		</radialGradient>
		<path style="fill:url(#SVGID_00000072963115943635969730000002260022569184873142_);" d="M53.37,42.73
			C54.35,64.14,68.56,71.9,85.1,71.9s29.15-11.63,28.16-33.03C112.27,17.46,98.07,3.46,81.53,3.46S52.38,21.32,53.37,42.73
			L53.37,42.73z"/>
		<ellipse class="st6" cx="-70.91" cy="23.18" rx="7" ry="7.64"/>
		<ellipse class="st6" cx="95.54" cy="23.18" rx="7" ry="7.64"/>
		<path class="st7" d="M0.15,87.16c-22.32,0-43.71,1.08-63.49,3.04c-3.38,0.34-5.52,3.78-4.21,6.86
			c11.08,25.97,37.22,44.21,67.7,44.21s56.62-18.24,67.7-44.21c1.31-3.08-0.83-6.52-4.21-6.86C43.86,88.23,22.47,87.16,0.15,87.16
			L0.15,87.16z"/>
		<path class="st8" d="M0.15,92.12c-22.25,0-43.57,1.09-63.29,3.09c-3.37,0.34-5.51,3.84-4.2,6.97
			c11.05,26.38,37.1,44.91,67.49,44.91s56.44-18.53,67.49-44.91c1.31-3.12-0.83-6.62-4.2-6.97C43.72,93.21,22.4,92.12,0.15,92.12
			L0.15,92.12z"/>
		
			<radialGradient id="SVGID_00000119101148535726548260000012810354625241096600_" cx="-0.175" cy="4536.2466" r="113.26" gradientTransform="matrix(1 0 0 0.66 0 -2842.9697)" gradientUnits="userSpaceOnUse">
			<stop  offset="0" style="stop-color:#172E35"/>
			<stop  offset="0.29" style="stop-color:#0E1C21"/>
			<stop  offset="0.73" style="stop-color:#030708"/>
			<stop  offset="1" style="stop-color:#000000"/>
		</radialGradient>
		<path style="fill:url(#SVGID_00000119101148535726548260000012810354625241096600_);" d="M0.15,89.54
			c-21.9,0-42.89,1.08-62.3,3.04c-3.32,0.34-5.42,3.78-4.13,6.86c10.87,25.97,36.52,44.21,66.44,44.21s55.56-18.24,66.44-44.21
			c1.29-3.08-0.81-6.52-4.13-6.86C43.06,90.61,22.07,89.54,0.15,89.54L0.15,89.54z"/>
		
			<radialGradient id="SVGID_00000007430392037281772510000000171406918258289834_" cx="99.705" cy="-11.6118" r="99.42" gradientTransform="matrix(1 0 0 0.98 0 -174.0198)" gradientUnits="userSpaceOnUse">
			<stop  offset="0" style="stop-color:#FEFFFF"/>
			<stop  offset="0.4" style="stop-color:#FEFFFF"/>
			<stop  offset="0.51" style="stop-color:#F9FCFC"/>
			<stop  offset="0.62" style="stop-color:#EDF3F5"/>
			<stop  offset="0.7" style="stop-color:#DEE9EC"/>
			<stop  offset="0.72" style="stop-color:#D8E4E8"/>
			<stop  offset="0.76" style="stop-color:#CCD8DF"/>
			<stop  offset="0.8" style="stop-color:#C8D5DD"/>
			<stop  offset="0.83" style="stop-color:#CCD6DE"/>
			<stop  offset="0.85" style="stop-color:#D8DBE2"/>
			<stop  offset="0.88" style="stop-color:#EDE3E9"/>
			<stop  offset="0.9" style="stop-color:#FFEBEF"/>
		</radialGradient>
		<circle style="fill:url(#SVGID_00000007430392037281772510000000171406918258289834_);" cx="98.74" cy="-144.18" r="44.68"/>
		
			<radialGradient id="SVGID_00000038376203684520612710000002550673682986696592_" cx="58.275" cy="-85.04" r="81.49" gradientUnits="userSpaceOnUse">
			<stop  offset="0.48" style="stop-color:#7A9299"/>
			<stop  offset="0.67" style="stop-color:#172E35"/>
			<stop  offset="0.75" style="stop-color:#000000"/>
			<stop  offset="0.82" style="stop-color:#172E35"/>
		</radialGradient>
		<path style="fill:url(#SVGID_00000038376203684520612710000002550673682986696592_);" d="M-0.49-75.45
			c-5.35,0-9.69-2.24-9.69-5.69c0-40.03,32.56-72.59,72.59-72.59c5.35,0,9.69,4.34,9.69,9.69c0,5.35-4.34,9.69-9.69,9.69
			c-29.34,0-53.22,23.87-53.22,53.22c0,3.45-4.34,5.69-9.69,5.69L-0.49-75.45z"/>
		<path class="st12" d="M-64.82,53.32c0,8.28-8.81,12-19.69,12s-19.69-3.72-19.69-12s8.81-15,19.69-15S-64.82,45.04-64.82,53.32z"/>
		<path class="st12" d="M104.5,53.32c0,8.28-8.81,12-19.69,12s-19.69-3.72-19.69-12s8.81-15,19.69-15S104.5,45.04,104.5,53.32z"/>
	</g>
</symbol>
<path class="st13" d="M512.33,0.83L512.33,0.83C229.73,0.83,0.67,229.9,0.67,512.5l0,0c0,141.28,57.28,269.19,149.85,361.81
	l-97.45,97.45c-19.33,19.33-5.64,52.4,21.7,52.4h437.57l0,0c282.6,0,511.67-229.07,511.67-511.67l0,0
	C1024,229.9,794.93,0.83,512.33,0.83z"/>
<use xlink:href="#Snoo"  width="432.21" height="377.72" x="-216.1" y="-188.86" transform="matrix(1.8951 0 0 1.8951 512.3428 508.2077)" style="overflow:visible;"/>
</svg>
