<?xml version="1.0" encoding="utf-8"?>
<!-- Generator: Adobe Illustrator 28.3.0, SVG Export Plug-In . SVG Version: 6.00 Build 0)  -->
<svg version="1.1" id="Layer_1" xmlns="http://www.w3.org/2000/svg" xmlns:xlink="http://www.w3.org/1999/xlink" x="0px" y="0px"
	 viewBox="0 0 1024 1024" style="enable-background:new 0 0 1024 1024;" xml:space="preserve">
<style type="text/css">
	.st0{fill:#5E4E7A;}
</style>
<g>
	<path class="st0" d="M471.85,743.68c-0.07-1.37-0.57-2.9-0.14-4.11c22.28-62.48,44.62-124.93,67.19-187.3
		c0.5-1.37,4.26-2.88,5.82-2.35c155.77,52.63,311.48,105.46,467.18,158.28c1.06,0.36,2.03,0.97,3.05,1.46
		c-1.41,0.29-2.81,0.75-4.23,0.84C872.5,719.01,734.28,727.5,596.06,736C555.19,738.51,514.33,741.05,471.85,743.68z"/>
	<path class="st0" d="M287.83,306.97c90.98,0,181.97-0.03,272.95,0.24c1.42,0,4.47,4.16,4.02,5.42
		c-19.25,54.91-38.78,109.72-58.52,164.46c-0.5,1.39-4.2,2.99-5.7,2.47c-162.65-56.7-325.22-113.6-487.8-170.5
		c-1.2-0.42-2.33-1.02-3.49-1.54c1.36-0.18,2.73-0.52,4.09-0.52C104.86,306.97,196.34,306.97,287.83,306.97z"/>
	<path class="st0" d="M762.98,365.91c-0.94,0.68-2.22,1.96-3.75,2.67c-62.81,29.33-125.64,58.61-188.49,87.86
		c-1.12,0.52-2.39,0.72-3.6,1.07c0.23-1.24,0.29-2.55,0.71-3.72c45.2-127.35,90.43-254.68,135.69-382.01
		c0.41-1.15,1.27-2.14,1.93-3.2c0.2,0.57,0.48,1.12,0.6,1.7C724.97,168.44,743.86,266.58,762.98,365.91z"/>
	<path class="st0" d="M976.03,330.98c-60.17,82.85-120.34,165.7-180.66,248.44c-0.79,1.08-3.83,1.46-5.38,0.9
		c-63.39-22.7-126.74-45.55-190.08-68.39c-1.06-0.38-2.04-0.96-3.06-1.45c0.8-0.56,1.53-1.24,2.4-1.65
		c124.54-59.1,249.1-118.17,373.67-177.22c0.95-0.45,2.14-0.4,3.22-0.58C976.14,331.04,976.03,330.98,976.03,330.98z"/>
	<path class="st0" d="M74.98,696c53.11-75.55,106.86-150.67,158.82-227.01c11.28-16.57,19.91-19.45,38.55-12.42
		c57.67,21.76,116.26,41.08,174.49,61.35c1.22,0.43,2.39,1,3.59,1.51c-0.79,0.57-1.51,1.27-2.38,1.68
		C324.59,579.32,201.12,637.49,77.64,695.63c-0.79,0.37-1.83,0.22-2.75,0.31C74.88,695.93,74.98,696,74.98,696z"/>
	<path class="st0" d="M472.97,573.97c-28.13,78.36-56.23,156.74-84.4,235.09c-17.15,47.71-34.41,95.38-51.65,143.06
		c-0.41,1.12-1.18,2.12-1.78,3.17c-0.37-1.07-0.9-2.11-1.09-3.21c-16.56-94.88-33.1-189.76-49.51-284.66
		c-0.25-1.43,0.75-4.06,1.9-4.61c61.55-29.7,123.18-59.24,184.82-88.76c0.5-0.24,1.21-0.01,1.83,0L472.97,573.97z"/>
	<path class="st0" d="M976.14,331.04c-0.02-0.23-0.04-0.46-0.06-0.69c0.15,0,0.3,0,0.45,0c-0.17,0.21-0.33,0.42-0.49,0.64
		C976.03,330.98,976.14,331.04,976.14,331.04z"/>
	<path class="st0" d="M473.09,574.04c0.04-0.2,0.08-0.39,0.13-0.59c0.15,0.33,0.05,0.32-0.25,0.52
		C472.97,573.97,473.09,574.04,473.09,574.04z"/>
	<path class="st0" d="M74.88,695.93c0.03,0.21,0.06,0.42,0.1,0.63c-0.19-0.04-0.39-0.07-0.58-0.11c0.19-0.15,0.39-0.31,0.58-0.46
		L74.88,695.93z"/>
</g>
</svg>
