<?xml version="1.0" encoding="utf-8"?>
<!-- Generator: Adobe Illustrator 28.3.0, SVG Export Plug-In . SVG Version: 6.00 Build 0)  -->
<svg version="1.1" id="Layer_1" xmlns="http://www.w3.org/2000/svg" xmlns:xlink="http://www.w3.org/1999/xlink" x="0px" y="0px"
	 viewBox="0 0 1024 1024" style="enable-background:new 0 0 1024 1024;" xml:space="preserve">
<style type="text/css">
	.st0{fill:#56347C;}
</style>
<g id="g5374" transform="matrix(1.2279668,0,0,1.2279668,-8.6173684,-2.3332633)">
	<path id="path5189-4" class="st0" d="M749.06,390.12v138.17c0,4.23-2.83,5.34-6.31,2.46l-70.52-58.38
		c-3.48-2.88-6.3-8.62-6.3-12.86v-17.39l-22.04-17.92c-23.63-19.22-42.56-58.23-42.56-86.78c0-28.54,19.05-35.98,42.56-16.61
		l22.04,17.92v-17.39c0-4.23,2.83-5.34,6.3-2.46l70.52,58.38C746.23,380.13,749.06,385.89,749.06,390.12z M645.15,346.19
		c-12.44-10.26-22.52-6.32-22.52,8.79c0,15.11,10.08,35.67,22.52,45.93l20.78,16.88v-54.72L645.15,346.19L645.15,346.19z"/>
	<g id="g3500" transform="matrix(0.46410314,0.9267926,-0.9267926,0.46410314,77.258376,-14.89278)">
		<path id="path3502" class="st0" d="M899.99-268.41c-0.03-0.17-0.07-0.35-0.11-0.52c-0.13-0.56-0.3-1.12-0.51-1.65
			c-0.02-0.07-0.04-0.13-0.07-0.19c-0.25-0.57-0.56-1.12-0.89-1.64c-0.09-0.15-0.2-0.28-0.3-0.42c-0.29-0.41-0.61-0.8-0.96-1.17
			c-0.09-0.1-0.17-0.2-0.27-0.3c-0.44-0.43-0.92-0.83-1.43-1.19c-0.12-0.09-0.27-0.16-0.4-0.24c-0.26-0.16-0.5-0.33-0.76-0.47
			l-4.52-2.36l-206.53,92.21l-386.3-194.26l-5.52,2.74c-0.05,0.02-0.08,0.06-0.13,0.08c-0.39,0.2-0.75,0.46-1.11,0.7
			c-0.24,0.16-0.5,0.3-0.72,0.47c-0.28,0.22-0.52,0.49-0.78,0.75c-0.26,0.25-0.54,0.49-0.77,0.76c-0.18,0.22-0.32,0.46-0.5,0.7
			c-0.26,0.36-0.52,0.71-0.73,1.09c-0.02,0.04-0.06,0.08-0.08,0.12c-0.12,0.23-0.18,0.47-0.29,0.7c-0.17,0.38-0.34,0.75-0.46,1.14
			c-0.11,0.34-0.17,0.68-0.24,1.02c-0.07,0.36-0.16,0.7-0.2,1.06c-0.04,0.36-0.03,0.7-0.04,1.05c-0.01,0.36-0.02,0.72,0.01,1.08
			c0.02,0.19,0.04,0.38,0.07,0.57c-0.05,0.42-0.12,0.83-0.12,1.26l0.03,129.02l27.89-12.99L615.12-99.15L407.11-6.81L250.06-85.33
			l-140.88-70.43c-0.1-0.05-0.21-0.07-0.32-0.12c-0.35-0.17-0.71-0.29-1.09-0.41c-0.33-0.12-0.66-0.23-1-0.32
			c-0.32-0.07-0.65-0.12-0.97-0.16c-0.41-0.06-0.81-0.12-1.23-0.12c-0.11,0-0.2-0.03-0.31-0.03c-0.21,0-0.41,0.05-0.61,0.06
			c-0.41,0.03-0.82,0.06-1.23,0.13c-0.33,0.06-0.66,0.14-0.98,0.22c-0.36,0.09-0.7,0.2-1.05,0.32c-0.32,0.12-0.64,0.27-0.95,0.42
			c-0.32,0.16-0.64,0.32-0.95,0.51c-0.29,0.18-0.56,0.37-0.83,0.58c-0.29,0.22-0.58,0.45-0.85,0.7c-0.26,0.24-0.49,0.49-0.72,0.75
			c-0.23,0.27-0.46,0.53-0.68,0.82c-0.23,0.32-0.43,0.66-0.63,1c-0.11,0.19-0.25,0.35-0.35,0.55c-0.05,0.1-0.07,0.21-0.12,0.31
			c-0.17,0.36-0.3,0.74-0.42,1.12c-0.11,0.32-0.22,0.65-0.3,0.97c-0.07,0.33-0.12,0.67-0.17,1.01c-0.06,0.4-0.11,0.79-0.12,1.18
			c0.01,0.12-0.02,0.22-0.02,0.32l0,161.96c0,0.22,0.05,0.42,0.07,0.64c0.02,0.4,0.05,0.8,0.12,1.19c0.06,0.35,0.14,0.68,0.23,1.01
			c0.09,0.35,0.19,0.69,0.32,1.02c0.12,0.33,0.27,0.66,0.43,0.97c0.16,0.32,0.32,0.63,0.51,0.93c0.18,0.29,0.38,0.57,0.59,0.85
			c0.22,0.29,0.45,0.57,0.7,0.85c0.23,0.26,0.49,0.49,0.75,0.72c0.27,0.24,0.53,0.46,0.83,0.68c0.32,0.22,0.64,0.42,0.98,0.62
			c0.19,0.12,0.36,0.26,0.56,0.36l302.84,151.4c0.06,0.03,0.12,0.03,0.18,0.07c0.14,0.07,0.27,0.14,0.41,0.21
			c0.08,0.03,0.17,0.06,0.25,0.09c0.46,0.18,0.94,0.34,1.42,0.46c0.1,0.02,0.2,0.05,0.3,0.07c0.13,0.02,0.27,0.04,0.4,0.07
			c0.64,0.12,1.28,0.2,1.92,0.2c0.01,0,0.02,0,0.02,0h0.01h0.01c0.01,0,0.02,0,0.02,0c0.65,0,1.29-0.08,1.92-0.2
			c0.13-0.02,0.27-0.04,0.4-0.07c0.1-0.02,0.2-0.05,0.3-0.07c0.48-0.12,0.95-0.27,1.41-0.46c0.08-0.03,0.17-0.06,0.26-0.09
			c0.14-0.06,0.27-0.14,0.41-0.2c0.06-0.02,0.12-0.03,0.18-0.07l187.54-82.11l78.46,43.29c0.15,0.08,0.31,0.14,0.46,0.22
			c0.16,0.08,0.32,0.17,0.48,0.24c0.07,0.02,0.13,0.06,0.2,0.08c0.26,0.11,0.52,0.19,0.79,0.27c0.16,0.05,0.32,0.11,0.48,0.16
			c0.17,0.05,0.36,0.09,0.53,0.12c0.12,0.02,0.24,0.05,0.36,0.07c0.06,0.01,0.12,0.02,0.18,0.03c0.12,0.02,0.23,0.05,0.35,0.07
			c0.49,0.07,0.97,0.11,1.46,0.11h0.01h0.01c0.01,0,0.02,0,0.02,0c0.65,0,1.29-0.08,1.92-0.2c0.11-0.02,0.22-0.02,0.32-0.05
			c0.08-0.02,0.16-0.05,0.24-0.07c0.58-0.14,1.16-0.31,1.72-0.54c0.06-0.02,0.12-0.06,0.17-0.08c0.03-0.02,0.07-0.03,0.1-0.05
			c0.05-0.02,0.1-0.02,0.15-0.05L893.87,42.7c3.86-1.82,6.32-5.69,6.32-9.95l0-299.21c0-0.05-0.02-0.09-0.02-0.14
			C900.16-267.22,900.1-267.82,899.99-268.41z M396.13,68.4l-63.14,30.4l32.94,16.47l30.19-16.47v52.16L115.25,10.53l0-81.5
			l71.96,35.17L127.03-8.03l32.94,16.47l60.28-28.01l35.76,17.01l-62.08,28.66l32.94,16.47l62.22-28.87l38.32,19.44l-61.21,28.25
			l32.94,16.47l61.32-28.48l35.68,17.5V68.4z M628.43,56.15l-210.35,93.51l0-137.4l210.35-93.5V56.15z M115.25-96.53l0-27.45
			L396.13,13.71v27.45L115.25-96.53z"/>
	</g>
	<polygon id="polygon3506" class="st0" points="352.24,329.69 306.79,294.11 306.76,238.87 352.2,274.44 	"/>
	<polygon id="polygon3508" class="st0" points="352.2,175.38 352.23,230.62 306.79,195.06 306.76,139.81 	"/>
	<g id="Captions" transform="matrix(0,-0.2492475,0.19547686,0.16114179,71.005984,62.192969)">
	</g>
	<g id="Captions-7" transform="translate(122.10986,-55.111168)">
	</g>
	<path id="path4818-2-4-3" class="st0" d="M390.13,204.52c17.62,22.42,35.62,66.22,35.62,106.69c0,40.45-18,54.25-35.62,47.3
		C390.13,341.93,390.13,219.23,390.13,204.52z"/>
	<g id="Your_Icon" transform="translate(74.936297,109.72221)">
	</g>
</g>
</svg>
