<svg xmlns="http://www.w3.org/2000/svg" viewBox="0 0 512 512"><defs><clipPath id="a" clipPathUnits="userSpaceOnUse"><path d="M256 45A211 211 0 0 0 45 256a211 211 0 0 0 211 211 211 211 0 0 0 211-211A211 211 0 0 0 256 45Zm0 112a99 99 0 0 1 99 99 99 99 0 0 1-99 99 99 99 0 0 1-99-99 99 99 0 0 1 99-99Z" style="opacity:1;fill:#f9f9f9;fill-opacity:1;stroke:none;stroke-width:0;stroke-linecap:butt;stroke-linejoin:miter;stroke-miterlimit:4;stroke-dasharray:none;stroke-dashoffset:0;stroke-opacity:1"/></clipPath></defs><path d="M483 137c-359 287-179 144 0 0zm0 0H276a120 120 0 0 1 70 199L243 512h13a256 256 0 0 0 227-375z" style="opacity:1;fill:#91b0e8;fill-opacity:1;stroke:none;stroke-width:0;stroke-linecap:butt;stroke-linejoin:miter;stroke-miterlimit:4;stroke-dasharray:none;stroke-dashoffset:0;stroke-opacity:1"/><path d="M256 0C164 0 83 49 38 121l100 158-2-23a120 120 0 0 1 145-118l202-1A256 256 0 0 0 256 0ZM38 122c-62 297-31 148 0 0z" style="fill:#396bd7;fill-opacity:1;stroke-width:1.35459"/><path d="M38 121a256 256 0 0 0 205 390l103-175a120 120 0 0 1-208-57Z" style="fill:#6199f6;fill-opacity:1;stroke-width:1.35459"/><circle cx="256" cy="256" r="120.2" style="opacity:1;fill:#fff;fill-opacity:1;stroke:none;stroke-width:0;stroke-linecap:butt;stroke-linejoin:miter;stroke-miterlimit:4;stroke-dasharray:none;stroke-dashoffset:0;stroke-opacity:1"/><circle cx="256" cy="256" r="99.2" style="opacity:1;fill:#4688f4;fill-opacity:1;stroke:none;stroke-width:0;stroke-linecap:butt;stroke-linejoin:miter;stroke-miterlimit:4;stroke-dasharray:none;stroke-dashoffset:0;stroke-opacity:1"/><path d="m77 145 82 130 31-35zm366 13-166 1 16 38 150-39zM275 309l-30 157 85-144z" clip-path="url(#a)" style="opacity:.1;fill:#367100;fill-opacity:1;stroke:none;stroke-width:0;stroke-linecap:butt;stroke-linejoin:miter;stroke-miterlimit:4;stroke-dasharray:none;stroke-dashoffset:0;stroke-opacity:1" transform="translate(-55 -55) scale(1.21481)"/></svg>