<svg xmlns="http://www.w3.org/2000/svg" xmlns:xlink="http://www.w3.org/1999/xlink" viewBox="0 0 1358.14 766.28" xmlns:v="https://vecta.io/nano"><defs><clipPath id="A"><path d="M29.07 708.14h1300v-650l-1300 650z" stroke-width="0" fill="none"/></clipPath><clipPath id="B"><path d="M679.07 383.14l650 325v-325h-1300v325h650v-325z" stroke-width="0" fill="none"/></clipPath><path id="C" d="M76.58 96.56l-17.03 12.37 6.51-20.02 10.52 7.65z"/><path id="D" d="M64.81 92.74l6.51-20.02 6.5 20.02H64.81z"/><path id="E" d="M76.58 88.91l6.51 20.02-17.03-12.37 10.52-7.65z"/><path id="F" d="M151.21 98.92l-17.03-12.37h21.05l-4.02 12.37z"/><path id="G" d="M146.71 92.74l6.51-20.02 6.5 20.02h-13.01z"/><path id="H" d="M151.21 86.55h21.05l-17.03 12.37-4.02-12.37z"/></defs><path d="M29.07 58.14h1300v650h-1300z" fill="#fff"/><path d="M29.07 58.14h1300v50h-1300zm0 100h1300v50h-1300zm0 100h1300v50h-1300zm0 100h1300v50h-1300zm0 100h1300v50h-1300zm0 100h1300v50h-1300zm0 100h1300v50h-1300z" fill="#b22234"/><path d="M29.07 58.14h494v350h-494z" fill="#3c3b6e"/><g fill="#fff"><use xlink:href="#C"/><path d="M69.31 98.92L52.28 86.55h21.05l-4.02 12.37z"/><use xlink:href="#D"/><path d="M69.31 86.55h21.05L73.33 98.92l-4.02-12.37z"/><use xlink:href="#E"/><use xlink:href="#C" x="81.9"/><use xlink:href="#F"/><use xlink:href="#G"/><use xlink:href="#H"/><use xlink:href="#E" x="81.9"/><use xlink:href="#C" x="163.8"/><use xlink:href="#F" x="81.9"/><use xlink:href="#G" x="81.9"/><use xlink:href="#H" x="81.9"/><use xlink:href="#E" x="163.8"/><use xlink:href="#C" x="245.7"/><use xlink:href="#F" x="163.8"/><use xlink:href="#G" x="163.8"/><use xlink:href="#H" x="163.8"/><use xlink:href="#E" x="245.7"/><use xlink:href="#C" x="327.6"/><use xlink:href="#F" x="245.7"/><use xlink:href="#G" x="245.7"/><use xlink:href="#H" x="245.7"/><use xlink:href="#E" x="327.6"/><use xlink:href="#C" x="409.5"/><use xlink:href="#F" x="327.6"/><use xlink:href="#G" x="327.6"/><use xlink:href="#H" x="327.6"/><use xlink:href="#E" x="409.5"/><use xlink:href="#C" x="40.95" y="35.1"/><use xlink:href="#F" x="-40.95" y="35.1"/><use xlink:href="#G" x="-40.95" y="35.1"/><use xlink:href="#H" x="-40.95" y="35.1"/><use xlink:href="#E" x="40.95" y="35.1"/><use xlink:href="#C" x="122.85" y="35.1"/><use xlink:href="#F" x="40.95" y="35.1"/><use xlink:href="#G" x="40.95" y="35.1"/><use xlink:href="#H" x="40.95" y="35.1"/><use xlink:href="#E" x="122.85" y="35.1"/><use xlink:href="#C" x="204.75" y="35.1"/><use xlink:href="#F" x="122.85" y="35.1"/><use xlink:href="#G" x="122.85" y="35.1"/><use xlink:href="#H" x="122.85" y="35.1"/><use xlink:href="#E" x="204.75" y="35.1"/><use xlink:href="#C" x="286.65" y="35.1"/><use xlink:href="#F" x="204.75" y="35.1"/><use xlink:href="#G" x="204.75" y="35.1"/><use xlink:href="#H" x="204.75" y="35.1"/><use xlink:href="#E" x="286.65" y="35.1"/><use xlink:href="#C" x="368.55" y="35.1"/><use xlink:href="#F" x="286.65" y="35.1"/><use xlink:href="#G" x="286.65" y="35.1"/><use xlink:href="#H" x="286.65" y="35.1"/><use xlink:href="#E" x="368.55" y="35.1"/><use xlink:href="#C" y="70.2"/><use xlink:href="#F" x="-81.9" y="70.2"/><use xlink:href="#D" y="70.2"/><use xlink:href="#H" x="-81.9" y="70.2"/><use xlink:href="#E" y="70.2"/><use xlink:href="#C" x="81.9" y="70.2"/><use xlink:href="#F" y="70.2"/><use xlink:href="#G" y="70.2"/><use xlink:href="#H" y="70.2"/><use xlink:href="#E" x="81.9" y="70.2"/><use xlink:href="#C" x="163.8" y="70.2"/><use xlink:href="#F" x="81.9" y="70.2"/><use xlink:href="#G" x="81.9" y="70.2"/><use xlink:href="#H" x="81.9" y="70.2"/><use xlink:href="#E" x="163.8" y="70.2"/><use xlink:href="#C" x="245.7" y="70.2"/><use xlink:href="#F" x="163.8" y="70.2"/><use xlink:href="#G" x="163.8" y="70.2"/><use xlink:href="#H" x="163.8" y="70.2"/><use xlink:href="#E" x="245.7" y="70.2"/><use xlink:href="#C" x="327.6" y="70.2"/><use xlink:href="#F" x="245.7" y="70.2"/><use xlink:href="#G" x="245.7" y="70.2"/><use xlink:href="#H" x="245.7" y="70.2"/><use xlink:href="#E" x="327.6" y="70.2"/><use xlink:href="#C" x="409.5" y="70.2"/><use xlink:href="#F" x="327.6" y="70.2"/><use xlink:href="#G" x="327.6" y="70.2"/><use xlink:href="#H" x="327.6" y="70.2"/><use xlink:href="#E" x="409.5" y="70.2"/><use xlink:href="#C" x="40.95" y="105.3"/><use xlink:href="#F" x="-40.95" y="105.3"/><use xlink:href="#G" x="-40.95" y="105.3"/><use xlink:href="#H" x="-40.95" y="105.3"/><use xlink:href="#E" x="40.95" y="105.3"/><use xlink:href="#C" x="122.85" y="105.3"/><use xlink:href="#F" x="40.95" y="105.3"/><use xlink:href="#G" x="40.95" y="105.3"/><use xlink:href="#H" x="40.95" y="105.3"/><use xlink:href="#E" x="122.85" y="105.3"/><use xlink:href="#C" x="204.75" y="105.3"/><use xlink:href="#F" x="122.85" y="105.3"/><use xlink:href="#G" x="122.85" y="105.3"/><use xlink:href="#H" x="122.85" y="105.3"/><use xlink:href="#E" x="204.75" y="105.3"/><use xlink:href="#C" x="286.65" y="105.3"/><use xlink:href="#F" x="204.75" y="105.3"/><use xlink:href="#G" x="204.75" y="105.3"/><use xlink:href="#H" x="204.75" y="105.3"/><use xlink:href="#E" x="286.65" y="105.3"/><use xlink:href="#C" x="368.55" y="105.3"/><use xlink:href="#F" x="286.65" y="105.3"/><use xlink:href="#G" x="286.65" y="105.3"/><use xlink:href="#H" x="286.65" y="105.3"/><use xlink:href="#E" x="368.55" y="105.3"/><use xlink:href="#C" y="140.4"/><use xlink:href="#F" x="-81.9" y="140.4"/><use xlink:href="#D" y="140.4"/><use xlink:href="#H" x="-81.9" y="140.4"/><use xlink:href="#E" y="140.4"/><use xlink:href="#C" x="81.9" y="140.4"/><use xlink:href="#F" y="140.4"/><use xlink:href="#G" y="140.4"/><use xlink:href="#H" y="140.4"/><use xlink:href="#E" x="81.9" y="140.4"/><use xlink:href="#C" x="163.8" y="140.4"/><use xlink:href="#F" x="81.9" y="140.4"/><use xlink:href="#G" x="81.9" y="140.4"/><use xlink:href="#H" x="81.9" y="140.4"/><use xlink:href="#E" x="163.8" y="140.4"/><use xlink:href="#C" x="245.7" y="140.4"/><use xlink:href="#F" x="163.8" y="140.4"/><use xlink:href="#G" x="163.8" y="140.4"/><use xlink:href="#H" x="163.8" y="140.4"/><use xlink:href="#E" x="245.7" y="140.4"/><use xlink:href="#C" x="327.6" y="140.4"/><use xlink:href="#F" x="245.7" y="140.4"/><use xlink:href="#G" x="245.7" y="140.4"/><use xlink:href="#H" x="245.7" y="140.4"/><use xlink:href="#E" x="327.6" y="140.4"/><use xlink:href="#C" x="409.5" y="140.4"/><use xlink:href="#F" x="327.6" y="140.4"/><use xlink:href="#G" x="327.6" y="140.4"/><use xlink:href="#H" x="327.6" y="140.4"/><use xlink:href="#E" x="409.5" y="140.4"/><use xlink:href="#C" x="40.95" y="175.5"/><use xlink:href="#F" x="-40.95" y="175.5"/><use xlink:href="#G" x="-40.95" y="175.5"/><use xlink:href="#H" x="-40.95" y="175.5"/><use xlink:href="#E" x="40.95" y="175.5"/><use xlink:href="#C" x="122.85" y="175.5"/><use xlink:href="#F" x="40.95" y="175.5"/><use xlink:href="#G" x="40.95" y="175.5"/><use xlink:href="#H" x="40.95" y="175.5"/><use xlink:href="#E" x="122.85" y="175.5"/><use xlink:href="#C" x="204.75" y="175.5"/><use xlink:href="#F" x="122.85" y="175.5"/><use xlink:href="#G" x="122.85" y="175.5"/><use xlink:href="#H" x="122.85" y="175.5"/><use xlink:href="#E" x="204.75" y="175.5"/><use xlink:href="#C" x="286.65" y="175.5"/><use xlink:href="#F" x="204.75" y="175.5"/><use xlink:href="#G" x="204.75" y="175.5"/><use xlink:href="#H" x="204.75" y="175.5"/><use xlink:href="#E" x="286.65" y="175.5"/><use xlink:href="#C" x="368.55" y="175.5"/><use xlink:href="#F" x="286.65" y="175.5"/><use xlink:href="#G" x="286.65" y="175.5"/><use xlink:href="#H" x="286.65" y="175.5"/><use xlink:href="#E" x="368.55" y="175.5"/><use xlink:href="#C" y="210.6"/><use xlink:href="#F" x="-81.9" y="210.6"/><use xlink:href="#D" y="210.6"/><use xlink:href="#H" x="-81.9" y="210.6"/><use xlink:href="#E" y="210.6"/><use xlink:href="#C" x="81.9" y="210.6"/><use xlink:href="#F" y="210.6"/><use xlink:href="#G" y="210.6"/><use xlink:href="#H" y="210.6"/><use xlink:href="#E" x="81.9" y="210.6"/><use xlink:href="#C" x="163.8" y="210.6"/><use xlink:href="#F" x="81.9" y="210.6"/><use xlink:href="#G" x="81.9" y="210.6"/><use xlink:href="#H" x="81.9" y="210.6"/><use xlink:href="#E" x="163.8" y="210.6"/><use xlink:href="#C" x="245.7" y="210.6"/><use xlink:href="#F" x="163.8" y="210.6"/><use xlink:href="#G" x="163.8" y="210.6"/><use xlink:href="#H" x="163.8" y="210.6"/><use xlink:href="#E" x="245.7" y="210.6"/><use xlink:href="#C" x="327.6" y="210.6"/><use xlink:href="#F" x="245.7" y="210.6"/><use xlink:href="#G" x="245.7" y="210.6"/><use xlink:href="#H" x="245.7" y="210.6"/><use xlink:href="#E" x="327.6" y="210.6"/><use xlink:href="#C" x="409.5" y="210.6"/><use xlink:href="#F" x="327.6" y="210.6"/><use xlink:href="#G" x="327.6" y="210.6"/><use xlink:href="#H" x="327.6" y="210.6"/><use xlink:href="#E" x="409.5" y="210.6"/><use xlink:href="#C" x="40.95" y="245.7"/><use xlink:href="#F" x="-40.95" y="245.7"/><use xlink:href="#G" x="-40.95" y="245.7"/><use xlink:href="#H" x="-40.95" y="245.7"/><use xlink:href="#E" x="40.95" y="245.7"/><use xlink:href="#C" x="122.85" y="245.7"/><use xlink:href="#F" x="40.95" y="245.7"/><use xlink:href="#G" x="40.95" y="245.7"/><use xlink:href="#H" x="40.95" y="245.7"/><use xlink:href="#E" x="122.85" y="245.7"/><use xlink:href="#C" x="204.75" y="245.7"/><use xlink:href="#F" x="122.85" y="245.7"/><use xlink:href="#G" x="122.85" y="245.7"/><use xlink:href="#H" x="122.85" y="245.7"/><use xlink:href="#E" x="204.75" y="245.7"/><use xlink:href="#C" x="286.65" y="245.7"/><use xlink:href="#F" x="204.75" y="245.7"/><use xlink:href="#G" x="204.75" y="245.7"/><use xlink:href="#H" x="204.75" y="245.7"/><use xlink:href="#E" x="286.65" y="245.7"/><use xlink:href="#C" x="368.55" y="245.7"/><use xlink:href="#F" x="286.65" y="245.7"/><use xlink:href="#G" x="286.65" y="245.7"/><use xlink:href="#H" x="286.65" y="245.7"/><use xlink:href="#E" x="368.55" y="245.7"/><use xlink:href="#C" y="280.8"/><use xlink:href="#F" x="-81.9" y="280.8"/><use xlink:href="#D" y="280.8"/><use xlink:href="#H" x="-81.9" y="280.8"/><use xlink:href="#E" y="280.8"/><use xlink:href="#C" x="81.9" y="280.8"/><use xlink:href="#F" y="280.8"/><use xlink:href="#G" y="280.8"/><use xlink:href="#H" y="280.8"/><use xlink:href="#E" x="81.9" y="280.8"/><use xlink:href="#C" x="163.8" y="280.8"/><use xlink:href="#F" x="81.9" y="280.8"/><use xlink:href="#G" x="81.9" y="280.8"/><use xlink:href="#H" x="81.9" y="280.8"/><use xlink:href="#E" x="163.8" y="280.8"/><use xlink:href="#C" x="245.7" y="280.8"/><use xlink:href="#F" x="163.8" y="280.8"/><use xlink:href="#G" x="163.8" y="280.8"/><use xlink:href="#H" x="163.8" y="280.8"/><use xlink:href="#E" x="245.7" y="280.8"/><use xlink:href="#C" x="327.6" y="280.8"/><use xlink:href="#F" x="245.7" y="280.8"/><use xlink:href="#G" x="245.7" y="280.8"/><use xlink:href="#H" x="245.7" y="280.8"/><use xlink:href="#E" x="327.6" y="280.8"/><use xlink:href="#C" x="409.5" y="280.8"/><use xlink:href="#F" x="327.6" y="280.8"/><use xlink:href="#G" x="327.6" y="280.8"/><use xlink:href="#H" x="327.6" y="280.8"/><use xlink:href="#E" x="409.5" y="280.8"/></g><g clip-path="url(#A)"><path d="M29.07 58.14v650h1300v-650h-1300z" fill="#00247d"/><path d="M29.07 58.14l1300 650m0-650l-1300 650" stroke-miterlimit="86.67" stroke="#fff" stroke-width="130"/><g clip-path="url(#B)"><path d="M29.07,708.14l650-325,650,325" stroke-miterlimit="86.67" stroke-width="86.67" fill="none" stroke="#cf142b"/></g><g stroke-miterlimit="86.67"><path d="M679.07 58.14v650m-650-325h1300" stroke="#fff" stroke-width="216.67"/><path d="M679.07 58.14v650m-650-325h1300" stroke-width="130" stroke="#cf142b"/></g></g></svg>