<svg xmlns="http://www.w3.org/2000/svg" xmlns:xlink="http://www.w3.org/1999/xlink" viewBox="0 0 595 623"><defs><linearGradient id="a"><stop offset="0" stop-color="#fff"/><stop offset=".3" stop-color="#fff"/><stop offset=".5" stop-color="#bebdf3"/><stop offset=".8" stop-color="#8f82f9"/><stop offset=".9" stop-color="#9f99c7"/><stop offset="1" stop-color="#524c76"/></linearGradient><linearGradient xlink:href="#a" id="c" x1="464" x2="368.6" y1="697.4" y2="269.7" gradientTransform="translate(-161 -377) scale(1.237)" gradientUnits="userSpaceOnUse"/><linearGradient xlink:href="#a" id="b" x1="783.9" x2="1100" y1="-313.5" y2="1341" gradientTransform="translate(-1037 -1010) scale(1.237)" gradientUnits="userSpaceOnUse"/><radialGradient xlink:href="#a" id="e" cx="332.7" cy="590.6" r="218" gradientTransform="matrix(-.06604 4.19 -3.574 -.05627 2168 -1171)" gradientUnits="userSpaceOnUse"/><radialGradient xlink:href="#a" id="d" cx="49.5" cy="320.1" r="31.9" gradientTransform="matrix(3.287 0 0 2.52 112 -643)" gradientUnits="userSpaceOnUse"/></defs><g fill-rule="evenodd"><path fill="url(#b)" d="M26 522c0-26 22-63 54-96 21-23 43-42 90-82-33-18-83-39-109-68-9-10-26-34-23-65 7-64 86-162 199-183 37-6 80-1 116 14 111 50 247 175 264 235 6 22 5 56-6 75-12 23-56 71-115 120-94 77-225 160-323 174-31 5-64 0-86-13-36-20-48-46-52-54-11-22-9-49-9-57zm263-295c1-15 59 0 56 12-4 12-58 5-56-12z" transform="translate(-26 -26)"/><path fill="url(#c)" d="m201 319-77 67c-61 57-103 99-82 158 25 68 80 64 144 52 165-33 437-242 423-319-11-62-163-186-253-230-28-14-60-21-93-20C140 33 43 146 48 207c5 59 155 111 153 112zm-18-207c-38 42-14 122 48 165 72 51 189 61 212 21 43-73-4-151-75-185-70-35-162-26-185-1z" transform="translate(-26 -26)"/><path fill="url(#d)" d="M309 276c52 7 97-14 104-66 6-39-54-82-90-92-31-8-96 3-100 60-5 59 56 93 86 98zm-25-99c-35 53 50 69 62 60 56-42-47-83-62-60z" transform="translate(-26 -26)"/><path fill="url(#e)" d="M253 42c-60 6-72 14-127 55-18 14-52 48-61 88-3 16 1 29 12 38 35 30 94 54 143 77 14 7 5 19-18 39-58 50-136 111-142 158-2 21 5 51 32 66 31 18 95 6 138-10a926 926 0 0 0 346-256c3-13 3-26-4-40-12-22-28-39-44-58-45-47-93-89-150-120-41-23-77-42-125-37zm89 106c44 21 89 76 0 108-24 9-101-21-99-62 4-61 46-72 99-46z" transform="translate(-26 -26)"/></g></svg>