<svg xmlns="http://www.w3.org/2000/svg" xml:space="preserve" viewBox="0 0 240 240"><path fill="#fff" d="M97 10c-30 7-55 24-73 49a115 115 0 0 0 57 172h8c2-2 2-2 2-14v-12l-9 1c-10 0-18-2-23-6-2-1-5-6-7-10-4-8-7-11-15-18-2-2-2-2 0-4 4-3 13 0 18 7 10 12 13 15 19 16 5 1 9 1 16-1l3-5c0-3 2-6 3-8l3-3-8-2c-17-4-28-10-35-20-6-10-8-18-8-33s1-21 7-29c3-4 4-5 3-7-2-4-1-19 0-23 2-4 2-4 5-5 4 0 13 3 21 7l8 5 6-2c9-2 36-2 45 0l6 2 6-4c7-4 17-8 22-8 4 0 4 0 6 5 1 6 2 17 0 22-1 3-1 4 2 7 11 14 12 38 3 58-7 13-20 22-37 25l-9 1 3 6 4 6v44l3 2h7c8-3 22-11 30-16A115 115 0 0 0 97 10z"/></svg>