<svg xmlns="http://www.w3.org/2000/svg" xmlns:xlink="http://www.w3.org/1999/xlink" id="Layer_1" data-name="Layer 1" viewBox="0 0 993 993"><defs><path id="SVGID" d="M68 512a444 444 0 1 0 888 0 444 444 0 0 0-888 0" class="cls-1"/></defs><defs><radialGradient id="radial-gradient" cx="512.1" cy="512.1" r="444.1" gradientUnits="userSpaceOnUse"><stop offset="1" stop-opacity=".5"/><stop offset="1" stop-opacity="0"/></radialGradient><radialGradient id="radial-gradient-2" cx="514.5" cy="516.5" r="496.5" gradientUnits="userSpaceOnUse"><stop offset=".9"/><stop offset="1" stop-opacity="0"/></radialGradient><radialGradient id="radial-gradient-3" cx="512.1" cy="512.1" r="486.3" gradientUnits="userSpaceOnUse"><stop offset="1" stop-color="#fff"/><stop offset="1" stop-color="#fdfdfd"/><stop offset="1" stop-color="#f6f6f6"/><stop offset="1" stop-color="#ebebeb"/><stop offset="1" stop-color="#dadada"/><stop offset="1" stop-color="#c7c7c7"/></radialGradient><radialGradient xlink:href="#radial-gradient" id="radial-gradient-5" cx="494.1" cy="492.1" r="444.1"/><radialGradient id="radial-gradient-6" cx="5.3" cy="1029.3" r="4.7" gradientTransform="matrix(94.65428 0 0 -94.65428 -7 97921)" gradientUnits="userSpaceOnUse"><stop offset="0"/><stop offset="1" stop-color="#322f32"/></radialGradient><radialGradient id="radial-gradient-7" cx="578.9" cy="473.3" r="353.9" gradientTransform="matrix(1 0 0 1.09706 0 -46)" gradientUnits="userSpaceOnUse"><stop offset="0" stop-color="#c2c0c2"/><stop offset="1" stop-color="#ebebeb"/></radialGradient><clipPath id="clip-path" transform="translate(-18 -20)"><use xlink:href="#SVGID" class="cls-1"/></clipPath><clipPath id="clip-path-2" transform="translate(-18 -20)"><path fill="none" d="M72 512a440 440 0 1 0 881 0 440 440 0 0 0-881 0"/></clipPath><style>.cls-1{fill:url(#radial-gradient)}</style></defs><path fill="url(#radial-gradient-2)" d="M515 20a496 496 0 1 1 0 993 496 496 0 0 1 0-993" shape-rendering="geometricPrecision" transform="translate(-18 -20)"/><path fill="url(#radial-gradient-3)" d="M512 26a486 486 0 1 1 0 972 486 486 0 0 1 0-972" shape-rendering="geometricPrecision" transform="translate(-18 -20)"/><use xlink:href="#SVGID" id="SVGID-2" class="cls-1" data-name="SVGID" shape-rendering="geometricPrecision" transform="translate(-18 -20)"/><g clip-path="url(#clip-path)"><path fill="url(#radial-gradient-5)" d="M50 48h888v888H50z" shape-rendering="geometricPrecision"/></g><g clip-path="url(#clip-path-2)"><path fill="url(#radial-gradient-6)" d="M54 52h881v881H54z" shape-rendering="geometricPrecision"/></g><path fill="url(#radial-gradient-7)" d="M685 371a199 199 0 0 1-277 70 203 203 0 0 1-45-38 199 199 0 0 1-50-141 211 211 0 0 1 4-34l5-17 6-16a207 207 0 0 1 17-32l10-15 12-14 14-13 15-12 8-6a244 244 0 0 0-109 324l2 3 1 2a5 5 0 0 0 0 1h9l14 1a200 200 0 0 1 178 166 201 201 0 0 1 1 60 199 199 0 0 1-46 102 202 202 0 0 1-50 42 200 200 0 0 1-124 27 203 203 0 0 1-24-5l-14-4a243 243 0 0 0 68 19 247 247 0 0 0 67 0 244 244 0 0 0 108-45 246 246 0 0 0 60-63l2-4 1-1a8 8 0 0 0-1-2l-4-8-7-15a198 198 0 0 1-9-34 201 201 0 0 1 0-74 198 198 0 0 1 21-59 199 199 0 0 1 173-103h15l14 2 14 2 13 4q7 1 13 4l13 5 12 6 13 7 10 7 11 8 11 9 10 11 10 11a195 195 0 0 1 18 28 200 200 0 0 1 10 21 207 207 0 0 1 8 25 244 244 0 0 0-52-121 246 246 0 0 0-75-63 243 243 0 0 0-96-28h-8Z" shape-rendering="geometricPrecision" transform="translate(-18 -20)"/></svg>