<svg xmlns="http://www.w3.org/2000/svg" fill="none" viewBox="4 2 40 44"><path fill="url(#a)" d="m20 3-.1.2a8 8 0 0 0-1 .7l.6-.5H25l1 7.6-5 5-5 3.5v4a8 8 0 0 0 3.9 6.8l5.2 3.2L14 40h-2.1l-4-2.4A8 8 0 0 1 4 30.7V17.3a8 8 0 0 1 3.9-6.9l12-7.2.2-.2Z"/><path fill="url(#b)" d="m20 3-.1.2a8 8 0 0 0-1 .7l.6-.5H25l1 7.6-5 5-5 3.5v4a8 8 0 0 0 3.9 6.8l5.2 3.2L14 40h-2.1l-4-2.4A8 8 0 0 1 4 30.7V17.3a8 8 0 0 1 3.9-6.9l12-7.2.2-.2Z"/><path fill="url(#c)" d="M32 19v4.5a8 8 0 0 1-3.9 6.8l-12 7.3a8 8 0 0 1-8 .1L20 44.8a8 8 0 0 0 8.2 0l12-7.2a8 8 0 0 0 3.9-6.9v-3.2L43 26l-11-7Z"/><path fill="url(#d)" d="M32 19v4.5a8 8 0 0 1-3.9 6.8l-12 7.3a8 8 0 0 1-8 .1L20 44.8a8 8 0 0 0 8.2 0l12-7.2a8 8 0 0 0 3.9-6.9v-3.2L43 26l-11-7Z"/><path fill="url(#e)" d="m40.1 10.4-12-7.2a8 8 0 0 0-8-.2l-.2.2A8 8 0 0 0 16 10v9.5l3.9-2.3a8 8 0 0 1 8.2 0l12 7.2a8 8 0 0 1 3.9 6.3V17.3a8 8 0 0 0-3.9-6.9Z"/><path fill="url(#f)" d="m40.1 10.4-12-7.2a8 8 0 0 0-8-.2l-.2.2A8 8 0 0 0 16 10v9.5l3.9-2.3a8 8 0 0 1 8.2 0l12 7.2a8 8 0 0 1 3.9 6.3V17.3a8 8 0 0 0-3.9-6.9Z"/><path fill="url(#g)" d="M4 31Z"/><path fill="url(#h)" d="M4 31Z"/><defs><radialGradient id="a" cx="0" cy="0" r="1" gradientTransform="matrix(-11.68491 31.25272 -54.51114 -20.38088 17.4 10.7)" gradientUnits="userSpaceOnUse"><stop offset=".1" stop-color="#AE7FE2"/><stop offset="1" stop-color="#0078D4"/></radialGradient><radialGradient id="c" cx="0" cy="0" r="1" gradientTransform="matrix(30.7198 -4.51832 2.98465 20.29248 10.4 36.4)" gradientUnits="userSpaceOnUse"><stop offset=".1" stop-color="#D59DFF"/><stop offset="1" stop-color="#5E438F"/></radialGradient><radialGradient id="e" cx="0" cy="0" r="1" gradientTransform="matrix(-24.1583 -6.12555 10.3118 -40.66824 41 26.5)" gradientUnits="userSpaceOnUse"><stop offset=".1" stop-color="#50E6FF"/><stop offset="1" stop-color="#436DCD"/></radialGradient><radialGradient id="g" cx="0" cy="0" r="1" gradientTransform="matrix(-24.1583 -6.12555 10.3118 -40.66824 41 26.5)" gradientUnits="userSpaceOnUse"><stop offset=".1" stop-color="#50E6FF"/><stop offset="1" stop-color="#436DCD"/></radialGradient><linearGradient id="b" x1="17.5" x2="12.8" y1="37.9" y2="29.6" gradientUnits="userSpaceOnUse"><stop offset="0" stop-color="#114A8B"/><stop offset="1" stop-color="#0078D4" stop-opacity="0"/></linearGradient><linearGradient id="d" x1="40.4" x2="35.3" y1="25.4" y2="32.7" gradientUnits="userSpaceOnUse"><stop offset="0" stop-color="#493474"/><stop offset="1" stop-color="#8C66BA" stop-opacity="0"/></linearGradient><linearGradient id="f" x1="17" x2="24.5" y1="3.1" y2="3.1" gradientUnits="userSpaceOnUse"><stop offset="0" stop-color="#2D3F80"/><stop offset="1" stop-color="#436DCD" stop-opacity="0"/></linearGradient><linearGradient id="h" x1="17" x2="24.5" y1="3.1" y2="3.1" gradientUnits="userSpaceOnUse"><stop offset="0" stop-color="#2D3F80"/><stop offset="1" stop-color="#436DCD" stop-opacity="0"/></linearGradient></defs></svg>