<svg xmlns="http://www.w3.org/2000/svg" xml:space="preserve" viewBox="0 0 1024 1024"><path fill="#765338" d="M196 1000s0-230 316-230c317 0 317 230 317 230H196z"/><path fill="#b7835a" d="m512 770-316 230L1 398l511 372z"/><path fill="#5b422d" d="m512 770 512-372-195 602-317-230z"/><path fill="#72b147" d="m536 787-24 17-23-17c0-17 23-17 23-17s24 0 24 17z"/><path fill="#5a9a30" d="M512 770s0-372 512-372l-15 44-59 77-59 9-59 78-59 8-60 78-59 9-59 77-59 9-24-17z"/><path fill="#88b858" d="m489 787-59-9-60-77-59-9-59-78-59-9-59-77-60-9-59-77-14-45c511 0 511 373 511 373l-23 17z"/><linearGradient id="a" x1="35.2" x2="108.8" y1="995.8" y2="942.3" gradientTransform="matrix(6.95 0 0 -6.9572 12 7139)" gradientUnits="userSpaceOnUse"><stop offset="0" stop-color="#88b858"/><stop offset=".5" stop-color="#72b147"/><stop offset="1" stop-color="#5a9a30"/></linearGradient><path fill="url(#a)" d="m1 398 511 372 512-373L512 25 1 398z"/><path fill="none" d="M15 442 1 397l511 373 512-373-15 45-497 362L15 442z"/></svg>