<svg xmlns="http://www.w3.org/2000/svg" xml:space="preserve" viewBox="0 0 128 128"><path fill="none" d="M0 128V0"/><linearGradient id="a" x1="95.3" x2="26.7" y1="91.9" y2="30.7" gradientUnits="userSpaceOnUse"><stop offset="0" stop-color="#a9c8ff"/><stop offset="1" stop-color="#c7e6ff"/></linearGradient><path fill="url(#a)" fill-rule="evenodd" d="M9 109a5 5 0 0 1-4-1.8 5.2 5.2 0 0 1-.8-4.5l18-77.9a7.7 7.7 0 0 1 7.1-5.8H119a5 5 0 0 1 4 1.8c.9 1.2 1.2 2.8.8 4.5l-18 77.9a7.7 7.7 0 0 1-7.1 5.8H9z" clip-rule="evenodd" opacity=".8"/><linearGradient id="b" x1="26.6" x2="93.6" y1="30.8" y2="90.3" gradientUnits="userSpaceOnUse"><stop offset="0" stop-color="#2d4664"/><stop offset=".2" stop-color="#29405b"/><stop offset=".4" stop-color="#1e2f43"/><stop offset=".8" stop-color="#0c131b"/><stop offset="1"/></linearGradient><path fill="url(#b)" fill-rule="evenodd" d="M118.5 20H29.6a6.7 6.7 0 0 0-6.1 5L5.6 103c-.6 2.7 1.1 5 3.9 5h88.9c2.7 0 5.5-2.3 6.1-5l17.9-78c.6-2.7-1.1-5-3.9-5z" clip-rule="evenodd"/><path fill="#2C5591" fill-rule="evenodd" d="M64.2 87.6h21.6c2.5 0 4.5 2 4.5 4.7 0 2.6-2 4.8-4.5 4.8H64.2a4.7 4.7 0 0 1-4.6-4.8c0-2.6 2-4.7 4.6-4.7zm14-21.1c-.4.7-1.2 1.5-2.5 2.5L35.6 97.8a5 5 0 0 1-7-1.3 5 5 0 0 1 .9-7.1l36.1-26.2v-.5L43 38.5a5 5 0 0 1 .4-7.1 5 5 0 0 1 7.2 0l27.2 29a5 5 0 0 1 .5 6z" clip-rule="evenodd"/><path fill="#FFF" fill-rule="evenodd" d="M77.2 65.5c-.4.7-1.2 1.5-2.5 2.5L34.6 96.8a5 5 0 0 1-7-1.3 5 5 0 0 1 .9-7.1l36.1-26.2v-.5L42 37.5a5 5 0 0 1 .4-7.1 5 5 0 0 1 7.2 0l27.2 29a5 5 0 0 1 .5 6zM63.5 87h21.7c2.5 0 4.5 2 4.5 4.5s-2 4.5-4.5 4.5H63.5C61 96 59 94 59 91.5s2-4.5 4.5-4.5z" clip-rule="evenodd"/></svg>