<svg xmlns="http://www.w3.org/2000/svg" viewBox="0 0 200 215"><path fill="#63a0ff" d="M101 0a21 22 0 0 0-12 3L17 45A21 22 0 0 0 6 64v84a21 22 0 0 0 11 19l72 42a21 22 0 0 0 22 0l73-42a21 22 0 0 0 10-19V64a21 22 0 0 0-10-19L111 3a21 22 0 0 0-10-3zm-1 48a12 12 0 0 1 6 2l40 23a12 12 0 0 1 6 10v46a12 12 0 0 1-6 10l-40 23a12 12 0 0 1-12 0l-40-23a12 12 0 0 1-6-10V83a12 12 0 0 1 6-10l40-23a12 12 0 0 1 6-2z"/><path fill="#3874d8" d="m191 53-41 24a12 12 0 0 1 2 6v46a12 12 0 0 1-6 10l-40 23a12 12 0 0 1-6 2v48a21 22 0 0 0 11-3l16-10 21 12c9 6 24 6 33 0l9-5c9-5 9-14 0-19l-20-12 14-8a21 22 0 0 0 10-19V64a21 22 0 0 0-3-11z"/><path fill="#99bfff" d="m9 53 41 24a12 12 0 0 1 4-4l40-23a12 12 0 0 1 12 0l40 23a12 12 0 0 1 4 4l41-24a21 22 0 0 0-7-8L111 3a21 22 0 0 0-22 0L17 45a21 22 0 0 0-8 8z"/></svg>