<svg xmlns="http://www.w3.org/2000/svg" xml:space="preserve" viewBox="0 0 1024 1024"><path fill="#5e4e7a" d="M472 744v-4l67-188c0-1 4-3 6-2l467 158 3 2h-4l-415 26-124 8zM288 307h273c1 0 4 4 4 6l-59 164-5 3L13 309l-4-1 4-1h275zm475 59-4 3-188 87-4 2 1-4L704 72l1-3 1 1 57 296zm213-35L795 579c0 2-3 2-5 1l-190-68-3-2 2-1 374-177 3-1zM75 696c53-76 107-151 159-227 11-17 20-19 38-12l175 61 3 1-2 2L78 696h-3zm398-122-84 235-52 143-2 3-1-3-49-285c-1-1 0-4 1-4l185-89h2zm503-243v-1h1l-1 1zM473 574v-1 1zM75 696v1l-1-1h1z"/></svg>