<svg xmlns="http://www.w3.org/2000/svg" xml:space="preserve" id="Layer_1" x="0" y="0" version="1.1" viewBox="0 0 1024 1024"><style>.st0{fill:#56347c}</style><g id="g5374" transform="translate(-9 -2) scale(1.22797)"><path id="path5189-4" d="M749 390v138c0 5-3 6-6 3l-71-59c-3-3-6-8-6-12v-18l-22-18c-24-19-43-58-43-87 0-28 19-36 43-16l22 18v-18c0-4 3-5 6-2l71 58c3 3 6 9 6 13zm-104-44c-12-10-22-6-22 9s10 36 22 46l21 17v-55l-21-17z" class="st0"/><g id="g3500" transform="rotate(63 51 55) scale(1.0365)"><path id="path3502" d="M900-268a10 10 0 0 0-1-3l-1-1v-1l-1-1-2-1v-1h-1l-4-3-207 93-386-195-6 3-1 1h-1v1l-1 1-1 1v1h-1v3l-1 1v1a10 10 0 0 0 0 1v131l28-13L615-99 407-7 250-85l-141-71h-1a12 12 0 0 0-2-1h-2a13 13 0 0 0-4 1 11 11 0 0 0-4 3l-1 1v1h-1v3l-1 1V17a9 9 0 0 0 1 3v1a10 10 0 0 0 5 4v1l303 151 1 1h8l1-1 188-82 78 43v1h2l1 1h5v-1h2l206-96c4-2 6-6 6-10v-301zM396 68l-63 31 33 16 30-16v52L115 11v-82l72 35-60 28 33 16 60-28 36 17-62 29 33 17 62-29 38 19-61 28 33 17 61-29 36 18v1zm232-12-210 94V12l210-93V56zM115-97v-27L396 14v27L115-97z" class="st0"/></g><path id="polygon3506" d="m352 330-45-36v-55l45 35z" class="st0"/><path id="polygon3508" d="M352 175v56l-45-36v-55z" class="st0"/><path id="path4818-2-4-3" d="M390 205c18 22 36 66 36 106 0 41-18 54-36 48V205z" class="st0"/></g></svg>